<?xml version="1.0" encoding="UTF-8"?>
<svg version="1.1" xmlns="http://www.w3.org/2000/svg" width="1024" height="1024">
<path d="M0 0 C337.92 0 675.84 0 1024 0 C1024 337.92 1024 675.84 1024 1024 C686.08 1024 348.16 1024 0 1024 C0 686.08 0 348.16 0 0 Z " fill="#FEF4DE" transform="translate(0,0)"/>
<path d="M0 0 C1.02311279 -0.01844971 2.04622559 -0.03689941 3.1003418 -0.0559082 C11.56092398 0.01433584 18.84856871 2.27398278 26.54980469 5.68457031 C29.84297597 6.83946238 31.62238347 5.64983538 34.875 4.5 C37.75283043 4.20037462 40.60883959 4.21392927 43.5 4.25 C44.30195801 4.25821777 45.10391602 4.26643555 45.93017578 4.27490234 C82.80129668 4.96415144 118.33500067 25.72115707 144.546875 50.32421875 C146.54397354 52.19063466 148.58522326 53.94296363 150.6875 55.6875 C154.69337747 59.17195127 158.3073204 63.00779186 161.9375 66.875 C162.55890869 67.53612793 163.18031738 68.19725586 163.82055664 68.87841797 C166.90909211 72.21292836 169.6409346 75.49452551 172.125 79.3125 C175.79422031 84.19274376 180.77694349 86.49786497 186.07324219 89.28515625 C209.29103083 101.5371898 230.90727245 117.14519861 251.02392578 133.95751953 C252.75469106 135.39974784 254.49866259 136.82414933 256.24609375 138.24609375 C263.78085643 144.45602639 270.76235699 151.18277769 277.6875 158.0625 C278.55914795 158.92488281 279.4307959 159.78726563 280.32885742 160.67578125 C285.52018634 165.8923036 290.30035587 171.30035414 294.90307617 177.04223633 C296.46860898 178.99348293 298.05619034 180.90316555 299.703125 182.78515625 C327.85609637 215.07025729 349.59707934 254.24014888 363.875 294.5 C364.14119141 295.23959961 364.40738281 295.97919922 364.68164062 296.74121094 C378.47295386 335.30451593 385.00057081 375.62551943 385.875 416.5 C385.90223145 417.52319336 385.92946289 418.54638672 385.95751953 419.60058594 C386.41321338 438.40727159 385.04758174 456.84747556 382.875 475.5 C382.67414795 477.2639209 382.67414795 477.2639209 382.46923828 479.06347656 C376.09295269 533.08800543 354.90442148 584.93900777 325.31152344 630.28710938 C323.88983133 632.4771531 322.49266639 634.68105048 321.1015625 636.890625 C312.29512883 650.81579824 302.49570296 663.90335231 291.875 676.5 C291.40030273 677.06493164 290.92560547 677.62986328 290.43652344 678.21191406 C284.81414667 684.89094069 279.19169792 691.46129857 272.875 697.5 C270.35165349 700.0067182 267.8472458 702.52853235 265.3671875 705.078125 C259.20321129 711.37090072 252.79486687 717.03267363 245.875 722.5 C244.7189534 723.43353691 243.56406206 724.36850574 242.41015625 725.3046875 C238.58837385 728.39952805 234.73843484 731.45736464 230.875 734.5 C230.24996582 734.9940332 229.62493164 735.48806641 228.98095703 735.99707031 C181.56863943 773.2434593 122.01800594 796.03927201 62.89257812 806.15283203 C61.51520246 806.38983932 60.13892397 806.63329036 58.76367188 806.88232422 C-14.76166354 820.17142081 -92.10279914 806.55617861 -159.125 774.5 C-160.00494629 774.08540527 -160.88489258 773.67081055 -161.79150391 773.24365234 C-191.71023525 759.08402766 -218.92996888 740.17993256 -244.29882812 719.01757812 C-245.99583835 717.6073354 -247.70681812 716.21630735 -249.421875 714.828125 C-257.35740992 708.31322231 -264.66352653 701.17156957 -271.9375 693.9375 C-272.42582306 693.45444397 -272.91414612 692.97138794 -273.41726685 692.47369385 C-280.11812055 685.82882278 -286.23579261 678.87374234 -292.125 671.5 C-292.99909819 670.47151871 -293.87901286 669.44789076 -294.76953125 668.43359375 C-308.13784946 653.04196251 -318.1104042 635.16499554 -328.125 617.5 C-328.64594238 616.58734375 -329.16688477 615.6746875 -329.70361328 614.734375 C-338.41727328 599.40774449 -345.97060261 583.60230787 -353.125 567.5 C-353.72054687 566.17500488 -353.72054687 566.17500488 -354.328125 564.82324219 C-373.92069973 520.75769595 -380.36392834 470.55435823 -380.3125 422.75 C-380.31256042 421.87736511 -380.31262085 421.00473022 -380.31268311 420.10565186 C-380.30036072 407.56690779 -379.93697011 395.19207254 -378.38964844 382.73535156 C-378.13358062 380.57247618 -377.93576014 378.41274661 -377.7578125 376.2421875 C-371.30578805 301.65196088 -336.36411424 228.28819744 -287.125 172.5 C-286.47499023 171.76241455 -285.82498047 171.0248291 -285.15527344 170.26489258 C-279.54369375 163.95960084 -273.7156261 157.90751259 -267.75 151.9375 C-266.88117188 151.05642578 -266.01234375 150.17535156 -265.1171875 149.26757812 C-259.10096173 143.23800274 -252.78093159 137.80696372 -246.125 132.5 C-244.81948432 131.41557722 -243.51700945 130.32747443 -242.21875 129.234375 C-224.41018921 114.38089329 -204.64170684 101.02636243 -184.33984375 89.81640625 C-175.37462575 84.86523185 -169.22287536 80.09442436 -162.57958984 72.17871094 C-153.52738916 61.7317603 -143.25889589 52.64248218 -132.125 44.5 C-131.46773926 44.0143457 -130.81047852 43.52869141 -130.13330078 43.02832031 C-91.53480034 14.63339227 -48.17473516 0.4952707 0 0 Z " fill="#19150F" transform="translate(507.125,85.5)"/>
<path d="M0 0 C0.69222656 0.54527344 0.69222656 0.54527344 1.3984375 1.1015625 C9.92512279 7.67351361 18.64763437 12.52051227 28.6875 16.375 C43.3672224 22.22690984 55.80157369 28.9422446 68 39 C68.69867187 39.556875 69.39734375 40.11375 70.1171875 40.6875 C73.90496644 43.78506144 77.04843422 47.23449185 80.20703125 50.96484375 C81.92542088 52.91534701 83.72936603 54.66108829 85.625 56.4375 C109.09312284 79.81501233 124.25231475 112.2168504 128 145 C127.34 144.319375 126.68 143.63875 126 142.9375 C125.00344639 141.95482596 124.00303447 140.97605799 123 140 C122.16275391 139.16855469 122.16275391 139.16855469 121.30859375 138.3203125 C108.87866077 126.64292244 93.65372603 123.26318424 77.1015625 123.7109375 C71.82114854 123.9542086 66.6082158 124.51432458 61.375 125.25 C60.570625 125.35908691 59.76625 125.46817383 58.9375 125.58056641 C52.45730544 126.60722514 45.42726077 128.27852581 40.9375 133.3125 C39.72159723 136.79808795 39.53341389 139.33396624 40 143 C41.86708505 145.36497439 43.32061431 146.66030715 46 148 C50.30908063 148.22679372 53.97229116 148.09881027 58.1484375 147.02734375 C63.12213689 145.88003829 67.97213132 145.55393417 73.0625 145.375 C74.4388562 145.32460571 74.4388562 145.32460571 75.84301758 145.27319336 C77.69696596 145.20881903 79.551058 145.14844365 81.40527344 145.09228516 C83.70452122 145.01050912 85.99350957 144.8805584 88.2890625 144.73046875 C99.63187827 144.24175024 111.02591247 146.73805762 120.8125 152.71875 C123.82532653 154.48340554 125.7100563 153.8416135 129 153 C132.15091555 159.30183109 131.43392418 169.03817229 132 176 C132.09458496 177.13888672 132.18916992 178.27777344 132.28662109 179.45117188 C133.07382875 189.2932723 133.61776528 199.13487599 134 209 C134.03325378 209.85591736 134.06650757 210.71183472 134.10076904 211.59368896 C135.69279796 254.97722094 134.35807676 304.4389668 119.75 345.8125 C119.45480469 346.67157959 119.15960937 347.53065918 118.85546875 348.41577148 C115.93270984 356.65284596 112.2104113 364.35444133 108 372 C107.43539063 373.05445313 106.87078125 374.10890625 106.2890625 375.1953125 C100.26825638 386.02145684 92.58000331 395.53044144 84.19921875 404.61328125 C82.74208922 406.19464207 81.30663579 407.79627541 79.89453125 409.41796875 C71.05327934 419.54756338 61.36744859 428.76145751 50 436 C49.02804687 436.63292969 48.05609375 437.26585937 47.0546875 437.91796875 C21.80739334 453.95341234 -2.57494394 460.42863527 -32.5625 454.125 C-55.58537836 448.77051319 -76.55076313 438.61990489 -96.08398438 425.53125 C-97.99206919 424.25530337 -99.90955226 422.99447947 -101.828125 421.734375 C-121.08440118 408.96663002 -137.8903905 393.81258772 -150 374 C-150.61858887 372.99122803 -151.23717773 371.98245605 -151.87451172 370.94311523 C-157.06945121 362.27611073 -160.92463063 353.37051185 -164.5 343.9375 C-165.06010874 342.48193366 -165.6210728 341.02669618 -166.18286133 339.57177734 C-167.28871001 336.70320309 -168.38822144 333.83232289 -169.48291016 330.95947266 C-170.80882126 327.48662994 -172.16896778 324.02835845 -173.54296875 320.57421875 C-174.25805431 318.75790768 -174.97291903 316.94150965 -175.6875 315.125 C-176.00203125 314.34374756 -176.3165625 313.56249512 -176.640625 312.75756836 C-178.88883014 306.95117533 -180.05386172 301.14594157 -181 295 C-182.65 295 -184.3 295 -186 295 C-185.94199219 295.89460938 -185.88398438 296.78921875 -185.82421875 297.7109375 C-185.51502093 305.99743909 -186.02910465 312.18277209 -191 319 C-194.49807211 322.69478522 -197.8627868 325.13477136 -203 325.4375 C-209.07331331 325.37882064 -213.18753421 322.43983809 -218 319 C-219.010625 318.278125 -220.02125 317.55625 -221.0625 316.8125 C-225.62269815 312.79334231 -229.34734041 307.8352886 -233 303 C-233.54188965 302.2989917 -234.0837793 301.5979834 -234.64208984 300.87573242 C-239.5598025 294.23958007 -242.724553 287.34593207 -245.75 279.6875 C-246.45189453 277.9869043 -246.45189453 277.9869043 -247.16796875 276.25195312 C-254.45663325 258.13353075 -258.96553135 236.56693919 -252.125 217.63671875 C-248.81429623 209.87725679 -243.66526666 205.23121449 -236.125 201.625 C-227.51298149 199.9025963 -222.36039859 200.60353865 -214.8203125 205.53637695 C-204.24671607 212.81816403 -192.84913131 223.30173738 -187 235 C-185.35 234.67 -183.7 234.34 -182 234 C-181.93006836 232.97753174 -181.86013672 231.95506348 -181.78808594 230.90161133 C-181.52013931 227.04428439 -181.23187135 223.18868218 -180.93798828 219.33325195 C-180.81442786 217.676419 -180.69610614 216.01918549 -180.58349609 214.36157227 C-179.52844 198.92320725 -176.62504008 186.73465764 -168.3125 173.4375 C-161.9691092 162.92173161 -156.77171764 152.29696182 -152 141 C-146.34980459 127.81167787 -140.70599196 114.69124648 -134 102 C-133.62939453 101.29069336 -133.25878906 100.58138672 -132.87695312 99.85058594 C-126.77410141 88.23892048 -119.82967588 77.51816173 -112 67 C-111.33613281 66.08992188 -110.67226563 65.17984375 -109.98828125 64.2421875 C-100.32154638 51.53493949 -88.93543587 40.79023485 -75 33 C-74.2992334 32.59442871 -73.5984668 32.18885742 -72.87646484 31.77099609 C-59.96927244 24.33395456 -46.79519086 19.56521306 -32.58007812 15.26855469 C-15.00333977 10.08701561 -15.00333977 10.08701561 0 0 Z " fill="#D5834E" transform="translate(548,142)"/>
<path d="M0 0 C10.21526893 5.58985814 19.59171223 12.16580866 29 19 C29.56783203 19.41040527 30.13566406 19.82081055 30.72070312 20.24365234 C53.90734161 37.05899333 76.51553818 57.28654026 94 80 C94.93290074 81.14722035 95.86935969 82.29155273 96.80859375 83.43359375 C103.54605632 91.65525097 109.76729168 100.11918677 115.64990234 108.97167969 C116.98053896 110.9707627 118.32773611 112.95794256 119.67578125 114.9453125 C143.39761468 150.31929674 158.57856378 189.89705343 169 231 C169.22026855 231.86222168 169.44053711 232.72444336 169.66748047 233.61279297 C172.35236437 244.381783 173.80171695 255.31509615 175.1875 266.3125 C175.27253784 266.98705231 175.35757568 267.66160461 175.44519043 268.3565979 C180.36219375 307.86788759 178.69688673 348.46837437 169.61474609 387.30566406 C169.01054933 389.95376394 168.47509248 392.60728124 167.95703125 395.2734375 C162.98603352 420.091672 153.64307904 444.10987381 143 467 C142.31019043 468.50868652 142.31019043 468.50868652 141.60644531 470.04785156 C136.19763366 481.85055972 130.44451855 493.35869121 123.875 504.5625 C123.3183667 505.51519775 122.7617334 506.46789551 122.18823242 507.44946289 C121.6697876 508.3130542 121.15134277 509.17664551 120.6171875 510.06640625 C119.93052002 511.2102478 119.93052002 511.2102478 119.22998047 512.37719727 C118.82408691 512.91272217 118.41819336 513.44824707 118 514 C117.34 514 116.68 514 116 514 C115.27854999 512.2695712 114.55722282 510.5390912 113.8359375 508.80859375 C113.37799805 507.71015137 112.92005859 506.61170898 112.44824219 505.47998047 C111.51945978 503.24820966 110.5928329 501.01553985 109.66894531 498.78173828 C101.61944819 479.32630064 93.01279769 462.75614355 80.890625 445.54296875 C66.07545841 424.49077358 55.83164023 403.26547036 55.8125 377.0625 C55.80025391 376.24587891 55.78800781 375.42925781 55.77539062 374.58789062 C55.76239929 368.65085136 56.17096867 362.79893705 56.71046448 356.89155579 C57.97515398 343.03498491 58.40384 329.28613382 58.375 315.375 C58.37345917 314.23415955 58.37191833 313.09331909 58.37033081 311.91790771 C58.31539255 294.74753101 57.42754318 278.31609698 54.41522217 261.38549805 C53.55003088 256.4148768 52.7533628 251.43266224 51.94140625 246.453125 C49.27978637 230.20351261 46.56918005 213.96142186 43.73846436 197.74032593 C43.13221194 194.26539596 42.53226817 190.78941345 41.9375 187.3125 C41.82247131 186.64017334 41.70744263 185.96784668 41.58892822 185.27514648 C39.00533237 170.03026472 37.03752662 154.70034949 35 139.375 C29.10729337 95.15478982 22.78750122 50.46389958 3.6640625 9.6796875 C2.19240629 6.52192907 1.02787084 3.33279334 0 0 Z " fill="#FEF3DF" transform="translate(698,197)"/>
<path d="M0 0 C0 4.2886354 -2.01190223 7.56927637 -3.8125 11.375 C-13.55412445 32.57354503 -21.37533099 54.35934201 -27 77 C-27.23992676 77.94665527 -27.47985352 78.89331055 -27.72705078 79.86865234 C-35.65642567 111.63493136 -40.99577596 144.48190512 -44.47973633 177.02197266 C-47.77142941 207.22472068 -52.07744396 237.90016835 -61 267 C-61.3098584 268.06154297 -61.3098584 268.06154297 -61.62597656 269.14453125 C-65.95613114 283.96955447 -72.4955138 298.23067503 -78.8125 312.29296875 C-84.57373698 325.11923329 -89.74666784 337.94882755 -94.12109375 351.31591797 C-94.97217689 353.91503132 -95.84408215 356.50640236 -96.71875 359.09765625 C-98.25334021 363.70234663 -99.66907004 368.33257005 -101 373 C-101.51240234 374.78664063 -101.51240234 374.78664063 -102.03515625 376.609375 C-106.22502041 394.4601451 -105.0264899 415.14007935 -102.72314453 433.23779297 C-100.85260722 448.53501278 -99.16711618 467.76497403 -108.2734375 481.1171875 C-111.93696982 485.11226121 -116.49787255 488.03110481 -121 491 C-121.99 491.66 -122.98 492.32 -124 493 C-134.94319456 474.08358018 -143.6101358 454.55567244 -151 434 C-151.33918457 433.06172363 -151.67836914 432.12344727 -152.02783203 431.15673828 C-172.08464959 375.09760318 -178.08643427 311.75800451 -168 253 C-167.81276367 251.86723633 -167.62552734 250.73447266 -167.43261719 249.56738281 C-164.7206445 233.39390841 -160.79358482 217.67667172 -156 202 C-155.72430176 201.09443359 -155.44860352 200.18886719 -155.16455078 199.25585938 C-139.46610819 148.39778477 -112.38035116 99.17704164 -75 61 C-74.14631836 60.12585449 -73.29263672 59.25170898 -72.41308594 58.35107422 C-69.93729425 55.82107103 -67.45157472 53.30110131 -64.95993042 50.78671265 C-63.96311395 49.78054484 -62.96755977 48.77312454 -61.97341919 47.76431274 C-55.33443378 41.0402284 -48.4298173 34.84495994 -41 29 C-40.41935791 28.5344873 -39.83871582 28.06897461 -39.24047852 27.58935547 C-32.25938283 22.00775808 -25.00259777 16.81914684 -17.6875 11.6875 C-16.4336853 10.80735229 -16.4336853 10.80735229 -15.15454102 9.90942383 C-10.18984182 6.45136299 -5.15756636 3.1633865 0 0 Z " fill="#FEF3DF" transform="translate(316,198)"/>
<path d="M0 0 C3.17070317 3.06842242 6.13669733 6.25900281 9.0625 9.5625 C40.54437964 44.7172656 88.25750872 77.80590015 136.6484375 80.87109375 C137.75445313 80.91363281 138.86046875 80.95617187 140 81 C140.70672852 81.02723145 141.41345703 81.05446289 142.14160156 81.08251953 C166.74137113 81.90045415 188.1728547 74.4986 208 60 C207.49844546 67.40030818 206.99626533 74.80056953 206.48828125 82.20043945 C205.69375898 93.78341938 204.90726016 105.36685923 204.13537025 116.95136738 C203.62495569 124.60740986 203.10945969 132.26310264 202.59134483 139.91862774 C202.26415356 144.75665744 201.93929652 149.59481877 201.62005615 154.43338013 C199.23542229 190.53011515 199.23542229 190.53011515 197.48828125 205.4765625 C197.38036255 206.41735153 197.27244385 207.35814056 197.16125488 208.32743835 C195.45439635 221.78477074 190.98811244 234.54491851 185.41796875 246.859375 C184.09344827 249.79302367 182.91750568 252.75135383 181.75 255.75 C179.52380414 261.1101609 176.85826607 266.17112876 174.0625 271.25 C173.65547852 271.99475586 173.24845703 272.73951172 172.82910156 273.50683594 C169.93895839 278.66142118 166.65210478 283.35686787 163 288 C159.87170176 286.51726463 158.03282891 285.17535928 155.8125 282.5 C153.18870205 279.39155147 150.50812861 276.36502852 147.75 273.375 C144.19345422 269.43868747 140.87729307 265.37353445 137.625 261.1875 C126.44180477 246.78565556 126.44180477 246.78565556 113.02734375 234.515625 C109.22005547 231.35189126 105.78265102 227.90039592 102.3125 224.375 C97.36987449 219.35805391 92.37617638 214.55340725 87 210 C82.52197924 206.03714977 78.08195751 202.03590595 73.7421875 197.921875 C66.34029075 190.92124173 58.71462456 184.46655023 50.63427734 178.265625 C47.17795497 175.58896304 43.80151717 172.81772055 40.453125 170.0078125 C38.10475218 168.02299385 38.10475218 168.02299385 35.859375 166.5546875 C18.5350076 154.07295823 11.88245856 118.11925941 5.5 98.5625 C5.18603271 97.6122998 4.87206543 96.66209961 4.54858398 95.68310547 C-0.20615233 80.74113522 -1.37134418 67.45797754 -0.75 51.9375 C-0.69512545 50.17778018 -0.64173246 48.41801352 -0.58984375 46.65820312 C-0.53517972 44.96870659 -0.47923745 43.27925082 -0.421875 41.58984375 C-0.39575134 40.81478989 -0.36962769 40.03973602 -0.3427124 39.24119568 C-0.17419492 35.07812083 0.26496546 31.10934203 1 27 C1.32476171 17.95443109 1.06672688 8.99098368 0 0 Z " fill="#D1804A" transform="translate(394,529)"/>
<path d="M0 0 C4.17218853 4.18141904 6.75094613 9.63328045 9.453125 14.83203125 C9.99803589 15.87846802 9.99803589 15.87846802 10.55395508 16.94604492 C13.03740557 22.01492187 13.03740557 22.01492187 12.63891602 24.69628906 C11.72501434 27.20927465 10.4096869 28.34350437 8.390625 30.08203125 C7.74996094 30.64921875 7.10929688 31.21640625 6.44921875 31.80078125 C-0.62490027 36.84897886 -8.91563622 39.52164345 -16.98562622 42.55453491 C-43.09855263 52.40424585 -64.37897611 64.6183819 -85.046875 83.58203125 C-85.93761719 84.3915625 -86.82835937 85.20109375 -87.74609375 86.03515625 C-94.47584292 92.16813366 -101.11444126 98.39416606 -107.73266602 104.6472168 C-113.06790096 109.68185812 -118.46791329 114.63736732 -123.921875 119.54296875 C-126.09626735 121.40103669 -126.09626735 121.40103669 -127.046875 123.58203125 C-127.706875 123.58203125 -128.366875 123.58203125 -129.046875 123.58203125 C-129.28019531 124.13503906 -129.51351562 124.68804687 -129.75390625 125.2578125 C-131.38323035 128.18665794 -133.4363209 130.33070813 -135.734375 132.76953125 C-140.13387246 137.51096673 -144.15076958 142.42299335 -148.046875 147.58203125 C-149.27675729 149.16530504 -150.50668255 150.74854575 -151.73754883 152.33105469 C-157.40935707 159.64528661 -162.78621041 167.10755587 -167.83984375 174.86328125 C-178.39158183 190.89909222 -190.21493017 204.58703323 -206.046875 215.58203125 C-207.62275391 216.70351563 -207.62275391 216.70351563 -209.23046875 217.84765625 C-212.046875 219.58203125 -212.046875 219.58203125 -215.046875 219.58203125 C-215.046875 220.24203125 -215.046875 220.90203125 -215.046875 221.58203125 C-216.7265625 222.87109375 -216.7265625 222.87109375 -218.921875 224.20703125 C-220.00082031 224.87605469 -220.00082031 224.87605469 -221.1015625 225.55859375 C-223.046875 226.58203125 -223.046875 226.58203125 -225.046875 226.58203125 C-225.27375 227.28328125 -225.500625 227.98453125 -225.734375 228.70703125 C-227.04532062 231.57862642 -228.67395948 233.54512867 -230.74609375 235.8984375 C-232.64215656 238.35250078 -233.87144845 241.03513721 -235.15234375 243.84765625 C-236.046875 245.58203125 -236.046875 245.58203125 -238.046875 247.58203125 C-238.6893985 249.65077159 -238.6893985 249.65077159 -239.046875 251.58203125 C-239.706875 251.58203125 -240.366875 251.58203125 -241.046875 251.58203125 C-241.22762498 246.05722917 -240.56334829 241.040688 -239.5078125 235.625 C-239.26593201 234.34664528 -239.26593201 234.34664528 -239.01916504 233.04246521 C-238.49424821 230.28331869 -237.95893692 227.52633769 -237.421875 224.76953125 C-237.24013733 223.82785095 -237.05839966 222.88617065 -236.87115479 221.91595459 C-232.60856562 199.8472805 -227.99047561 177.98563641 -221.046875 156.58203125 C-220.79357422 155.78168457 -220.54027344 154.98133789 -220.27929688 154.15673828 C-211.6607035 127.10753139 -197.9238207 103.26573292 -181.046875 80.58203125 C-180.64259277 80.03353516 -180.23831055 79.48503906 -179.82177734 78.91992188 C-173.72193227 70.67074573 -167.14233838 62.99479014 -160.046875 55.58203125 C-159.52641602 55.02902344 -159.00595703 54.47601563 -158.46972656 53.90625 C-146.48755142 41.21502803 -133.10621662 30.31680918 -117.91259766 21.64794922 C-116.55334779 20.87138747 -115.19956145 20.08523932 -113.84912109 19.29345703 C-88.02359821 4.1831726 -28.71718232 -19.89377325 0 0 Z " fill="#2B221A" transform="translate(526.046875,101.41796875)"/>
<path d="M0 0 C1.80044807 2.70067211 2.37877584 3.97615474 3.04296875 7.0078125 C3.22577393 7.81605469 3.4085791 8.62429688 3.59692383 9.45703125 C3.79181396 10.33746094 3.9867041 11.21789062 4.1875 12.125 C6.77830282 23.39904802 9.8815032 34.49686982 13.04541016 45.62109375 C14.72676587 51.57249095 16.36040951 57.53699138 18 63.5 C18.6821881 65.96877862 19.3644789 68.43752887 20.046875 70.90625 C21.25952253 75.29825605 22.45817345 79.69352689 23.640625 84.09375 C34.9340457 125.79651912 50.32981968 166.12953576 65.80926514 206.41882324 C73.12275247 225.45549108 79.91713443 244.65907486 86.5625 263.9375 C86.83474396 264.72486542 87.10698792 265.51223083 87.38748169 266.32345581 C88.15879341 268.55695513 88.92579452 270.79188511 89.69140625 273.02734375 C89.92529053 273.70317505 90.1591748 274.37900635 90.40014648 275.07531738 C92 279.77039397 92 279.77039397 92 282 C77.46080505 281.81338256 64.08635504 279.49330682 50 276 C48.59552257 275.65972012 47.1908916 275.32007353 45.78613281 274.98095703 C41.96773575 274.05599288 38.15632358 273.10566372 34.34817505 272.1394043 C32.84020147 271.75879182 31.33083061 271.38366762 29.82003784 271.0144043 C21.52115628 268.97380352 14.36168302 267.03133599 8 261 C7.06414062 260.20980469 6.12828125 259.41960937 5.1640625 258.60546875 C-2.74517546 251.0734406 -7.93258023 242.62559682 -13 233 C-13.33467285 232.37706055 -13.6693457 231.75412109 -14.01416016 231.11230469 C-20.35906103 219.15852458 -20.35906103 219.15852458 -19.90234375 213.04296875 C-18.18225264 209.14856333 -14.56766969 207.28636622 -11.09375 205.0390625 C-4.44851292 200.65924715 5.51942853 193.51849367 7.6875 185.4375 C5.9162602 179.1576498 -3.2444779 175.20275972 -8.5 172 C-9.40548584 171.44328613 -10.31097168 170.88657227 -11.24389648 170.31298828 C-19.06904777 165.52136695 -26.96340278 160.84712573 -34.890625 156.2265625 C-35.76332031 155.71609375 -36.63601563 155.205625 -37.53515625 154.6796875 C-38.302229 154.23351074 -39.06930176 153.78733398 -39.85961914 153.32763672 C-45.78195849 149.65412453 -45.78195849 149.65412453 -47 146 C-47.58012937 135.3013351 -46.74603331 124.67269326 -45.85449219 114.0168457 C-44.89464488 102.32058788 -44.29059675 90.61101418 -43.69775391 78.89160156 C-42.11690694 47.87714486 -42.11690694 47.87714486 -37.375 43.5 C-36.03103053 42.54621522 -34.67162843 41.61395224 -33.30078125 40.69921875 C-21.742497 32.16296467 -13.00680411 17.88418525 -4.69140625 6.33984375 C-3.15059039 4.20832251 -1.58499782 2.09878916 0 0 Z " fill="#4E1C1B" transform="translate(378,594)"/>
<path d="M0 0 C-0.508471 6.19531773 -1.17120062 12.35065999 -1.96875 18.515625 C-3.86987227 34.10329773 -4.14688976 49.85234946 -4.69006348 65.53338623 C-4.86791184 70.65424772 -5.08180866 75.76905597 -5.36801147 80.88499451 C-5.53491563 84.04685931 -5.63827295 87.21077697 -5.75 90.375 C-5.82621582 91.46466064 -5.90243164 92.55432129 -5.98095703 93.67700195 C-6.07836838 98.16044938 -5.99604486 100.85083851 -2.9909668 104.31787109 C-0.42439917 106.42943957 2.18402291 108.23751151 5 110 C5.68658691 110.45906738 6.37317383 110.91813477 7.08056641 111.39111328 C8.92413568 112.60072981 10.79473791 113.74420795 12.6875 114.875 C18.85110004 118.63766711 24.89403272 122.53802443 30.86401367 126.60107422 C34.81046246 129.26983173 38.83901431 131.67832901 43 134 C38.70449764 139.68522371 33.69960981 143.7729627 28.02685547 148.00317383 C21.85932698 152.56509072 21.85932698 152.56509072 18.43359375 159.21875 C18.45956949 174.38858182 28.26778653 189.39205956 36 202 C29.05063955 199.98500279 22.93585424 197.07361543 16.625 193.5625 C15.67036865 193.0360791 14.7157373 192.5096582 13.73217773 191.96728516 C4.24831869 186.67970572 -4.9164775 180.94316055 -14 175 C-14.68707031 174.55382324 -15.37414062 174.10764648 -16.08203125 173.64794922 C-32.10028802 163.23219439 -47.09548648 151.6904668 -61.09765625 138.68359375 C-63.70297872 136.27463475 -66.34269014 133.91368777 -69 131.5625 C-77.53063731 123.89728966 -85.60079836 115.76471954 -93 107 C-93.80695313 106.0821875 -94.61390625 105.164375 -95.4453125 104.21875 C-108.36840338 89.42271342 -120.45790089 72.72315178 -129 55 C-106.8638816 43.48657925 -83.70512619 34.12122154 -60.68847656 24.53710938 C-57.25672099 23.10698407 -53.82714748 21.67178369 -50.3984375 20.234375 C-40.20134896 15.96440451 -29.98090887 11.77043022 -19.70092773 7.70385742 C-14.34974818 5.57562884 -9.09304883 3.30329155 -3.8984375 0.8125 C-2 0 -2 0 0 0 Z " fill="#4F1C1B" transform="translate(327,646)"/>
<path d="M0 0 C0.59425781 0.31453125 1.18851563 0.6290625 1.80078125 0.953125 C2.62964844 1.38109375 3.45851563 1.8090625 4.3125 2.25 C5.11300781 2.66765625 5.91351562 3.0853125 6.73828125 3.515625 C14.78538908 7.17778186 23.23610726 9.76306026 31.6875 12.3125 C33.94936772 13.00602476 36.21107136 13.70008475 38.47265625 14.39453125 C43.19099257 15.84072566 47.912295 17.2767864 52.63623047 18.70458984 C57.90081792 20.29672313 63.16046832 21.90450359 68.41812134 23.51937866 C70.53062292 24.16535387 72.64467242 24.80629177 74.76034546 25.44180298 C95.11824954 31.56205449 126.96120466 41.93461035 139.75 60.546875 C142.25470224 65.46235314 143.62878474 69.6459749 142 75 C140.3203125 77.4375 140.3203125 77.4375 138.125 80 C137.31289063 80.95777344 136.50078125 81.91554688 135.6640625 82.90234375 C135.2299707 83.40620605 134.79587891 83.91006836 134.34863281 84.42919922 C132.97703275 86.02675077 131.62332752 87.63798302 130.2734375 89.25390625 C115.83403263 106.49047332 100.4835476 123.84344037 82.875 137.9375 C82.05189331 138.60930298 82.05189331 138.60930298 81.2121582 139.29467773 C79.14836475 140.87055188 77.64089536 141.98375899 74.99609375 142.05078125 C72.05894543 140.5046112 69.66127317 138.43216333 67.1875 136.25 C66.63215576 135.76845459 66.07681152 135.28690918 65.50463867 134.79077148 C64.30527035 133.75023349 63.10816826 132.70707885 61.91308594 131.66162109 C59.91821385 129.9289642 57.90313097 128.22242533 55.8828125 126.51953125 C54.52584333 125.36742107 53.16906852 124.21508191 51.8125 123.0625 C51.16498779 122.51948242 50.51747559 121.97646484 49.8503418 121.41699219 C49.24617432 120.89911133 48.64200684 120.38123047 48.01953125 119.84765625 C47.48432861 119.39398682 46.94912598 118.94031738 46.39770508 118.47290039 C44.80132135 116.79063261 43.93908677 115.10905945 43 113 C43.56589844 112.44570313 44.13179687 111.89140625 44.71484375 111.3203125 C45.81505859 110.23363281 45.81505859 110.23363281 46.9375 109.125 C47.66839844 108.40570312 48.39929688 107.68640625 49.15234375 106.9453125 C51.46493255 104.51049385 51.96068049 103.55818192 52.19799805 100.18920898 C51.99012607 96.8409579 51.33861532 94.94160659 49.83203125 91.97265625 C49.35765625 91.02745117 48.88328125 90.08224609 48.39453125 89.10839844 C47.87246094 88.10325195 47.35039063 87.09810547 46.8125 86.0625 C46.27367187 85.00708008 45.73484375 83.95166016 45.1796875 82.86425781 C37.66580423 68.28333306 29.50932683 54.08166515 21 40.0625 C16.42543041 32.52295996 12.09224154 24.87008124 7.875 17.125 C7.318125 16.10801025 6.76125 15.09102051 6.1875 14.04321289 C3.70842423 9.44852037 1.39064675 5.06470113 0 0 Z " fill="#4E1C1B" transform="translate(660,656)"/>
<path d="M0 0 C3.17070317 3.06842242 6.13669733 6.25900281 9.0625 9.5625 C40.54437964 44.7172656 88.25750872 77.80590015 136.6484375 80.87109375 C137.75445313 80.91363281 138.86046875 80.95617187 140 81 C140.70672852 81.02723145 141.41345703 81.05446289 142.14160156 81.08251953 C166.32066448 81.88646579 188.69407589 74.81617432 208 60 C207.88602456 62.43847451 207.75929026 64.87513174 207.625 67.3125 C207.5940625 68.00279297 207.563125 68.69308594 207.53125 69.40429688 C207.31875081 73.06990789 207.08066139 74.87900792 205 78 C204.5012783 79.59207312 204.04653397 81.19827286 203.625 82.8125 C200.1146312 94.73742931 190.50676266 103.84695703 180 110 C178.97132813 110.64839844 177.94265625 111.29679688 176.8828125 111.96484375 C168.31555366 117.24850144 159.6987683 120.40251378 150 123 C149.37085693 123.17958252 148.74171387 123.35916504 148.09350586 123.54418945 C131.02149355 127.26120951 111.43845056 123.3761486 96 116 C95.37448242 115.70432129 94.74896484 115.40864258 94.10449219 115.10400391 C70.5580616 103.91176005 47.69676145 88.30754061 30.8515625 68.1796875 C28.22757163 65.09068559 25.49128958 62.10986924 22.75 59.125 C21.96955322 58.26648438 21.96955322 58.26648438 21.17333984 57.390625 C18.88914321 54.90660759 16.8216441 52.88109607 14 51 C11.96323357 50.77707415 11.96323357 50.77707415 10 52 C5.40915204 58.16895194 3.91238971 65.66578203 2 73 C1.01 72.67 0.02 72.34 -1 72 C-0.88137653 66.55552591 -0.75710384 61.1112204 -0.62768555 55.66699219 C-0.58448014 53.81644154 -0.54279542 51.96585471 -0.50268555 50.11523438 C-0.4446328 47.44910806 -0.38104076 44.7831614 -0.31640625 42.1171875 C-0.29969376 41.29507782 -0.28298126 40.47296814 -0.26576233 39.62594604 C-0.15563891 35.31737069 0.2198509 31.25007765 1 27 C1.32476171 17.95443109 1.06672688 8.99098368 0 0 Z " fill="#A96235" transform="translate(394,529)"/>
<path d="M0 0 C27.86770521 7.30956202 57.37546279 22.99661881 79 42 C79.83660156 42.72832031 80.67320312 43.45664062 81.53515625 44.20703125 C84.0556949 46.43863937 86.53356541 48.70886572 89 51 C89.66644531 51.60070312 90.33289063 52.20140625 91.01953125 52.8203125 C105.96587838 66.88388149 116.03547275 86.30439304 124.75 104.625 C125.08539795 105.32931152 125.4207959 106.03362305 125.76635742 106.75927734 C127.11264564 109.68416019 128 111.74165147 128 115 C123.62623567 115.65438208 119.25079787 116.29686901 114.875 116.9375 C113.65683594 117.11990234 112.43867187 117.30230469 111.18359375 117.49023438 C95.26025656 119.80712206 79.67920531 120.13298317 63.625 120.0625 C61.61718862 120.05747236 59.60937602 120.0529117 57.6015625 120.04882812 C52.73434414 120.03792865 47.86718599 120.02073451 43 120 C41.93365048 117.1229535 40.8674701 114.24584451 39.80151367 111.36865234 C38.88150171 108.88575627 37.96111985 106.4030002 37.0402832 103.92041016 C33.08235313 93.24524823 33.08235313 93.24524823 31.234375 88.13671875 C28.63427879 80.96488167 25.95168575 73.83862562 23.1015625 66.76171875 C17.05579903 51.72120234 11.35392865 36.63957126 6.25 21.25 C5.98965973 20.46706573 5.72931946 19.68413147 5.46109009 18.87747192 C4.72427385 16.65429165 3.99325688 14.42932656 3.265625 12.203125 C3.04958115 11.54624191 2.83353729 10.88935883 2.61094666 10.21257019 C1.51902082 6.83258893 0.61193504 3.49986823 0 0 Z " fill="#FDF3DE" transform="translate(443,759)"/>
<path d="M0 0 C0.33 0 0.66 0 1 0 C2.61464735 8.33551812 4.14165035 16.67663696 5.47265625 25.0625 C8.9801621 47.05766892 13.09490029 68.85055919 17.79907227 90.62304688 C18.01157623 91.61362595 18.2240802 92.60420502 18.44302368 93.62480164 C18.84188166 95.48019025 19.2453031 97.33460607 19.65414429 99.18782043 C20.51466601 103.18699781 21.26230674 106.88067583 21 111 C13.71174574 114.84999566 6.29579148 117.97193056 -1.4375 120.8125 C-2.60039551 121.24046875 -3.76329102 121.6684375 -4.96142578 122.109375 C-13.36081251 125.15016278 -21.82006697 127.9303358 -30.375 130.5 C-31.98459595 130.98883667 -31.98459595 130.98883667 -33.62670898 131.48754883 C-41.01680038 133.64511838 -48.36964069 135.00021335 -56 136 C-56.30164063 135.1764502 -56.60328125 134.35290039 -56.9140625 133.50439453 C-60.99167684 122.45779992 -65.48464212 111.00848 -72.0625 101.1875 C-74 98 -74 98 -73.77148438 96.0612793 C-72.92184183 93.79117424 -71.87298558 91.89159118 -70.59375 89.83203125 C-69.85487549 88.62752319 -69.85487549 88.62752319 -69.10107422 87.39868164 C-68.57271973 86.5452417 -68.04436523 85.69180176 -67.5 84.8125 C-63.43956079 78.15447547 -59.51290077 71.46151896 -55.875 64.5625 C-55.50955078 63.87196533 -55.14410156 63.18143066 -54.76757812 62.4699707 C-53.35907234 59.76932853 -52.05208398 57.15318817 -51.0703125 54.265625 C-49.62824279 51.21306869 -47.7838468 50.06580572 -45 48.1875 C-26.65324641 35.4047292 -14.19279886 19.90914629 -1.390625 1.80859375 C-0.93171875 1.21175781 -0.4728125 0.61492188 0 0 Z " fill="#FDF3DE" transform="translate(638,735)"/>
<path d="M0 0 C2.89830043 2.85724889 5.69406224 5.73117952 8.3203125 8.83984375 C11.32410271 12.30906711 14.51532652 15.47474928 17.84643555 18.62670898 C26.00393426 26.41113639 31.85771357 34.02063857 37 44 C37.48001465 44.91990723 37.9600293 45.83981445 38.45458984 46.78759766 C40.67012321 51.03409337 42.88454971 55.27992187 45.0456543 59.55444336 C47.5246184 64.42769211 50.00185855 69.16213298 53.1015625 73.671875 C65.67143386 92.18352704 66.66151554 117.1215956 67 139 C61.59018931 135.56120561 56.43633705 131.86429893 51.375 127.9375 C50.81538574 127.50397217 50.25577148 127.07044434 49.67919922 126.6237793 C48.86153076 125.99016479 48.86153076 125.99016479 48.02734375 125.34375 C41.59644573 120.03490769 41.59644573 120.03490769 34 117 C36.06148063 112.42146292 39.07529286 108.37966562 41.98632812 104.30859375 C44.07578467 101.20637324 45.01247294 99.40005812 44.89453125 95.6171875 C44.29177463 92.85350493 44.29177463 92.85350493 42 92 C39.08461971 91.49957854 39.08461971 91.49957854 36 92 C33.97222574 94.18639383 33.97222574 94.18639383 32 97 C30.93265625 98.46179688 30.93265625 98.46179688 29.84375 99.953125 C29.06100168 101.05101664 28.27983347 102.15003603 27.5 103.25 C27.07203125 103.85062256 26.6440625 104.45124512 26.203125 105.07006836 C23.79833998 108.44963782 21.40919405 111.83977701 19.03125 115.23828125 C-0.08893587 142.54753299 -0.08893587 142.54753299 -11 152 C-11.66 152 -12.32 152 -13 152 C-12.57928166 146.9513799 -11.87591008 142.27043756 -10.5625 137.375 C-5.16501821 116.38770432 -5.02315203 93.93217693 -4.66723633 72.36831665 C-4.65329834 71.52489716 -4.63936035 70.68147766 -4.625 69.8125 C-4.61122314 68.9693222 -4.59744629 68.12614441 -4.58325195 67.25741577 C-4.18132357 44.7592621 -2.09477605 22.39328695 0 0 Z " fill="#FCF2DE" transform="translate(610,611)"/>
<path d="M0 0 C4.29614941 -0.3143524 7.10474636 0.35226943 10.9921875 2.14453125 C26.02564158 8.54983561 43.85828443 9.59669159 60 10 C60.92087402 10.02723145 61.84174805 10.05446289 62.79052734 10.08251953 C77.18588082 10.46266589 90.82454727 9.44886082 105 7 C106.76924521 6.70919191 108.53877778 6.42012663 110.30859375 6.1328125 C114.54261305 5.44171755 118.77215459 4.72787082 123 4 C123.33 3.01 123.66 2.02 124 1 C125.98 1.33 127.96 1.66 130 2 C130.6875 3.8125 130.6875 3.8125 131 6 C130.02246356 7.02196992 129.0194119 8.01979625 128 9 C127.82210937 10.19882812 127.82210937 10.19882812 127.640625 11.421875 C127 14 127 14 125.3203125 15.51953125 C124.59585938 15.94621094 123.87140625 16.37289063 123.125 16.8125 C122.31160156 17.31910156 121.49820313 17.82570313 120.66015625 18.34765625 C119.78230469 18.89292969 118.90445313 19.43820312 118 20 C112.10023008 23.96457689 106.80133435 28.04730928 101.875 33.1875 C97.67657161 37.55413466 93.49234992 40.47935632 88 43 C89.98 42.67 91.96 42.34 94 42 C94.75 44.25 94.75 44.25 95 47 C91.65862957 51.93941715 85.81148884 53.43453881 80.22265625 54.55859375 C69.72836644 55.99599345 59.91412684 55.38946896 49.6875 52.6875 C48.88159424 52.47464355 48.07568848 52.26178711 47.24536133 52.04248047 C39.88751966 49.94113409 39.88751966 49.94113409 37 47 C36.75 44.3125 36.75 44.3125 37 42 C36.443125 41.938125 35.88625 41.87625 35.3125 41.8125 C31.99056852 40.64533489 30.40018909 38.56764415 28 36 C20.96421417 28.58536416 13.58814918 22.31004249 4.5625 17.4375 C-1.70584477 13.87060962 -1.70584477 13.87060962 -3.5 10.5 C-4.19569502 5.63013483 -2.8157117 3.94199638 0 0 Z " fill="#C35832" transform="translate(480,486)"/>
<path d="M0 0 C3.13709489 2.87962274 5.10151476 5.66717905 7.0625 9.4375 C8.53886497 12.25316689 9.97139474 14.95744408 11.74609375 17.59765625 C13 20 13 20 12.90234375 22.09765625 C11.79914201 24.42345386 10.47265296 25.71796521 8.5625 27.4375 C4.2435816 31.632515 2.9317876 34.83819614 2.3125 40.8125 C2.3846597 44.0596867 2.65674773 45.55659884 4.66015625 48.14453125 C7.0155005 50.25063272 9.45035291 52.13431189 12 54 C13.60951242 55.2640561 15.21365456 56.53497844 16.8125 57.8125 C17.63621094 58.4621875 18.45992187 59.111875 19.30859375 59.78125 C22.96445966 62.79508431 26.43295957 65.9931477 29.88989258 69.23168945 C32.48910287 71.65887705 35.1035082 73.93401888 38 76 C32.60545946 90.36377662 2.81823431 101.6484296 -10.03027344 108.14135742 C-12 109 -12 109 -14 109 C-19.74045491 85.96687038 -24.27143016 62.61371853 -28.4375 39.25 C-28.56896423 38.52112579 -28.70042847 37.79225159 -28.83587646 37.04129028 C-29.20773173 34.97123329 -29.57202802 32.90000113 -29.93359375 30.828125 C-30.2438147 29.0632373 -30.2438147 29.0632373 -30.56030273 27.26269531 C-30.98271272 24.12827719 -31.0817957 21.15797317 -31 18 C-29.948125 18.78375 -28.89625 19.5675 -27.8125 20.375 C-27.08804688 20.91125 -26.36359375 21.4475 -25.6171875 22 C-23.64475696 23.5072902 -21.72900216 25.04068515 -19.8203125 26.625 C-18.98342896 27.3048999 -18.98342896 27.3048999 -18.12963867 27.99853516 C-17.01973153 28.90138561 -15.92039536 29.81742311 -14.83325195 30.74755859 C-11.93977472 33.07355644 -10.05544056 33.99276604 -6.34765625 34.4765625 C-1.98152554 33.93249388 -1.98152554 33.93249388 1 31 C1.51966115 28.00856619 1.42018845 25.08860411 1.3125 22.0625 C1.29703125 21.21453857 1.2815625 20.36657715 1.265625 19.49291992 C1.11707097 12.97449288 0.72441673 6.48094252 0 0 Z " fill="#4E1C1B" transform="translate(686,730)"/>
<path d="M0 0 C3.87835732 3.36124301 6.76148821 6.16005192 7.4375 11.375 C7 15 7 15 5.0625 17.9375 C0.14365809 21.25018945 -4.89950373 20.38440455 -10.5859375 19.34375 C-11.83632813 19.0653125 -13.08671875 18.786875 -14.375 18.5 C-23.76718252 16.70396021 -33.16132539 16.65809876 -42.6875 16.625 C-43.80049469 16.61376099 -43.80049469 16.61376099 -44.93597412 16.60229492 C-63.60958987 16.44771628 -80.90797121 19.59418942 -96.328125 30.8984375 C-98 32 -98 32 -100 32 C-100.33 32.99 -100.66 33.98 -101 35 C-102.66611905 35.042721 -104.33382885 35.04063832 -106 35 C-107 34 -107 34 -107.5625 31.125 C-107.41692491 24.02093549 -101.29964704 18.30707724 -96.58203125 13.57421875 C-70.98936529 -8.84356278 -31.23225729 -10.38501509 0 0 Z " fill="#17130D" transform="translate(516,271)"/>
<path d="M0 0 C1.65 0.33 3.3 0.66 5 1 C4.27386958 7.82562598 2.11998432 13.8758332 -0.1875 20.3125 C-5.93434403 46.39433058 7.17824235 76.8902694 15.93847656 100.96533203 C18.80633213 109.16391636 21.45023922 119.49776406 17.6875 127.8125 C15.02866526 131.81031627 10.80636567 133.56721686 6.6171875 135.65625 C3.75324586 137.12669168 1.47242166 138.95142205 -1 141 C-6.06411951 144.22262151 -10.16878256 144.54176146 -16 144 C-19.06467514 143.23938927 -21.9794143 142.16014261 -24.9375 141.0625 C-32.38409885 138.4746013 -39.15429464 137.30691073 -47.03686523 137.31469727 C-54.72337172 137.26394656 -59.61809656 134.13727146 -65 129 C-67.8146083 124.52221407 -67.72176556 119.11127859 -67 114 C-65.78668631 110.36005894 -64.44044069 106.98276084 -62 104 C-59.38671875 103.16015625 -59.38671875 103.16015625 -57 103 C-56.67 103.33 -56.34 103.66 -56 104 C-56.69767442 110.39534884 -56.69767442 110.39534884 -58 113 C-58.14679934 114.82934565 -58.22102635 116.66500243 -58.25 118.5 C-58.27578125 119.4796875 -58.3015625 120.459375 -58.328125 121.46875 C-58.21984375 122.3040625 -58.1115625 123.139375 -58 124 C-54.38998193 126.40667871 -52.7855227 126.16420912 -48.5 126.1875 C-39.32776353 126.48082824 -31.35072254 129.78220202 -22.96020508 133.25976562 C-18.06149364 135.10967135 -13.19220273 135.89319243 -8 135 C-5.54729485 133.7237619 -3.4324082 132.24621471 -1.21484375 130.59765625 C1.99628372 128.28134032 5.43907285 126.71687559 9 125 C10.29820826 123.91063606 10.29820826 123.91063606 10.296875 121.26953125 C10.20409855 115.20349755 8.01409449 109.4333184 6.25 103.6875 C5.90195312 102.51509766 5.55390625 101.34269531 5.1953125 100.13476562 C3.62331473 94.92097301 1.98555977 89.80526199 -0.1015625 84.7734375 C-2.10663647 79.92603304 -3.42077439 75.03565248 -4.625 69.9375 C-4.82867188 69.10412109 -5.03234375 68.27074219 -5.2421875 67.41210938 C-10.76231022 44.67698854 -13.67970764 22.89653761 -1.171875 1.84375 C-0.78515625 1.2353125 -0.3984375 0.626875 0 0 Z " fill="#15110C" transform="translate(578,309)"/>
<path d="M0 0 C2.3216827 1.48183922 4.49481605 3.07452722 6.68359375 4.74609375 C7.60140625 5.40351563 8.51921875 6.0609375 9.46484375 6.73828125 C10.8415625 7.76308594 10.8415625 7.76308594 12.24609375 8.80859375 C13.09300781 9.43894531 13.93992187 10.06929688 14.8125 10.71875 C16.68359375 12.74609375 16.68359375 12.74609375 16.9609375 15.4921875 C16.82365234 16.60787109 16.82365234 16.60787109 16.68359375 17.74609375 C13.17590331 18.66404198 11.3579497 19.07628875 8.04296875 17.453125 C7.181875 16.82792969 6.32078125 16.20273437 5.43359375 15.55859375 C0.39296649 12.1013734 -4.56056879 9.75626692 -10.31640625 7.74609375 C-9.83429688 8.24367188 -9.3521875 8.74125 -8.85546875 9.25390625 C-6.769184 12.6322049 -6.70111818 15.7570709 -6.69140625 19.62109375 C-6.68834473 20.33982666 -6.6852832 21.05855957 -6.68212891 21.79907227 C-6.79141695 25.04314275 -7.05346557 27.3345642 -8.81640625 30.09375 C-10.59139927 31.59879616 -12.23154741 32.72253183 -14.31640625 33.74609375 C-15.30640625 34.24109375 -15.30640625 34.24109375 -16.31640625 34.74609375 C-23.32056425 35.30642639 -28.57247369 33.6726847 -34.25390625 29.68359375 C-36.65810907 27.4251002 -37.27212009 26.56669027 -37.44921875 23.28515625 C-37.44664062 22.32351563 -37.4440625 21.361875 -37.44140625 20.37109375 C-37.44527344 18.93636719 -37.44527344 18.93636719 -37.44921875 17.47265625 C-37.33192503 15.06468521 -37.00316576 13.04619307 -36.31640625 10.74609375 C-37.280625 11.30039062 -38.24484375 11.8546875 -39.23828125 12.42578125 C-40.51428986 13.15760972 -41.79033337 13.88937735 -43.06640625 14.62109375 C-43.700625 14.98589844 -44.33484375 15.35070312 -44.98828125 15.7265625 C-54.24173429 21.02801997 -54.24173429 21.02801997 -59.31640625 20.74609375 C-59.07761146 16.6865824 -58.82450752 14.3588041 -56.19140625 11.18359375 C-55.24265625 10.37921875 -54.29390625 9.57484375 -53.31640625 8.74609375 C-52.87941406 8.28589844 -52.44242187 7.82570313 -51.9921875 7.3515625 C-38.77522367 -5.79602095 -16.33372112 -8.8416939 0 0 Z " fill="#15110C" transform="translate(492.31640625,322.25390625)"/>
<path d="M0 0 C4.15021689 3.50229273 7.00503519 6.27086009 8.3125 11.6875 C8.4375 15.0625 8.4375 15.0625 6.4375 18.0625 C1.55864941 17.64431281 -0.34209703 15.61320071 -3.5625 12.0625 C-6.23750065 9.14431748 -7.6812859 7.76627491 -11.5625 7.0625 C-13.14461573 6.99701508 -14.72920081 6.97671619 -16.3125 7 C-17.51132812 7.01353516 -17.51132812 7.01353516 -18.734375 7.02734375 C-19.33765625 7.03894531 -19.9409375 7.05054688 -20.5625 7.0625 C-19.9025 8.0525 -19.2425 9.0425 -18.5625 10.0625 C-17.82589614 14.90708696 -17.4042346 19.93596857 -19.80078125 24.3359375 C-22.49733829 27.50757035 -25.45762094 30.73574982 -29.7265625 31.3984375 C-37.40131708 31.520259 -43.17010865 29.87570258 -49.125 24.9375 C-51.2460134 20.69547319 -50.88793124 16.71797467 -50.5625 12.0625 C-54.13660797 14.74308098 -56.88191902 17.48839203 -59.5625 21.0625 C-60.8825 20.7325 -62.2025 20.4025 -63.5625 20.0625 C-64.19083874 15.87357504 -63.50857219 13.49351938 -61.125 10.125 C-46.73891398 -7.5783482 -19.34124505 -13.86122562 0 0 Z " fill="#16120D" transform="translate(651.5625,323.9375)"/>
<path d="M0 0 C6.1096655 5.51360057 8.52828964 12.75023905 9.421875 20.80078125 C10.43816952 41.3072928 5.76394847 74.15778294 -8 90.125 C-10.7365069 93.04909004 -13.50566444 95.04656936 -17 97 C-16.71381544 93.49953033 -16.41994676 89.99974138 -16.125 86.5 C-16.04636719 85.53707031 -15.96773437 84.57414062 -15.88671875 83.58203125 C-15.39737981 77.82288837 -14.75185289 72.11705342 -13.96484375 66.390625 C-12.76946103 57.35914716 -12.58689236 48.34901544 -12.4375 39.25 C-11.87483665 8.8292831 -11.87483665 8.8292831 -7 1 C-4.32590305 -0.33704848 -2.97186266 -0.4837916 0 0 Z " fill="#B86D3C" transform="translate(703,354)"/>
<path d="M0 0 C3.26737152 0.24202752 5.42409455 1.03765073 8.3671875 2.39453125 C23.40064158 8.79983561 41.23328443 9.84669159 57.375 10.25 C58.29587402 10.27723145 59.21674805 10.30446289 60.16552734 10.33251953 C74.56088082 10.71266589 88.19954727 9.69886082 102.375 7.25 C104.14424521 6.95919191 105.91377778 6.67012663 107.68359375 6.3828125 C111.91761305 5.69171755 116.14715459 4.97787082 120.375 4.25 C120.705 3.26 121.035 2.27 121.375 1.25 C124.345 1.745 124.345 1.745 127.375 2.25 C127.705 3.57 128.035 4.89 128.375 6.25 C123.2063098 11.24198285 117.6335262 13.48909297 110.9375 15.9375 C109.86000488 16.33251709 108.78250977 16.72753418 107.67236328 17.13452148 C99.47965186 20.04099803 92.10527958 21.90939361 83.375 22.25 C82.31780762 22.31719238 82.31780762 22.31719238 81.23925781 22.38574219 C67.87646968 23.1878508 54.74110375 21.69606349 41.5 20.0625 C40.67314697 19.96444061 39.84629395 19.86638123 38.99438477 19.76535034 C23.52683713 17.89980084 9.41662656 14.24106407 -4.625 7.25 C-3.59622302 0.34249743 -3.59622302 0.34249743 0 0 Z " fill="#15110C" transform="translate(482.625,485.75)"/>
<path d="M0 0 C1.12277344 0.07863281 2.24554687 0.15726562 3.40234375 0.23828125 C6.15283517 0.5758549 8.49433648 1.04053801 11.14453125 1.734375 C18.43763441 3.43154136 25.97504992 2.73553525 33.40625 2.52148438 C42.01771236 2.38516756 51.19783727 2.75516864 59.0625 6.6875 C60.59918865 6.91217831 62.14218054 7.09546805 63.6875 7.25 C64.50476563 7.33378906 65.32203125 7.41757812 66.1640625 7.50390625 C66.79054688 7.56449219 67.41703125 7.62507813 68.0625 7.6875 C68.0625 8.3475 68.0625 9.0075 68.0625 9.6875 C61.06005432 11.62347028 54.03682507 13.12184472 46.875 14.3125 C46.13975098 14.43536377 45.40450195 14.55822754 44.64697266 14.68481445 C35.59412007 16.14921681 26.80253087 16.85688593 17.625 16.8125 C16.56877441 16.80766602 15.51254883 16.80283203 14.42431641 16.79785156 C11.30337543 16.77422597 8.18315054 16.73578661 5.0625 16.6875 C3.82040771 16.66864746 3.82040771 16.66864746 2.55322266 16.64941406 C-12.45414889 16.33495556 -27.56663807 14.07149755 -41.9375 9.6875 C-39.51818592 7.26818592 -37.83536707 6.91585283 -34.5546875 5.99609375 C-33.46929687 5.69123047 -32.38390625 5.38636719 -31.265625 5.07226562 C-30.12609375 4.75966797 -28.9865625 4.44707031 -27.8125 4.125 C-26.69617188 3.80853516 -25.57984375 3.49207031 -24.4296875 3.16601562 C-16.10425216 0.85394013 -8.69221517 -0.66710013 0 0 Z " fill="#C75932" transform="translate(534.9375,480.3125)"/>
<path d="M0 0 C0.33 0 0.66 0 1 0 C0.19510545 8.50702523 -0.83147461 16.98084456 -1.89453125 25.45898438 C-6.33755975 61.69883805 -8.1984886 105.48427771 11.30859375 138.015625 C11.86675781 139.00046875 12.42492187 139.9853125 13 141 C12.67 141.66 12.34 142.32 12 143 C-0.69506964 132.19514193 -8.80481255 121.24725775 -13 105 C-13.35191406 103.80246094 -13.70382812 102.60492187 -14.06640625 101.37109375 C-15.31479241 96.32093829 -15.30101585 91.36582692 -15.25 86.1875 C-15.24250732 85.17268555 -15.23501465 84.15787109 -15.22729492 83.11230469 C-14.89628757 59.50907674 -10.80581629 35.58663335 -4 13 C-3.62488281 11.75089844 -3.24976563 10.50179688 -2.86328125 9.21484375 C-1.92532876 6.13770138 -0.97216952 3.06647089 0 0 Z " fill="#2B221A" transform="translate(699,495)"/>
<path d="M0 0 C3.82527686 3.21671009 7.56044374 6.50106591 11.22583008 9.8996582 C18.10492926 16.27629556 25.25488669 22.23663427 32.60546875 28.06640625 C39.57289154 33.65475274 46.06854759 39.65521108 52.5625 45.77734375 C55.6295372 48.66547045 58.76359457 51.45890903 61.953125 54.2109375 C64.81278237 56.71040902 67.6280505 59.25684444 70.4375 61.8125 C70.97076904 62.29356201 71.50403809 62.77462402 72.0534668 63.27026367 C75.88378017 66.76756035 75.88378017 66.76756035 77 69 C72.94380147 67.52023869 69.44304163 65.53970165 65.75 63.3125 C53.07903406 55.93831691 39.66037845 51.3424528 25.57836914 47.39624023 C24.63727295 47.12626221 23.69617676 46.85628418 22.7265625 46.578125 C21.88689941 46.34512695 21.04723633 46.11212891 20.18212891 45.87207031 C16.88305363 44.55362134 15.46703225 43.05732885 14.03613281 39.81787109 C13.76124023 38.97820801 13.48634766 38.13854492 13.203125 37.2734375 C12.72939453 35.86034302 12.72939453 35.86034302 12.24609375 34.41870117 C11.91738281 33.41427979 11.58867187 32.4098584 11.25 31.375 C8.47993388 23.13029242 5.51796297 15.04531693 2.08300781 7.05419922 C0 2.18123077 0 2.18123077 0 0 Z " fill="#FAF2DE" transform="translate(418,699)"/>
<path d="M0 0 C0.33 0 0.66 0 1 0 C1.51532215 32.80443905 -4.52366323 64.63357672 -24.33984375 91.3828125 C-25.22679658 92.58836948 -26.11349315 93.79411503 -27 95 C-27.55220215 95.74137207 -28.1044043 96.48274414 -28.67333984 97.24658203 C-33.14291241 103.40218553 -36.55770686 109.73110198 -39.75 116.625 C-40.21792969 117.60984375 -40.68585938 118.5946875 -41.16796875 119.609375 C-43.70409268 124.99774029 -46.00123146 130.39012295 -48 136 C-52.88366339 119.10725374 -35.49257272 92.94514572 -28.3515625 78.19433594 C-18.93860645 58.50276806 -11.7899499 37.88291093 -5.76367188 16.93774414 C-4.09854919 11.19375329 -2.15695589 5.57916525 0 0 Z " fill="#2B231A" transform="translate(330,495)"/>
<path d="M0 0 C15.97052899 11.22776583 25.53527782 30.33472758 29 49.125 C28.67150847 52.57178071 28.46479513 53.66020487 26 56.125 C23.5625 56.5625 23.5625 56.5625 21 56.125 C17.76208204 51.88688749 16.65126629 47.00539778 15.3125 41.9375 C15.08755859 41.11830078 14.86261719 40.29910156 14.63085938 39.45507812 C13 33.43229958 13 33.43229958 13 31.125 C11.01979579 31.56533992 11.01979579 31.56533992 9 33.125 C8.02598865 35.16195418 7.30831981 37.20041421 6.61328125 39.34765625 C6 41.125 6 41.125 5 42.125 C2.5625 42.375 2.5625 42.375 0 42.125 C-2.37184142 38.56723788 -2.29824394 36.84479393 -2.3125 32.625 C-2.32925781 31.4803125 -2.34601563 30.335625 -2.36328125 29.15625 C-2 26.125 -2 26.125 -0.7109375 24.23046875 C2.06145615 22.43917331 4.8010354 22.94392653 8 23.125 C4.03269388 16.39782875 -1.19884188 9.65880064 -8.5625 6.6875 C-13.82578649 7.35737283 -17.31185047 10.43685047 -21 14.125 C-23.4375 14.3125 -23.4375 14.3125 -26 14.125 C-26.66 13.465 -27.32 12.805 -28 12.125 C-27.88868972 8.11783004 -26.23701742 5.49568206 -23.5703125 2.5546875 C-16.60705376 -3.78499583 -8.27267996 -4.55330974 0 0 Z " fill="#16120C" transform="translate(329,363.875)"/>
<path d="M0 0 C6.62693471 2.78331258 6.62693471 2.78331258 9.73046875 4.5859375 C13.63445328 6.27439915 17.02006342 6.31661666 21.1875 6.3125 C29.13162062 6.49644132 35.93151883 8.15857153 43.3659668 10.91723633 C49.50552812 13.13301281 55.36660956 14.29612174 61.671875 12.046875 C62.35765625 11.61890625 63.0434375 11.1909375 63.75 10.75 C64.85794922 10.07130859 64.85794922 10.07130859 65.98828125 9.37890625 C68.42769254 7.70684375 70.71194482 5.87204515 73 4 C73.66 4 74.32 4 75 4 C74.36971413 5.68076231 73.69040574 7.34302621 73 9 C72.63261719 9.97646484 72.63261719 9.97646484 72.2578125 10.97265625 C70.24758596 15.73137838 68.31680978 18.12924648 63.5234375 20.125 C62.69070313 20.41375 61.85796875 20.7025 61 21 C59.94039062 21.37125 58.88078125 21.7425 57.7890625 22.125 C50.41311563 24.46967185 42.72954479 26.71767662 35 25 C31.8468321 23.04968893 29.43406864 20.78084007 27 18 C25.19334104 16.19334104 22.3160601 16.74177053 19.875 16.625 C12.10062475 16.07211773 6.81228247 14.48015204 1 9 C-0.85141842 6.39118313 -1.06204237 5.45497738 -0.625 2.25 C-0.41875 1.5075 -0.2125 0.765 0 0 Z " fill="#B06738" transform="translate(512,439)"/>
<path d="M0 0 C-0.33 1.65 -0.66 3.3 -1 5 C-5.51243957 5.33843297 -8.69187005 4.56902278 -12.77734375 2.8515625 C-28.46504035 -3.15883795 -40.49881453 0.51984586 -55.17504883 6.92504883 C-57.32196796 8.01127171 -57.32196796 8.01127171 -59 11 C-61.5625 11.25 -61.5625 11.25 -64 11 C-65 10 -65 10 -65.375 7.6875 C-65 5 -65 5 -62.90234375 3.05859375 C-42.82695797 -11.18060989 -21.75311567 -10.68574103 0 0 Z " fill="#14100C" transform="translate(500,314)"/>
<path d="M0 0 C4.74946522 -0.36534348 8.27950521 0.60481446 12.65625 2.24609375 C19.10307639 4.31982291 25.66806771 4.2483393 32.375 4.3125 C33.87933594 4.35600586 33.87933594 4.35600586 35.4140625 4.40039062 C42.16556715 4.45783144 46.14785401 3.32238085 52 0 C55 0.25 55 0.25 57 1 C56.49224166 4.75741169 55.89568957 6.55134085 53 9 C51.16796875 9.9140625 51.16796875 9.9140625 49.1875 10.625 C48.54167969 10.86476563 47.89585937 11.10453125 47.23046875 11.3515625 C35.58942933 14.73582265 23.24431922 13.74091803 11.6875 10.6875 C10.47864136 10.36821533 10.47864136 10.36821533 9.24536133 10.04248047 C5.28042984 8.9101247 2.10880421 7.84209714 -1 5 C-0.67 3.35 -0.34 1.7 0 0 Z " fill="#16110C" transform="translate(518,528)"/>
<path d="M0 0 C0.99 0.33 1.98 0.66 3 1 C3 4.3 3 7.6 3 11 C4.7015625 10.96519531 4.7015625 10.96519531 6.4375 10.9296875 C7.95832668 10.91091186 9.47916057 10.8927136 11 10.875 C11.74378906 10.85824219 12.48757813 10.84148437 13.25390625 10.82421875 C18.50548443 10.77855285 22.9516946 11.54287549 28 13 C28 13.66 28 14.32 28 15 C34.20830016 17.51931021 40.29010458 19.34197908 47 18 C49.48331543 16.67095885 51.64827345 15.15433344 53.90234375 13.46875 C58.19757448 10.46128863 62.84975695 9.68786406 68 10 C66.94346581 13.06394915 66.12225408 13.93053746 63.25 15.5625 C61.08333333 16.52083333 58.91666667 17.47916667 56.75 18.4375 C53.80926333 20.10837311 53.21584037 20.96039907 52 24 C46.65216603 26.67391698 40.49798418 25.03399865 35.125 23.25 C32.15304525 22.19688615 29.22572688 21.09429929 26.31640625 19.87890625 C19.58839817 17.14971426 13.47801151 16.49754519 6.28515625 16.37109375 C2.77587962 15.97468319 1.30848562 15.66275817 -1 13 C-1.42578125 10.37109375 -1.42578125 10.37109375 -1.3125 7.4375 C-1.28800781 6.46683594 -1.26351562 5.49617188 -1.23828125 4.49609375 C-1 2 -1 2 0 0 Z " fill="#B76C3C" transform="translate(520,420)"/>
<path d="M0 0 C1.02480469 0.00684814 2.04960938 0.01369629 3.10546875 0.02075195 C14.11281449 0.25326472 23.30800982 2.21281055 31.9375 9.4375 C31.6075 11.0875 31.2775 12.7375 30.9375 14.4375 C26.22200401 13.95385939 22.50712326 12.4860705 18.28125 10.47265625 C9.70820978 6.68623015 0.42457167 5.49836765 -8.56640625 8.67578125 C-12.38135187 10.56218994 -15.90167247 12.52704704 -19.25390625 15.15625 C-21.0625 16.4375 -21.0625 16.4375 -23.3125 16.125 C-23.89 15.898125 -24.4675 15.67125 -25.0625 15.4375 C-25.36576045 12.39443825 -25.47975983 10.9564272 -23.5234375 8.5234375 C-22.83507812 7.95882813 -22.14671875 7.39421875 -21.4375 6.8125 C-20.76460937 6.24273437 -20.09171875 5.67296875 -19.3984375 5.0859375 C-12.8737087 0.48153022 -7.8112248 -0.07904818 0 0 Z " fill="#14100C" transform="translate(622.0625,304.5625)"/>
<path d="M0 0 C7.24516614 -0.25322911 12.08913355 -0.40462881 17.875 4.375 C20 7 20 7 19.83203125 8.921875 C17.02184197 15.94075151 10.3007282 19.71643019 3.6875 22.5625 C-2.53846154 25.15384615 -2.53846154 25.15384615 -6 24 C-5.50628906 23.59007812 -5.01257813 23.18015625 -4.50390625 22.7578125 C-3.86324219 22.21898437 -3.22257813 21.68015625 -2.5625 21.125 C-1.92441406 20.59132813 -1.28632812 20.05765625 -0.62890625 19.5078125 C1.61618443 17.42962305 1.97538149 16.39275119 2.16796875 13.3203125 C2.17763672 11.73863281 2.17763672 11.73863281 2.1875 10.125 C2.20876953 8.55105469 2.20876953 8.55105469 2.23046875 6.9453125 C2.00504937 4.06452929 1.48964317 2.43759792 0 0 Z " fill="#FBF8ED" transform="translate(630,330)"/>
<path d="M0 0 C8.05870576 1.83549697 14.26724917 5.26771507 21 10 C21.76570313 10.5259375 22.53140625 11.051875 23.3203125 11.59375 C23.87460937 12.0578125 24.42890625 12.521875 25 13 C25 13.66 25 14.32 25 15 C17.40472995 18.47288089 10.29385354 20.90612562 2 22 C2.02320313 20.74703125 2.04640625 19.4940625 2.0703125 18.203125 C2.08907427 16.5520893 2.10727403 14.90104715 2.125 13.25 C2.14175781 12.425 2.15851563 11.6 2.17578125 10.75 C2.18222656 9.95078125 2.18867188 9.1515625 2.1953125 8.328125 C2.20578613 7.5949707 2.21625977 6.86181641 2.22705078 6.10644531 C1.96777544 3.70103924 1.19225925 2.08748506 0 0 Z " fill="#FAF8EC" transform="translate(482,330)"/>
<path d="M0 0 C3.30708637 1.32283455 4.82554167 2.14456251 6.8125 5.125 C7.49996085 8.88672399 7.26296988 12.02697967 5.8125 15.5625 C2.76655887 17.94214151 -0.43019062 18.31580087 -4.1875 18.125 C-7.18783857 16.88572972 -8.65483554 15.85136062 -10.5625 13.25 C-11.43621835 10.2793576 -11.36328187 9.02987286 -10.1875 6.125 C-7.19884832 2.57802877 -4.7406489 0.1859078 0 0 Z " fill="#FDF9EF" transform="translate(347.1875,435.875)"/>
<path d="M0 0 C3.93673644 1.31224548 6.22719294 2.91910327 9 6 C7.75023244 9.65316671 7.32901247 10.78065836 4 13 C3.34 12.67 2.68 12.34 2 12 C1.67 13.32 1.34 14.64 1 16 C-0.4540625 15.071875 -0.4540625 15.071875 -1.9375 14.125 C-5.55419881 12.0287909 -8.98339266 11.18352413 -13.08203125 10.4921875 C-15 10 -15 10 -17 8 C-23.34210188 7.43219422 -29.74534844 7.86279063 -36 9 C-36.33 8.01 -36.66 7.02 -37 6 C-25.33161868 1.55320834 -13.3735274 3.79820724 -2 8 C-1.505 8.495 -1.505 8.495 -1 9 C0.99958364 9.04080783 3.00045254 9.04254356 5 9 C5 7.68 5 6.36 5 5 C2.525 4.01 2.525 4.01 0 3 C0 2.01 0 1.02 0 0 Z " fill="#D4834E" transform="translate(494,309)"/>
<path d="M0 0 C0.33 0.66 0.66 1.32 1 2 C0.67 2.99 0.34 3.98 0 5 C-0.09377689 6.83140741 -0.12992957 8.66619987 -0.125 10.5 C-0.12757813 11.4590625 -0.13015625 12.418125 -0.1328125 13.40625 C-0.10992972 16.11571152 -0.10992972 16.11571152 1 19 C-2.83990988 17.61624869 -5.97052564 15.83690651 -9.3125 13.5 C-10.19550781 12.8915625 -11.07851563 12.283125 -11.98828125 11.65625 C-12.65214844 11.1096875 -13.31601562 10.563125 -14 10 C-14 9.34 -14 8.68 -14 8 C-9.38 5.36 -4.76 2.72 0 0 Z " fill="#FCF9ED" transform="translate(456,332)"/>
<path d="M0 0 C4.55941249 1.24347613 6.9420498 3.74807747 10.09765625 7.0625 C12.65164823 9.66369101 15.41082574 11.98427197 18.203125 14.32421875 C20.07674426 16.07157236 21.52511967 17.9105862 23 20 C18.12226252 18.2237673 13.79331462 15.64296327 9.34765625 13.00976562 C5.33471576 10.6681487 1.30347705 8.75551046 -3 7 C-3 6.34 -3 5.68 -3 5 C-1.35 5 0.3 5 2 5 C1.34 3.35 0.68 1.7 0 0 Z " fill="#F5EFE0" transform="translate(472,748)"/>
<path d="M0 0 C0.66 0 1.32 0 2 0 C2.01417969 0.66386719 2.02835938 1.32773437 2.04296875 2.01171875 C2.34023275 7.94390956 2.34023275 7.94390956 5.375 12.9375 C6.24125 13.618125 7.1075 14.29875 8 15 C9 16 10 17 11 18 C7.02980747 17.33952435 3.5335831 16.15041295 -0.1875 14.625 C-1.23292969 14.20476562 -2.27835938 13.78453125 -3.35546875 13.3515625 C-6 12 -6 12 -8 9 C-6.71520959 7.49410612 -5.42195918 5.99542625 -4.125 4.5 C-3.04605469 3.24703125 -3.04605469 3.24703125 -1.9453125 1.96875 C-1.30335938 1.3190625 -0.66140625 0.669375 0 0 Z " fill="#FBF8EF" transform="translate(599,336)"/>
<path d="M0 0 C0.59167969 -0.14824219 1.18335938 -0.29648437 1.79296875 -0.44921875 C4.55729724 -1.13907772 7.09036297 -1.13218067 9.9375 -1.125 C10.95714844 -1.12757813 11.97679687 -1.13015625 13.02734375 -1.1328125 C15.79588725 -1.00911936 18.30539535 -0.62526738 21 0 C21 0.33 21 0.66 21 1 C19.07800781 1.00386719 19.07800781 1.00386719 17.1171875 1.0078125 C6.84570793 1.18495845 -1.1678841 2.0830698 -10.34765625 6.8203125 C-13 8 -13 8 -16 7 C-16.33 6.34 -16.66 5.68 -17 5 C-15.32806474 1.65612948 -11.93474891 1.05394323 -8.57421875 -0.25 C-5.39122345 -1.17736737 -3.18002929 -0.83286482 0 0 Z " fill="#E18D53" transform="translate(461,317)"/>
<path d="M0 0 C1.30066406 0.09667969 2.60132813 0.19335938 3.94140625 0.29296875 C6.96646237 0.74250223 8.87286178 1.22673133 11.4375 2.8125 C11.4375 3.4725 11.4375 4.1325 11.4375 4.8125 C10.24253906 4.93367188 9.04757812 5.05484375 7.81640625 5.1796875 C-3.96969045 6.40886064 -3.96969045 6.40886064 -15.5625 8.8125 C-11.8125 5.8125 -11.8125 5.8125 -9.5625 5.8125 C-10.39583333 3.64583333 -10.39583333 3.64583333 -12.5625 2.8125 C-8.24722549 -0.40524805 -5.2883389 -0.44638412 0 0 Z " fill="#DB8951" transform="translate(621.5625,312.1875)"/>
<path d="M0 0 C2.87052821 2.85396747 5.71333966 5.73074872 8.53125 8.63671875 C18.31961031 18.66430077 28.28443141 27.28232574 40 35 C39.01 35.33 38.02 35.66 37 36 C28.97255015 31.13710039 21.77048458 24.44239943 15 18 C14.45069824 17.47792969 13.90139648 16.95585938 13.33544922 16.41796875 C11.54576451 14.70648131 9.77079578 12.98101084 8 11.25 C7.43547119 10.70698242 6.87094238 10.16396484 6.28930664 9.60449219 C3.26437016 6.60399126 1.24131458 4.1894367 0 0 Z " fill="#0E0A07" transform="translate(405,527)"/>
<path d="M0 0 C6.40140935 0.46555704 11.26769829 2.14711836 17 5 C16.67 6.65 16.34 8.3 16 10 C11.32538149 10.32613618 8.83325617 9.70582788 5 7 C5.33 5.35 5.66 3.7 6 2 C3.03 1.505 3.03 1.505 0 1 C0 0.67 0 0.34 0 0 Z " fill="#120F0B" transform="translate(483,309)"/>
<path d="M0 0 C0.495 1.485 0.495 1.485 1 3 C-1.65452195 7.97722866 -5.21222142 11.9683943 -10 15 C-16.96841829 17.09052549 -22.6433434 15.34891654 -29 12 C-32.23396766 9.54648407 -35.15591995 6.89323699 -38 4 C-37.67 3.34 -37.34 2.68 -37 2 C-36.02160156 2.81404297 -36.02160156 2.81404297 -35.0234375 3.64453125 C-25.7433762 11.41678174 -25.7433762 11.41678174 -14.16796875 13.3359375 C-9.58864343 12.62634835 -7.01937446 10.36150933 -4.30078125 6.73046875 C-2.80644235 4.51856852 -1.37751477 2.28608834 0 0 Z " fill="#070504" transform="translate(361,453)"/>
<path d="M0 0 C1.84362522 5.53087566 -1.53046906 10.97958887 -4 16 C-7.65277174 21.1741475 -11.46579905 24.90622794 -17 28 C-16.505 23.545 -16.505 23.545 -16 19 C-15.34 19 -14.68 19 -14 19 C-14 19.66 -14 20.32 -14 21 C-12.68 20.67 -11.36 20.34 -10 20 C-10 19.34 -10 18.68 -10 18 C-9.39542969 17.43667969 -8.79085937 16.87335938 -8.16796875 16.29296875 C-5.5184001 13.49063218 -4.59796221 10.93369166 -3.3125 7.3125 C-1.06944444 1.06944444 -1.06944444 1.06944444 0 0 Z " fill="#E69055" transform="translate(703,423)"/>
<path d="M0 0 C1.32 0 2.64 0 4 0 C5.66820809 6.67283237 5.66820809 6.67283237 3.87109375 10.2421875 C1.32660629 13.7241177 -0.83877397 16.50622655 -5 18 C-5.99 17.67 -6.98 17.34 -8 17 C-7.401875 16.731875 -6.80375 16.46375 -6.1875 16.1875 C-3.95672092 15.1106021 -3.95672092 15.1106021 -2.375 13.375 C-1.92125 12.92125 -1.4675 12.4675 -1 12 C-0.34 12 0.32 12 1 12 C0.67 11.01 0.34 10.02 0 9 C-0.99 9 -1.98 9 -3 9 C-2.01 6.03 -1.02 3.06 0 0 Z " fill="#C67845" transform="translate(337,397)"/>
<path d="M0 0 C3.93673644 1.31224548 6.22719294 2.91910327 9 6 C7.75023244 9.65316671 7.32901247 10.78065836 4 13 C3.34 12.67 2.68 12.34 2 12 C1.67 13.32 1.34 14.64 1 16 C-1.90802461 13.78071806 -3.95312762 12.07030857 -6 9 C-4.0625 8.4375 -4.0625 8.4375 -2 8 C-1.67 8.33 -1.34 8.66 -1 9 C0.99958364 9.04080783 3.00045254 9.04254356 5 9 C5 7.68 5 6.36 5 5 C2.525 4.01 2.525 4.01 0 3 C0 2.01 0 1.02 0 0 Z " fill="#B26839" transform="translate(494,309)"/>
<path d="M0 0 C3.72923267 3.72923267 4.78659152 9.44299122 6.47827148 14.3762207 C7.18489295 16.42992296 7.90726205 18.47761758 8.63085938 20.52539062 C9.0816994 21.82778955 9.53160103 23.13051376 9.98046875 24.43359375 C10.39192139 25.62009521 10.80337402 26.80659668 11.22729492 28.02905273 C12 31 12 31 11 34 C8.69 34 6.38 34 4 34 C4.33 33.34 4.66 32.68 5 32 C6.65 32 8.3 32 10 32 C8.71026414 28.27016275 7.41787231 24.54125111 6.125 20.8125 C5.76019531 19.75740234 5.39539063 18.70230469 5.01953125 17.61523438 C4.66503906 16.59365234 4.31054688 15.57207031 3.9453125 14.51953125 C3.45828857 13.11344604 3.45828857 13.11344604 2.96142578 11.67895508 C2.32296585 9.89992491 1.62831073 8.14003369 0.87841797 6.4050293 C0 4 0 4 0 0 Z " fill="#0D120B" transform="translate(460,844)"/>
<path d="M0 0 C2.83427577 2.83427577 2.63450488 5.24407493 3.125 9.1875 C3.29257812 10.48042969 3.46015625 11.77335937 3.6328125 13.10546875 C3.97797505 16.76639496 4.06671686 20.32580713 4 24 C3.01 23.67 2.02 23.34 1 23 C0.93941406 22.31035156 0.87882813 21.62070312 0.81640625 20.91015625 C0.73261719 19.97042969 0.64882813 19.03070313 0.5625 18.0625 C0.47355469 17.06347656 0.38460937 16.06445312 0.29296875 15.03515625 C-0.03499142 11.63748893 -0.45399629 8.25710833 -0.9140625 4.875 C-1 3 -1 3 0 0 Z " fill="#25201A" transform="translate(730,320)"/>
<path d="M0 0 C2.41696872 -0.05411124 4.83271787 -0.09372278 7.25 -0.125 C7.93191406 -0.14175781 8.61382813 -0.15851563 9.31640625 -0.17578125 C13.03736538 -0.21190707 15.92241197 -0.21293235 19 2 C19.99 3.485 19.99 3.485 21 5 C20.67 5.66 20.34 6.32 20 7 C18.68 6.67 17.36 6.34 16 6 C16 5.34 16 4.68 16 4 C14.02 4 12.04 4 10 4 C10 3.67 10 3.34 10 3 C6.7 2.67 3.4 2.34 0 2 C0 1.34 0 0.68 0 0 Z " fill="#C77C48" transform="translate(617,311)"/>
<path d="M0 0 C1.94158017 3.51624755 2.18311068 5.9715651 2 10 C1.34 10 0.68 10 0 10 C0 16.6 0 23.2 0 30 C-2.0969186 25.80616281 -2.30930409 22.90752704 -2.25 18.375 C-2.24613281 17.66730469 -2.24226562 16.95960938 -2.23828125 16.23046875 C-2.14698105 10.66115634 -1.45104643 5.38960103 0 0 Z " fill="#23170F" transform="translate(570,326)"/>
<path d="M0 0 C2 0 2 0 3.3046875 1.2578125 C3.82289063 1.87398437 4.34109375 2.49015625 4.875 3.125 C5.48601563 3.84558594 6.09703125 4.56617188 6.7265625 5.30859375 C7.47679687 6.19675781 8.22703125 7.08492187 9 8 C10.00628228 9.15888258 11.01420823 10.31633919 12.0234375 11.47265625 C13.09911027 12.71080552 14.17463043 13.94908738 15.25 15.1875 C15.76933105 15.78127441 16.28866211 16.37504883 16.82373047 16.98681641 C22.19383342 23.21097662 22.19383342 23.21097662 24 27 C23.67 27.99 23.34 28.98 23 30 C22.41734375 29.14019531 21.8346875 28.28039062 21.234375 27.39453125 C16.23759645 20.14966683 10.98662764 13.49513769 4.84863281 7.17700195 C2.53905706 4.78156127 1.06787651 3.20362952 0 0 Z " fill="#0E0A07" transform="translate(628,192)"/>
<path d="M0 0 C4.136745 4.00330161 7.92791927 8.2662317 11.71875 12.59765625 C13.99852248 14.99844405 16.38420537 16.9773464 19 19 C21.8125 21.5625 21.8125 21.5625 24 24 C24 24.99 24 25.98 24 27 C15.24072352 19.83331924 5.9278221 11.73856488 0 2 C0 1.34 0 0.68 0 0 Z " fill="#120C09" transform="translate(395,528)"/>
<path d="M0 0 C3.91329453 0.54645104 5.58718985 2.29935613 8.25 5.125 C11.78074333 8.78392213 15.40407068 12.19606021 19.2734375 15.4921875 C20.92296942 16.93272895 22.47079574 18.43326925 24 20 C19.65087093 20 17.77706792 17.30447945 14.8125 14.4375 C13.64926255 13.33506629 12.48520126 12.23350121 11.3203125 11.1328125 C10.75473633 10.5955957 10.18916016 10.05837891 9.60644531 9.50488281 C6.91302499 6.98174559 4.10795273 4.59251252 1.29296875 2.20703125 C0.86628906 1.80871094 0.43960937 1.41039062 0 1 C0 0.67 0 0.34 0 0 Z " fill="#0E0B08" transform="translate(465,726)"/>
<path d="M0 0 C0.66 0 1.32 0 2 0 C3.375 1.43359375 3.375 1.43359375 5 3.4375 C8.59116213 7.68503 12.56042572 11.29129922 16.765625 14.921875 C18.84455119 16.85542173 20.55076858 18.55814432 22 21 C21.67 21.99 21.34 22.98 21 24 C20.48953125 23.41734375 19.9790625 22.8346875 19.453125 22.234375 C14.43592476 16.57668112 9.26183404 11.17733261 3.81152344 5.93652344 C2.50482162 4.66038774 1.24751166 3.33405646 0 2 C0 1.34 0 0.68 0 0 Z " fill="#0F0D09" transform="translate(618,619)"/>
<path d="M0 0 C0.33 0 0.66 0 1 0 C1.22419881 1.56030251 1.42863758 3.1234505 1.625 4.6875 C1.74101563 5.55761719 1.85703125 6.42773438 1.9765625 7.32421875 C2.00352203 10.40209792 1.17778683 12.1733116 0 15 C-0.43269889 17.42792152 -0.80504963 19.86716505 -1.125 22.3125 C-1.29257812 23.56675781 -1.46015625 24.82101562 -1.6328125 26.11328125 C-1.75398437 27.06589844 -1.87515625 28.01851563 -2 29 C-2.33 29 -2.66 29 -3 29 C-3.72251309 7.44502618 -3.72251309 7.44502618 0 0 Z " fill="#130D09" transform="translate(681,407)"/>
<path d="M0 0 C2.83276719 1.34274898 5.34939535 2.85768525 7.8984375 4.6796875 C8.98898437 5.45505859 8.98898437 5.45505859 10.1015625 6.24609375 C10.85179687 6.78363281 11.60203125 7.32117188 12.375 7.875 C17.20581566 11.32198826 22.04011378 14.7406462 27 18 C26.34 18.33 25.68 18.66 25 19 C21.58206334 16.73107374 18.1658758 14.45952748 14.75 12.1875 C13.29787109 11.22360352 13.29787109 11.22360352 11.81640625 10.24023438 C10.88183594 9.61826172 9.94726562 8.99628906 8.984375 8.35546875 C8.12553711 7.78465576 7.26669922 7.21384277 6.38183594 6.62573242 C1.733299 3.45285343 1.733299 3.45285343 0 2 C0 1.34 0 0.68 0 0 Z " fill="#BE6D3B" transform="translate(425,562)"/>
<path d="M0 0 C0.99 0.33 1.98 0.66 3 1 C3 4.66666667 3 8.33333333 3 12 C3.33 12.99 3.66 13.98 4 15 C0.125 14.125 0.125 14.125 -1 13 C-1.09879565 11.189715 -1.12971514 9.37547273 -1.125 7.5625 C-1.12757813 6.57378906 -1.13015625 5.58507812 -1.1328125 4.56640625 C-1 2 -1 2 0 0 Z " fill="#C57643" transform="translate(520,420)"/>
<path d="M0 0 C0.66 0.66 1.32 1.32 2 2 C1.625 4.125 1.625 4.125 1 6 C1.66 6 2.32 6 3 6 C3 6.99 3 7.98 3 9 C2.01 9 1.02 9 0 9 C-0.07347656 9.61230469 -0.14695312 10.22460938 -0.22265625 10.85546875 C-1 13 -1 13 -2.99609375 14.30078125 C-3.80175781 14.63464844 -4.60742188 14.96851563 -5.4375 15.3125 C-6.64212891 15.83263672 -6.64212891 15.83263672 -7.87109375 16.36328125 C-10 17 -10 17 -12 16 C-10.71086513 15.32845067 -9.41859796 14.66291141 -8.125 14 C-7.40570313 13.62875 -6.68640625 13.2575 -5.9453125 12.875 C-4 12 -4 12 -2 12 C-2.99 10.68 -3.98 9.36 -5 8 C-3.35 7.67 -1.7 7.34 0 7 C-0.185625 6.030625 -0.37125 5.06125 -0.5625 4.0625 C-0.706875 3.051875 -0.85125 2.04125 -1 1 C-0.67 0.67 -0.34 0.34 0 0 Z " fill="#C4713B" transform="translate(509,333)"/>
<path d="M0 0 C4.81561961 1.38828673 7.28962564 4.20237413 10.3125 8 C10.76689453 8.5465625 11.22128906 9.093125 11.68945312 9.65625 C15 13.71851504 15 13.71851504 15 16 C15.66 16 16.32 16 17 16 C18.625 18.5 18.625 18.5 20 21 C19.34 21.33 18.68 21.66 18 22 C17.28714844 21.07058594 16.57429688 20.14117187 15.83984375 19.18359375 C10.85798683 12.73756012 5.90266791 6.64032711 0 1 C0 0.67 0 0.34 0 0 Z " fill="#0F0B07" transform="translate(340,352)"/>
<path d="M0 0 C0.66 0.66 1.32 1.32 2 2 C0.82244141 2.07734375 0.82244141 2.07734375 -0.37890625 2.15625 C-6.27757749 2.79316174 -10.16117252 3.35449518 -14.125 8 C-15.1008566 9.32056217 -16.0621447 10.65218399 -17 12 C-17.66 12.66 -18.32 13.32 -19 14 C-18.9260095 10.8923991 -18.63075777 8.72426634 -16.55078125 6.3359375 C-11.39583662 1.79600795 -7.05645698 -0.62724062 0 0 Z " fill="#0B0907" transform="translate(321,361)"/>
<path d="M0 0 C1.17661508 3.67692213 1.14475933 7.1638778 1 11 C0.67 11.33 0.34 11.66 0 12 C-0.39454223 13.84599688 -0.74176866 15.70225822 -1.0625 17.5625 C-1.23910156 18.57441406 -1.41570313 19.58632813 -1.59765625 20.62890625 C-1.73042969 21.41136719 -1.86320313 22.19382812 -2 23 C-2.33 23 -2.66 23 -3 23 C-3.23313032 15.46211966 -3.09548878 8.29597188 -1 1 C-0.67 0.67 -0.34 0.34 0 0 Z " fill="#D7834C" transform="translate(691,417)"/>
<path d="M0 0 C2.79256219 0.11361602 5.58344118 0.2403589 8.375 0.375 C9.1690625 0.4059375 9.963125 0.436875 10.78125 0.46875 C16.7734375 0.7734375 16.7734375 0.7734375 19 3 C14.1315316 5.4342342 6.92437478 4.47699661 1.8125 3 C0.884375 2.67 -0.04375 2.34 -1 2 C-0.67 1.34 -0.34 0.68 0 0 Z " fill="#BA6B3B" transform="translate(538,540)"/>
<path d="M0 0 C0.66 0.33 1.32 0.66 2 1 C1.34 1.66 0.68 2.32 0 3 C2.68841859 5.25245881 4.64641875 6.88213958 8 8 C8.33 6.02 8.66 4.04 9 2 C9.33 2 9.66 2 10 2 C10.66 5.63 11.32 9.26 12 13 C7.97160238 11.38864095 5.17286755 9.93717553 1.6875 7.5 C0.80449219 6.8915625 -0.07851563 6.283125 -0.98828125 5.65625 C-1.65214844 5.1096875 -2.31601562 4.563125 -3 4 C-3 3.34 -3 2.68 -3 2 C-2.01 1.34 -1.02 0.68 0 0 Z " fill="#F3EBE0" transform="translate(445,338)"/>
<path d="M0 0 C3.93632087 1.36823987 6.73203057 3.16406318 9.9375 5.8125 C10.80117188 6.5240625 11.66484375 7.235625 12.5546875 7.96875 C13.36164062 8.6390625 14.16859375 9.309375 15 10 C15.64195312 10.5053125 16.28390625 11.010625 16.9453125 11.53125 C19.61368882 13.64532593 20.89816571 14.69449713 22 18 C18.44179214 16.47388791 16.04841927 14.33886858 13.25 11.6875 C10.09809101 8.77876499 7.06289189 6.25423646 3.375 4.0625 C2.26125 3.381875 1.1475 2.70125 0 2 C0 1.34 0 0.68 0 0 Z " fill="#E28A52" transform="translate(602,172)"/>
<path d="M0 0 C3.36335594 1.45745424 5.54534005 3.31117854 8.109375 5.9140625 C8.86347656 6.67460937 9.61757813 7.43515625 10.39453125 8.21875 C11.17183594 9.0128125 11.94914063 9.806875 12.75 10.625 C13.54277344 11.42679687 14.33554687 12.22859375 15.15234375 13.0546875 C17.10614493 15.03202846 19.05512103 17.01388909 21 19 C20.34 19.66 19.68 20.32 19 21 C18.67 20.01 18.34 19.02 18 18 C17.34 18 16.68 18 16 18 C14.58984375 16.56640625 14.58984375 16.56640625 12.9375 14.5625 C9.41377328 10.39944733 5.62949203 6.58763581 1.72265625 2.78515625 C0 1 0 1 0 0 Z " fill="#F8F6ED" transform="translate(761,246)"/>
<path d="M0 0 C2.8202907 4.00438221 2.00863471 8.12336539 1.625 12.75 C1.56828125 13.54277344 1.5115625 14.33554687 1.453125 15.15234375 C1.31216305 17.10231735 1.1574288 19.05128671 1 21 C0.01 20.67 -0.98 20.34 -2 20 C-2 18.02 -2 16.04 -2 14 C-1.34 14 -0.68 14 0 14 C-0.08378906 13.07316406 -0.16757812 12.14632812 -0.25390625 11.19140625 C-0.35574219 9.99386719 -0.45757813 8.79632812 -0.5625 7.5625 C-0.71912109 5.77005859 -0.71912109 5.77005859 -0.87890625 3.94140625 C-0.91886719 2.97074219 -0.95882812 2.00007812 -1 1 C-0.67 0.67 -0.34 0.34 0 0 Z " fill="#211C15" transform="translate(608,615)"/>
<path d="M0 0 C5.36757261 0.46272178 9.30500109 1.13719579 14 4 C14.33 4.66 14.66 5.32 15 6 C13.35 5.67 11.7 5.34 10 5 C10.33 5.66 10.66 6.32 11 7 C7.5625 6.1875 7.5625 6.1875 4 5 C3.67 4.01 3.34 3.02 3 2 C2.01 1.34 1.02 0.68 0 0 Z " fill="#E08B52" transform="translate(633,313)"/>
<path d="M0 0 C6.875 2.75 6.875 2.75 8 5 C6.68 4.67 5.36 4.34 4 4 C4 6.31 4 8.62 4 11 C1.22355795 8.67137119 0.09655054 7.37877519 -0.8125 3.8125 C-0.874375 2.884375 -0.93625 1.95625 -1 1 C-0.67 0.67 -0.34 0.34 0 0 Z " fill="#C07240" transform="translate(512,439)"/>
<path d="M0 0 C0.99 0.33 1.98 0.66 3 1 C1.71451591 2.33929505 0.42141845 3.67128643 -0.875 5 C-1.59429687 5.7425 -2.31359375 6.485 -3.0546875 7.25 C-5 9 -5 9 -7 9 C-7.28875 9.639375 -7.5775 10.27875 -7.875 10.9375 C-9 13 -9 13 -11 14 C-10.52590352 9.68269587 -7.96603297 7.66352539 -4.9375 4.75 C-4.01839844 3.85796875 -3.09929687 2.9659375 -2.15234375 2.046875 C-1.44207031 1.37140625 -0.73179687 0.6959375 0 0 Z " fill="#E08A52" transform="translate(456,187)"/>
<path d="M0 0 C3.33148284 1.05632383 6.55607826 2.21217508 9.75 3.625 C12.71883932 5.12988 12.71883932 5.12988 15 5 C15 5.66 15 6.32 15 7 C17.31 7.66 19.62 8.32 22 9 C18.67880221 10.1395857 17.07097831 9.92267601 13.92578125 8.41796875 C13.17619141 8.06283203 12.42660156 7.70769531 11.65429688 7.34179688 C10.49510742 6.77041992 10.49510742 6.77041992 9.3125 6.1875 C8.52810547 5.81818359 7.74371094 5.44886719 6.93554688 5.06835938 C1.13886863 2.27773727 1.13886863 2.27773727 0 0 Z " fill="#0F0B08" transform="translate(470,590)"/>
<path d="M0 0 C3.21524305 1.40844718 5.32183868 3.10344786 7.75 5.625 C8.67039062 6.57246094 8.67039062 6.57246094 9.609375 7.5390625 C10.29773438 8.26222656 10.29773438 8.26222656 11 9 C7.68643208 9 6.59078081 8.4301261 3.8125 6.75 C3.09707031 6.33234375 2.38164062 5.9146875 1.64453125 5.484375 C0.83048828 4.74960937 0.83048828 4.74960937 0 4 C0 2.68 0 1.36 0 0 Z " fill="#E7E1D4" transform="translate(484,758)"/>
<path d="M0 0 C0.66 0 1.32 0 2 0 C2 0.66 2 1.32 2 2 C3.32 1.67 4.64 1.34 6 1 C6 1.99 6 2.98 6 4 C4.46875 5.38671875 4.46875 5.38671875 2.5 6.6875 C1.345 7.450625 0.19 8.21375 -1 9 C-0.67 6.03 -0.34 3.06 0 0 Z " fill="#D98751" transform="translate(687,442)"/>
<path d="M0 0 C1.49341969 2.98683937 0.40648676 4.95160978 -0.4375 8.125 C-0.72496094 9.22070312 -1.01242187 10.31640625 -1.30859375 11.4453125 C-1.65083984 12.70988281 -1.65083984 12.70988281 -2 14 C-2.33 14 -2.66 14 -3 14 C-3.33 11.36 -3.66 8.72 -4 6 C-4.99 6.495 -4.99 6.495 -6 7 C-5.8125 5.1875 -5.8125 5.1875 -5 3 C-2.4375 1.25 -2.4375 1.25 0 0 Z " fill="#F1EEE7" transform="translate(456,332)"/>
<path d="M0 0 C4.13621084 3.3810038 7.81316569 6.66590534 11 11 C7.125 9.125 7.125 9.125 6 8 C5.34 8.66 4.68 9.32 4 10 C3.32845067 8.71086513 2.66291141 7.41859796 2 6.125 C1.62875 5.40570312 1.2575 4.68640625 0.875 3.9453125 C0 2 0 2 0 0 Z " fill="#E7E2D7" transform="translate(418,699)"/>
<path d="M0 0 C0.33 0 0.66 0 1 0 C1.88844473 5.90474035 2.21581462 11.12356267 1 17 C0.01 17.99 -0.98 18.98 -2 20 C-1.34 13.4 -0.68 6.8 0 0 Z " fill="#DBD6CA" transform="translate(890,552)"/>
<path d="M0 0 C2.64 0.66 5.28 1.32 8 2 C8.33 3.32 8.66 4.64 9 6 C8.01 6.33 7.02 6.66 6 7 C3.61993038 5.41328692 1.85633912 4.12153042 0 2 C0 1.34 0 0.68 0 0 Z " fill="#AE6739" transform="translate(538,432)"/>
<path d="M0 0 C0 3.55157911 -0.99418238 5.48763755 -2.5 8.6875 C-3.19609375 10.17830078 -3.19609375 10.17830078 -3.90625 11.69921875 C-4.2671875 12.45847656 -4.628125 13.21773437 -5 14 C-5.66 13.34 -6.32 12.68 -7 12 C-6.625 9 -6.625 9 -6 6 C-6 5.34 -6 4.68 -6 4 C-4.03852126 2.61061923 -2.03833424 1.2739589 0 0 Z " fill="#EEEBE1" transform="translate(316,198)"/>
<path d="M0 0 C1.32 0.33 2.64 0.66 4 1 C4.375 3.25 4.375 3.25 4 6 C1 8.3125 1 8.3125 -2 10 C-2 6.38970831 -1.03907418 3.44193324 0 0 Z " fill="#B76D3E" transform="translate(337,397)"/>
<path d="M0 0 C2.4375 0.6875 2.4375 0.6875 5 2 C5.8125 4.625 5.8125 4.625 6 7 C3.875 7.75 3.875 7.75 1 8 C-2.3125 6.0625 -2.3125 6.0625 -5 4 C-4.34 3.67 -3.68 3.34 -3 3 C-1.65812182 3.6492959 -0.32520503 4.31731862 1 5 C1.99 5 2.98 5 4 5 C2.68 3.35 1.36 1.7 0 0 Z " fill="#0D0A08" transform="translate(648,311)"/>
<path d="M0 0 C-0.33 0.99 -0.66 1.98 -1 3 C-5.62 3.33 -10.24 3.66 -15 4 C-15.33 3.34 -15.66 2.68 -16 2 C-14.08404518 1.66259915 -12.16720278 1.33023588 -10.25 1 C-9.18265625 0.814375 -8.1153125 0.62875 -7.015625 0.4375 C-4 0 -4 0 0 0 Z " fill="#B5693A" transform="translate(474,303)"/>
<path d="M0 0 C2.8605891 1.35937085 4.85927699 2.64520469 7 5 C7.66 3.68 8.32 2.36 9 1 C9.66 4.63 10.32 8.26 11 12 C7.08060535 8.19588166 3.50897269 4.18423892 0 0 Z " fill="#EE995A" transform="translate(665,275)"/>
<path d="M0 0 C1.12588014 0.95729916 2.2506715 1.91587895 3.375 2.875 C4.00148438 3.40867187 4.62796875 3.94234375 5.2734375 4.4921875 C6.55836651 5.61432007 7.79371975 6.79371975 9 8 C5.33827525 7.37321829 2.1181005 6.35548154 -1.3125 4.9375 C-2.63701172 4.39416016 -2.63701172 4.39416016 -3.98828125 3.83984375 C-4.65214844 3.56269531 -5.31601562 3.28554688 -6 3 C-6 2.67 -6 2.34 -6 2 C-4.02 2 -2.04 2 0 2 C0 1.34 0 0.68 0 0 Z " fill="#F4EDE2" transform="translate(601,346)"/>
<path d="M0 0 C0.33 0 0.66 0 1 0 C1.66666667 3.33333333 2.33333333 6.66666667 3 10 C3.22816406 10.87269531 3.45632813 11.74539063 3.69140625 12.64453125 C4 15 4 15 2 18 C0.59545452 11.88019467 -0.23268915 6.28260706 0 0 Z " fill="#0E0C09" transform="translate(640,736)"/>
<path d="M0 0 C1 3 1 3 1 5 C-0.6796875 6.32421875 -0.6796875 6.32421875 -2.875 7.6875 C-3.95394531 8.37392578 -3.95394531 8.37392578 -5.0546875 9.07421875 C-6.01761719 9.53248047 -6.01761719 9.53248047 -7 10 C-7.66 9.67 -8.32 9.34 -9 9 C-6 6 -3 3 0 0 Z " fill="#CA7A47" transform="translate(595,436)"/>
<path d="M0 0 C0.598125 0.20625 1.19625 0.4125 1.8125 0.625 C-1.1875 2.625 -1.1875 2.625 -3.375 2.25 C-3.973125 2.04375 -4.57125 1.8375 -5.1875 1.625 C-2.1875 -0.375 -2.1875 -0.375 0 0 Z M-2.1875 2.625 C0.7825 3.12 0.7825 3.12 3.8125 3.625 C0.95771674 5.52818884 -0.60691308 6.0869099 -3.875 6.75 C-4.68324219 6.91757812 -5.49148438 7.08515625 -6.32421875 7.2578125 C-6.93910156 7.37898438 -7.55398438 7.50015625 -8.1875 7.625 C-4.4375 4.625 -4.4375 4.625 -2.1875 4.625 C-2.1875 3.965 -2.1875 3.305 -2.1875 2.625 Z " fill="#EB9658" transform="translate(614.1875,313.375)"/>
<path d="M0 0 C4.88049925 3.9419417 9.0580583 8.11950075 13 13 C12.67 13.66 12.34 14.32 12 15 C9.99390948 12.88046983 7.99506397 10.75486559 6 8.625 C5.42765625 8.02171875 4.8553125 7.4184375 4.265625 6.796875 C3.72421875 6.21679688 3.1828125 5.63671875 2.625 5.0390625 C1.87089844 4.23782959 1.87089844 4.23782959 1.1015625 3.42041016 C0 2 0 2 0 0 Z " fill="#100E0A" transform="translate(776,258)"/>
<path d="M0 0 C3.71045247 1.57780923 6.29906384 3.90703248 9.25 6.625 C10.14203125 7.44226563 11.0340625 8.25953125 11.953125 9.1015625 C12.96632813 10.04128906 12.96632813 10.04128906 14 11 C13.67 11.66 13.34 12.32 13 13 C12.22914063 12.28972656 11.45828125 11.57945312 10.6640625 10.84765625 C9.65114976 9.9191529 8.63812299 8.99077394 7.625 8.0625 C7.11710937 7.59392578 6.60921875 7.12535156 6.0859375 6.64257812 C3.25734146 4.02273232 3.25734146 4.02273232 0 2 C0 1.34 0 0.68 0 0 Z " fill="#0D0A07" transform="translate(450,712)"/>
<path d="M0 0 C2.27029534 0.39143023 3.83408198 0.88741278 5.75 2.1875 C7.54267046 4.78687216 7.20510719 6.92339216 7 10 C6.01 10.495 6.01 10.495 5 11 C2.875 10.0625 2.875 10.0625 1 9 C1.99 8.67 2.98 8.34 4 8 C4.44290923 3.99653977 4.44290923 3.99653977 2 1.75 C1.34 1.1725 0.68 0.595 0 0 Z " fill="#A46135" transform="translate(649,310)"/>
<path d="M0 0 C0.66 0.99 1.32 1.98 2 3 C1.67 3.66 1.34 4.32 1 5 C-0.32 4.67 -1.64 4.34 -3 4 C-3 3.34 -3 2.68 -3 2 C-4.98 2 -6.96 2 -9 2 C-6.04591103 -0.95408897 -3.8327351 -1.48363939 0 0 Z " fill="#CE814D" transform="translate(636,313)"/>
<path d="M0 0 C4.88049925 3.9419417 9.0580583 8.11950075 13 13 C10 13 10 13 7.51953125 10.6640625 C6.60862148 9.65873726 5.70656694 8.64533316 4.8125 7.625 C4.34908203 7.11710938 3.88566406 6.60921875 3.40820312 6.0859375 C0 2.27115933 0 2.27115933 0 0 Z " fill="#E58E54" transform="translate(624,190)"/>
<path d="M0 0 C0.66 0.99 1.32 1.98 2 3 C0.68 4.32 -0.64 5.64 -2 7 C-3.32 6.34 -4.64 5.68 -6 5 C-6 4.34 -6 3.68 -6 3 C-4.02 2.01 -2.04 1.02 0 0 Z " fill="#C46238" transform="translate(606,495)"/>
<path d="M0 0 C0.33 0.99 0.66 1.98 1 3 C-3.02167317 5.96837781 -6.00088076 7.52389341 -11 8 C-10.4375 6.0625 -10.4375 6.0625 -9 4 C-6.67284 3.62599214 -4.33882138 3.29235267 -2 3 C-1.34 2.01 -0.68 1.02 0 0 Z " fill="#0E0B08" transform="translate(593,436)"/>
<path d="M0 0 C-1.22934015 3.68802044 -2.93859378 4.72356973 -6 7 C-6 6.34 -6 5.68 -6 5 C-6.66 4.67 -7.32 4.34 -8 4 C-7.67 3.01 -7.34 2.02 -7 1 C-4.53721199 -0.231394 -2.7204945 -0.07159196 0 0 Z " fill="#C77845" transform="translate(322,370)"/>
<path d="M0 0 C0.33 0 0.66 0 1 0 C1.33 5.94 1.66 11.88 2 18 C0.68 16.68 -0.64 15.36 -2 14 C-1.34 14 -0.68 14 0 14 C0 9.38 0 4.76 0 0 Z " fill="#E3DED2" transform="translate(675,732)"/>
<path d="M0 0 C0.66 0.66 1.32 1.32 2 2 C1.9375 3.875 1.9375 3.875 1 6 C-1.5625 8.25 -1.5625 8.25 -4 10 C-4.66 9.67 -5.32 9.34 -6 9 C-4.02 6.03 -2.04 3.06 0 0 Z " fill="#F3EEE0" transform="translate(636,737)"/>
<path d="M0 0 C3.90829085 0.5647301 5.89920223 2.42131971 8.75 5.0625 C9.54921875 5.79597656 10.3484375 6.52945313 11.171875 7.28515625 C11.77515625 7.85105469 12.3784375 8.41695312 13 9 C9.02348017 9 7.85083826 7.55718178 4.8125 5.0625 C3.91144531 4.33160156 3.01039063 3.60070312 2.08203125 2.84765625 C1.39496094 2.23792969 0.70789063 1.62820313 0 1 C0 0.67 0 0.34 0 0 Z " fill="#0F0B07" transform="translate(427,694)"/>
<path d="M0 0 C2.64 0.33 5.28 0.66 8 1 C4.2632157 3.49118953 2.25548181 3.2065226 -2.1875 3.125 C-3.45980469 3.10695313 -4.73210938 3.08890625 -6.04296875 3.0703125 C-7.50669922 3.03550781 -7.50669922 3.03550781 -9 3 C-9 2.67 -9 2.34 -9 2 C-4.545 1.505 -4.545 1.505 0 1 C0 0.67 0 0.34 0 0 Z " fill="#93562F" transform="translate(625,302)"/>
<path d="M0 0 C0.33 0 0.66 0 1 0 C1.33 4.62 1.66 9.24 2 14 C1.01 14 0.02 14 -1 14 C-1.18451025 4.58997722 -1.18451025 4.58997722 0 0 Z " fill="#27221B" transform="translate(734,345)"/>
<path d="M0 0 C4.2742558 1.5830577 6.26531794 4.50568404 9 8 C8.01 8.495 8.01 8.495 7 9 C4.03595495 6.19195732 1.55500981 3.81684226 0 0 Z " fill="#231F17" transform="translate(659,144)"/>
<path d="M0 0 C4.2742558 1.5830577 6.26531794 4.50568404 9 8 C6 8 6 8 4.39453125 6.7578125 C3.87246094 6.21898437 3.35039062 5.68015625 2.8125 5.125 C2.28269531 4.59132813 1.75289062 4.05765625 1.20703125 3.5078125 C0 2 0 2 0 0 Z " fill="#E7E1D6" transform="translate(234,779)"/>
<path d="M0 0 C1.0169313 2.65498232 1.13022151 3.69155375 0.00390625 6.359375 C-0.47175781 7.14828125 -0.94742188 7.9371875 -1.4375 8.75 C-2.14712891 9.94882812 -2.14712891 9.94882812 -2.87109375 11.171875 C-3.24363281 11.77515625 -3.61617187 12.3784375 -4 13 C-5.0169313 10.34501768 -5.13022151 9.30844625 -4.00390625 6.640625 C-3.52824219 5.85171875 -3.05257812 5.0628125 -2.5625 4.25 C-2.08941406 3.45078125 -1.61632812 2.6515625 -1.12890625 1.828125 C-0.75636719 1.22484375 -0.38382813 0.6215625 0 0 Z " fill="#120F0A" transform="translate(838,670)"/>
<path d="M0 0 C0.33 0 0.66 0 1 0 C1.33 2.97 1.66 5.94 2 9 C1.34 9 0.68 9 0 9 C0 10.65 0 12.3 0 14 C-0.33 14 -0.66 14 -1 14 C-1.02705729 12.22925083 -1.04642195 10.45838289 -1.0625 8.6875 C-1.07410156 7.70136719 -1.08570313 6.71523438 -1.09765625 5.69921875 C-1 3 -1 3 0 0 Z " fill="#0F0E0A" transform="translate(273,360)"/>
<path d="M0 0 C1.32 0.33 2.64 0.66 4 1 C4.125 4.375 4.125 4.375 4 8 C3.34 8.66 2.68 9.32 2 10 C2 7.36 2 4.72 2 2 C0.68 2.33 -0.64 2.66 -2 3 C-1.34 2.01 -0.68 1.02 0 0 Z " fill="#0A0906" transform="translate(599,334)"/>
<path d="M0 0 C3.60654039 2.40436026 3.85452932 3.94679607 5 8 C-0.66153846 5.53846154 -0.66153846 5.53846154 -2.375 2.8125 C-2.58125 2.214375 -2.7875 1.61625 -3 1 C-2.01 0.67 -1.02 0.34 0 0 Z " fill="#BF7240" transform="translate(491,317)"/>
<path d="M0 0 C4.3177458 0.50797009 8.03302114 1.19682779 12 3 C11.01 3.99 10.02 4.98 9 6 C8.01 5.34 7.02 4.68 6 4 C4.68 4 3.36 4 2 4 C1.34 2.68 0.68 1.36 0 0 Z " fill="#C97B48" transform="translate(642,317)"/>
<path d="M0 0 C0.66 0 1.32 0 2 0 C1 3 1 3 0 5 C0.66 5.33 1.32 5.66 2 6 C0.68 7.98 -0.64 9.96 -2 12 C-2.66 11.34 -3.32 10.68 -4 10 C-2.68 6.7 -1.36 3.4 0 0 Z " fill="#B56A3B" transform="translate(584,309)"/>
<path d="M0 0 C0.66 0.33 1.32 0.66 2 1 C1.34 2.32 0.68 3.64 0 5 C0.66 5.33 1.32 5.66 2 6 C1.67 6.99 1.34 7.98 1 9 C-0.32 8.67 -1.64 8.34 -3 8 C-3.36923077 3.44615385 -3.36923077 3.44615385 -1.5 1.1875 C-1.005 0.795625 -0.51 0.40375 0 0 Z " fill="#0F0B08" transform="translate(600,312)"/>
<path d="M0 0 C0.886875 -0.01417969 1.77375 -0.02835937 2.6875 -0.04296875 C5 0.1875 5 0.1875 7 2.1875 C5.04310341 2.40892255 3.08438048 2.6142568 1.125 2.8125 C-0.51082031 2.98652344 -0.51082031 2.98652344 -2.1796875 3.1640625 C-3.57574219 3.17566406 -3.57574219 3.17566406 -5 3.1875 C-5.66 2.5275 -6.32 1.8675 -7 1.1875 C-4.52224905 -0.05137548 -2.76346293 0.02008331 0 0 Z " fill="#BF6F3C" transform="translate(619,301.8125)"/>
<path d="M0 0 C1.32 1.32 2.64 2.64 4 4 C2.625 6.5 2.625 6.5 1 9 C0.34 9 -0.32 9 -1 9 C-0.67 6.03 -0.34 3.06 0 0 Z " fill="#EBE5D8" transform="translate(598,754)"/>
<path d="M0 0 C3.39914975 1.13304992 4.05254451 2.12518475 6 5 C7.32 4.34 8.64 3.68 10 3 C8.68 4.65 7.36 6.3 6 8 C5.01 7.67 4.02 7.34 3 7 C1.3125 3.4375 1.3125 3.4375 0 0 Z " fill="#090704" transform="translate(187,685)"/>
<path d="M0 0 C1.27310312 0.93441535 2.543388 1.87267111 3.8125 2.8125 C4.52019531 3.33457031 5.22789062 3.85664063 5.95703125 4.39453125 C7.78531393 5.83128877 9.39896688 7.31815763 11 9 C7.25983417 9 6.54723807 8.0658409 3.8125 5.625 C3.09707031 4.99851562 2.38164062 4.37203125 1.64453125 3.7265625 C0 2 0 2 0 0 Z " fill="#130D09" transform="translate(323,455)"/>
<path d="M0 0 C6.24675325 6.07792208 6.24675325 6.07792208 8 9 C7.67 9.99 7.34 10.98 7 12 C5.82767315 10.3790787 4.6622923 8.75313167 3.5 7.125 C2.8503125 6.22007812 2.200625 5.31515625 1.53125 4.3828125 C0 2 0 2 0 0 Z " fill="#EEEBE2" transform="translate(814,276)"/>
<path d="M0 0 C4.04420651 1.77945087 7.46078487 4.39529673 11 7 C10.01 7.33 9.02 7.66 8 8 C5.95703125 6.85546875 5.95703125 6.85546875 3.8125 5.1875 C3.09707031 4.64480469 2.38164062 4.10210938 1.64453125 3.54296875 C1.10183594 3.03378906 0.55914062 2.52460937 0 2 C0 1.34 0 0.68 0 0 Z " fill="#B56838" transform="translate(425,562)"/>
<path d="M0 0 C0.33 0.66 0.66 1.32 1 2 C1.99 2.33 2.98 2.66 4 3 C4.33 5.97 4.66 8.94 5 12 C1.94063363 8.24532309 0 4.91886939 0 0 Z " fill="#E99357" transform="translate(301,415)"/>
<path d="M0 0 C1.33855056 0.78281305 2.67073644 1.57651877 4 2.375 C5.11375 3.03628906 5.11375 3.03628906 6.25 3.7109375 C6.8275 4.13632812 7.405 4.56171875 8 5 C8 5.66 8 6.32 8 7 C6.68 7.33 5.36 7.66 4 8 C2.66666667 5.33333333 1.33333333 2.66666667 0 0 Z " fill="#F3EDE5" transform="translate(499,338)"/>
<path d="M0 0 C0.99 0 1.98 0 3 0 C3 0.99 3 1.98 3 3 C0.625 4.5625 0.625 4.5625 -2 6 C-2.66 6.66 -3.32 7.32 -4 8 C-4 4.0521912 -2.66275435 2.81491174 0 0 Z " fill="#F2EFE5" transform="translate(596,339)"/>
<path d="M0 0 C3.7952131 1.49097658 5.61042731 3.75700849 8 7 C5 7 5 7 2.3125 4.625 C0 2 0 2 0 0 Z " fill="#E5E0D3" transform="translate(623,627)"/>
<path d="M0 0 C0.33 0 0.66 0 1 0 C1.33 3.63 1.66 7.26 2 11 C1.01 11 0.02 11 -1 11 C-0.67 7.37 -0.34 3.74 0 0 Z " fill="#2C271F" transform="translate(736,359)"/>
<path d="M0 0 C1.60080151 4.00200378 0.29279692 7.04556236 -1 11 C-1.66 10.01 -2.32 9.02 -3 8 C-2.24451463 5.1524013 -1.31613642 2.63227284 0 0 Z " fill="#EDE8D9" transform="translate(182,344)"/>
<path d="M0 0 C0.66 0.33 1.32 0.66 2 1 C1.34 2.65 0.68 4.3 0 6 C-0.66 6 -1.32 6 -2 6 C-2.33 6.99 -2.66 7.98 -3 9 C-3.33 8.34 -3.66 7.68 -4 7 C-1.55555556 1.55555556 -1.55555556 1.55555556 0 0 Z " fill="#C37644" transform="translate(530,319)"/>
<path d="M0 0 C0.66 0.33 1.32 0.66 2 1 C-0.35519526 4.79448125 -2.9630133 6.20578369 -7 8 C-5.50902342 4.2047869 -3.24299151 2.38957269 0 0 Z " fill="#0F0D09" transform="translate(266,214)"/>
<path d="M0 0 C0.66 0.66 1.32 1.32 2 2 C-2.29299643 3.26264601 -4.87831311 2.62950412 -9 1 C-5.66429909 -1.10025613 -3.74952434 -1.18406032 0 0 Z " fill="#BC7243" transform="translate(490,485)"/>
<path d="M0 0 C0.80050781 0.12761719 1.60101563 0.25523437 2.42578125 0.38671875 C3.23402344 0.50660156 4.04226563 0.62648438 4.875 0.75 C5.48988281 0.85699219 6.10476563 0.96398437 6.73828125 1.07421875 C6.40828125 1.73421875 6.07828125 2.39421875 5.73828125 3.07421875 C2.76828125 3.07421875 -0.20171875 3.07421875 -3.26171875 3.07421875 C-3.59171875 3.73421875 -3.92171875 4.39421875 -4.26171875 5.07421875 C-4.59171875 4.41421875 -4.92171875 3.75421875 -5.26171875 3.07421875 C-3.53640014 0.90221572 -2.83921072 0.09316926 0 0 Z " fill="#9B5B32" transform="translate(331.26171875,384.92578125)"/>
<path d="M0 0 C3.63094642 2.64960955 5.89851796 5.01824456 8 9 C7.01 9.495 7.01 9.495 6 10 C4.99421411 8.71283353 3.99553202 7.42011342 3 6.125 C2.443125 5.40570312 1.88625 4.68640625 1.3125 3.9453125 C0 2 0 2 0 0 Z " fill="#120D08" transform="translate(518,774)"/>
<path d="M0 0 C1.5625 1 1.5625 1 3 3 C2.96726452 5.76614782 2.49404328 8.26030547 2 11 C1.67 11 1.34 11 1 11 C-1.125 3.375 -1.125 3.375 0 0 Z " fill="#3B1916" transform="translate(712,747)"/>
<path d="M0 0 C0.66 0 1.32 0 2 0 C4.36503039 2.99106784 5.91553181 5.02861582 6.25 8.875 C6.1675 9.57625 6.085 10.2775 6 11 C3.13546142 7.58983503 1.65296434 4.09305456 0 0 Z " fill="#0D0B08" transform="translate(666,691)"/>
<path d="M0 0 C1.72586006 3.22571464 2.37916206 5.3031699 2 9 C1.34 9.99 0.68 10.98 0 12 C-0.33 11.67 -0.66 11.34 -1 11 C-0.91015699 9.14227838 -0.75388139 7.28752015 -0.5625 5.4375 C-0.46066406 4.42558594 -0.35882813 3.41367187 -0.25390625 2.37109375 C-0.17011719 1.58863281 -0.08632812 0.80617188 0 0 Z " fill="#221E18" transform="translate(213,661)"/>
<path d="M0 0 C1.88391785 3.26545761 2.49287967 6.28111761 3 10 C2.01 10.33 1.02 10.66 0 11 C-1.125 3.375 -1.125 3.375 0 0 Z " fill="#242019" transform="translate(155,600)"/>
<path d="M0 0 C-1.5830577 4.2742558 -4.50568404 6.26531794 -8 9 C-7.53918323 4.85264908 -4.48412936 0 0 0 Z " fill="#120C09" transform="translate(696,443)"/>
<path d="M0 0 C0.66 0 1.32 0 2 0 C3.76462683 3.08809695 4 4.23312136 4 8 C3.01 7.67 2.02 7.34 1 7 C0.67 4.69 0.34 2.38 0 0 Z " fill="#0F0D08" transform="translate(174,658)"/>
<path d="M0 0 C1.35015859 4.05047576 0.62084998 6.7920168 0 11 C-0.33 11 -0.66 11 -1 11 C-1.12375 10.030625 -1.2475 9.06125 -1.375 8.0625 C-1.58125 7.051875 -1.7875 6.04125 -2 5 C-2.66 4.67 -3.32 4.34 -4 4 C-2.68 2.68 -1.36 1.36 0 0 Z " fill="#D37B43" transform="translate(601,589)"/>
<path d="M0 0 C0.33 0.99 0.66 1.98 1 3 C-0.9375 6.1875 -0.9375 6.1875 -3 9 C-3.66 8.67 -4.32 8.34 -5 8 C-3.35 5.36 -1.7 2.72 0 0 Z " fill="#0F0B08" transform="translate(361,453)"/>
<path d="M0 0 C0.75 1.75 0.75 1.75 1 4 C-0.9375 6.25 -0.9375 6.25 -3 8 C-3 4.42424104 -1.91159393 2.94704065 0 0 Z " fill="#0E0B08" transform="translate(701,434)"/>
<path d="M0 0 C1.17539996 0.92652701 2.34010577 1.86663387 3.5 2.8125 C4.1496875 3.33457031 4.799375 3.85664062 5.46875 4.39453125 C7 6 7 6 7 9 C3.99234114 6.15063897 1.72154788 3.76488042 0 0 Z " fill="#0E0B08" transform="translate(543,804)"/>
<path d="M0 0 C0.33 0.66 0.66 1.32 1 2 C-0.32 3.65 -1.64 5.3 -3 7 C-3.99 6.67 -4.98 6.34 -6 6 C-4.02 4.02 -2.04 2.04 0 0 Z " fill="#DFDACF" transform="translate(785,777)"/>
<path d="M0 0 C2.64 0.66 5.28 1.32 8 2 C8 2.33 8 2.66 8 3 C5.69 3.66 3.38 4.32 1 5 C0.67 3.35 0.34 1.7 0 0 Z " fill="#EAE5D7" transform="translate(443,759)"/>
<path d="M0 0 C1.98 0 3.96 0 6 0 C6 0.66 6 1.32 6 2 C3.36 2.66 0.72 3.32 -2 4 C-1.34 2.68 -0.68 1.36 0 0 Z " fill="#0B0906" transform="translate(646,702)"/>
<path d="M0 0 C0.33 0 0.66 0 1 0 C1.33 3.63 1.66 7.26 2 11 C1.34 11 0.68 11 0 11 C-1.05404945 7.01803543 -0.84098656 4.01804691 0 0 Z " fill="#CDC7BA" transform="translate(129,553)"/>
<path d="M0 0 C0.33 0 0.66 0 1 0 C1.66 3.63 2.32 7.26 3 11 C1.68 10.34 0.36 9.68 -1 9 C-0.67 6.03 -0.34 3.06 0 0 Z " fill="#D3CABA" transform="translate(454,340)"/>
<path d="M0 0 C2.64 0.66 5.28 1.32 8 2 C5 4 5 4 2.875 3.8125 C2.25625 3.544375 1.6375 3.27625 1 3 C0.67 2.01 0.34 1.02 0 0 Z " fill="#DAD6CF" transform="translate(482,330)"/>
<path d="M0 0 C1.98 0 3.96 0 6 0 C6.66 1.32 7.32 2.64 8 4 C4.79604584 4 2.90600261 3.25664978 0 2 C0 1.34 0 0.68 0 0 Z " fill="#211F19" transform="translate(640,329)"/>
<path d="M0 0 C1.65 0.99 3.3 1.98 5 3 C4.67 4.65 4.34 6.3 4 8 C1.84622436 5.37801226 0.59927826 3.35595828 0 0 Z " fill="#DCD8CD" transform="translate(698,197)"/>
</svg>
