<?xml version="1.0" standalone="no"?>
<!DOCTYPE svg PUBLIC "-//W3C//DTD SVG 20010904//EN"
 "http://www.w3.org/TR/2001/REC-SVG-20010904/DTD/svg10.dtd">
<svg version="1.0" xmlns="http://www.w3.org/2000/svg"
 width="1024.000000pt" height="1024.000000pt" viewBox="0 0 1024.000000 1024.000000"
 preserveAspectRatio="xMidYMid meet">

<g transform="translate(0.000000,1024.000000) scale(0.100000,-0.100000)"
fill="#000000" stroke="none">
<path d="M4810 9359 c-411 -57 -639 -137 -922 -326 -154 -103 -295 -222 -429
-360 -99 -104 -141 -139 -209 -178 -366 -211 -663 -438 -920 -701 -522 -535
-879 -1241 -1005 -1986 -115 -686 -36 -1497 201 -2054 111 -263 338 -684 472
-879 141 -204 386 -471 592 -644 576 -483 1129 -752 1841 -895 571 -115 1197
-72 1806 125 323 105 528 193 754 324 171 99 258 159 444 306 378 298 626 578
893 1005 193 310 312 554 403 827 212 633 252 1269 123 1967 -109 593 -379
1163 -789 1667 -118 145 -381 404 -535 527 -152 121 -419 302 -587 398 -97 55
-121 74 -179 143 -136 162 -338 345 -497 452 -169 113 -412 214 -595 249 -97
18 -262 16 -300 -5 -19 -10 -28 -9 -55 8 -88 54 -261 64 -507 30z m722 -590
c65 -51 106 -72 238 -121 240 -89 430 -235 648 -496 137 -165 251 -397 307
-622 44 -176 45 -169 -20 -101 -135 141 -318 187 -589 146 -141 -21 -176 -33
-213 -70 -26 -26 -33 -41 -33 -73 0 -83 60 -115 182 -94 36 7 140 16 230 22
151 10 169 9 241 -9 44 -12 108 -35 144 -53 53 -26 68 -30 83 -20 25 15 26 9
47 -293 24 -360 23 -737 -5 -930 -11 -82 -28 -208 -37 -280 -34 -275 -78 -435
-170 -614 -96 -186 -180 -300 -353 -474 -199 -202 -377 -320 -589 -394 -73
-25 -88 -27 -231 -25 -186 2 -301 23 -473 87 -168 63 -256 109 -432 226 -176
118 -281 203 -368 297 -73 80 -173 228 -223 332 -58 120 -207 510 -218 570
-15 87 -22 105 -41 108 -37 7 -49 -17 -43 -87 6 -62 5 -70 -27 -126 -93 -166
-227 -132 -418 104 -70 85 -91 125 -157 293 -55 136 -58 150 -71 293 -12 124
-2 214 34 294 29 64 64 98 137 131 80 36 143 21 263 -64 59 -43 225 -231 225
-256 0 -7 13 -10 33 -8 l32 3 7 70 c3 39 12 126 18 194 15 163 32 214 128 378
44 76 112 215 152 308 134 316 263 554 393 727 199 264 379 384 762 506 147
47 208 72 270 110 44 28 81 50 83 51 1 1 26 -17 54 -40z m1770 -717 c485 -358
918 -906 1152 -1458 205 -483 299 -934 299 -1439 0 -307 -29 -542 -109 -885
-50 -215 -151 -488 -280 -758 -67 -140 -202 -381 -214 -382 -3 0 -13 19 -21
43 -32 82 -136 323 -164 377 -15 30 -81 133 -147 228 -186 269 -228 359 -263
572 -19 108 -17 224 5 470 14 159 12 468 -5 625 -8 77 -55 381 -105 675 -49
294 -99 607 -110 695 -68 524 -111 758 -192 1030 -29 96 -99 278 -137 353 -17
34 -31 64 -31 67 0 8 217 -135 322 -213z m-4151 167 c-34 -58 -146 -338 -190
-473 -92 -282 -201 -828 -246 -1227 -17 -154 -85 -589 -111 -704 -44 -203
-108 -390 -224 -651 -127 -285 -218 -545 -251 -717 -23 -120 -25 -305 -4 -502
34 -320 8 -458 -104 -536 -25 -18 -58 -43 -72 -56 l-27 -24 -45 83 c-118 216
-255 565 -317 804 -32 125 -74 349 -96 517 -21 161 -29 534 -15 704 39 492
212 1075 442 1489 76 137 206 334 317 484 110 147 426 465 582 586 114 88 372
265 378 260 1 -2 -6 -19 -17 -37z m3873 -1530 c36 -17 74 -95 86 -177 11 -80
4 -151 -35 -347 -47 -239 -72 -299 -159 -384 l-55 -55 5 35 c28 201 44 373 45
482 1 73 5 179 9 237 4 58 5 -14 2 -159 -5 -226 -3 -263 9 -255 14 9 19 10 55
12 11 1 27 13 34 27 8 15 16 21 20 15 8 -13 46 145 59 240 20 151 -17 291 -84
322 -32 14 -50 -1 -70 -58 -8 -21 -14 -31 -15 -21 0 30 41 97 61 97 4 0 19 -5
33 -11z m-2909 -1929 c170 -174 170 -174 40 -51 -71 67 -143 139 -159 158 -27
32 -30 34 -36 17 -5 -14 -8 -9 -12 18 -2 21 -4 36 -3 35 0 -1 77 -81 170 -177z
m-148 -52 c-2 -29 -3 -6 -3 52 0 58 1 81 3 53 2 -29 2 -77 0 -105z m-10 -200
c-2 -24 -4 -7 -4 37 0 44 2 63 4 43 2 -21 2 -57 0 -80z m354 65 c13 -16 12
-17 -3 -4 -17 13 -22 21 -14 21 2 0 10 -8 17 -17z m40 -30 c13 -16 12 -17 -3
-4 -17 13 -22 21 -14 21 2 0 10 -8 17 -17z m190 -125 l24 -20 -31 17 c-17 10
-41 26 -55 37 l-24 20 31 -17 c17 -10 41 -26 55 -37z m-356 -75 c268 -289 464
-439 724 -554 217 -96 484 -105 670 -23 169 75 331 205 379 304 21 46 51 224
39 236 -4 4 -15 0 -24 -8 -18 -15 -73 -46 -63 -35 3 3 28 21 56 41 38 26 51
30 48 18 -7 -34 -34 -392 -49 -662 -28 -507 -54 -784 -87 -915 -24 -99 -114
-333 -170 -440 -42 -82 -139 -235 -148 -234 -6 0 -220 248 -319 369 -99 119
-573 559 -804 744 -174 140 -188 154 -230 241 -80 165 -204 513 -243 685 -26
116 -28 134 -15 125 8 -4 41 86 41 112 0 22 61 103 77 103 10 0 63 -48 118
-107z m-238 -10 c-2 -16 -4 -3 -4 27 0 30 2 43 4 28 2 -16 2 -40 0 -55z m708
14 c16 -15 -48 20 -70 38 -11 9 -2 7 20 -6 22 -12 45 -26 50 -32z m181 -95
c-5 -4 -146 66 -146 73 0 3 34 -12 75 -32 41 -20 73 -39 71 -41z m1064 3 c0
-6 -117 -65 -127 -65 -4 1 21 16 57 35 72 38 70 37 70 30z m-1010 -20 c14 -8
21 -14 15 -14 -5 0 -21 6 -35 14 -14 8 -20 14 -15 14 6 0 21 -6 35 -14z m90
-37 c10 -6 7 -7 -10 -2 -14 3 -32 11 -40 16 -10 6 -7 7 10 2 14 -3 32 -11 40
-16z m745 -28 c-22 -10 -47 -19 -55 -19 -8 0 5 9 30 19 58 24 77 24 25 0z
m-638 -6 c-3 -3 -12 -4 -19 -1 -8 3 -5 6 6 6 11 1 17 -2 13 -5z m46 -11 c-7
-2 -19 -2 -25 0 -7 3 -2 5 12 5 14 0 19 -2 13 -5z m50 -10 c-7 -2 -19 -2 -25
0 -7 3 -2 5 12 5 14 0 19 -2 13 -5z m464 1 c-3 -3 -12 -4 -19 -1 -8 3 -5 6 6
6 11 1 17 -2 13 -5z m-384 -11 c-13 -2 -33 -2 -45 0 -13 2 -3 4 22 4 25 0 35
-2 23 -4z m340 0 c-7 -2 -19 -2 -25 0 -7 3 -2 5 12 5 14 0 19 -2 13 -5z m-105
-10 c-38 -2 -98 -2 -135 0 -38 2 -7 3 67 3 74 0 105 -1 68 -3z m772 -178 c90
-94 136 -151 166 -205 23 -41 93 -172 157 -290 l115 -215 25 -180 c14 -99 28
-211 32 -248 l7 -68 -74 53 c-40 29 -102 77 -138 106 -36 29 -77 55 -92 59
-16 3 -28 7 -28 9 0 3 22 35 49 72 64 89 73 107 65 137 -13 51 -80 61 -114 18
-26 -34 -132 -183 -231 -323 -78 -112 -222 -270 -235 -258 -4 4 5 56 19 115
36 149 56 350 67 673 6 151 15 336 20 410 6 74 14 177 17 229 l6 94 21 -29
c11 -16 77 -87 146 -159z m-1834 -920 c125 -105 485 -427 519 -465 12 -14 -10
-3 -55 25 -41 27 -115 67 -165 90 -84 39 -135 58 -322 115 l-72 22 -22 67
c-18 54 -48 134 -137 361 -3 8 26 -15 64 -51 39 -36 124 -110 190 -164z m1999
-420 c42 -253 89 -493 143 -737 l20 -87 -82 -34 c-100 -43 -307 -118 -401
-145 -118 -35 -277 -73 -282 -68 -3 2 -33 67 -67 143 -34 76 -78 162 -97 192
l-35 55 49 73 c56 86 172 295 188 338 7 20 36 49 86 85 42 30 101 78 131 105
58 53 183 204 253 306 22 33 42 59 44 57 2 -2 25 -129 50 -283z m-1862 -6
c180 -72 405 -195 576 -316 106 -75 269 -245 345 -361 69 -104 216 -380 216
-406 0 -9 -17 -16 -47 -21 -172 -26 -309 -36 -534 -42 -213 -5 -258 -4 -265 8
-11 18 -44 103 -95 249 -22 63 -67 182 -100 263 -92 228 -155 401 -194 529
-19 64 -38 124 -42 133 -7 21 1 19 140 -36z"/>
<path d="M4650 7583 c-64 -6 -179 -34 -237 -57 -120 -47 -254 -153 -304 -240
-34 -60 -36 -77 -11 -99 27 -24 45 -21 70 12 28 38 207 127 297 147 39 8 142
18 230 21 134 4 181 2 288 -16 167 -27 192 -27 222 4 31 30 33 77 5 122 -24
40 -55 56 -148 77 -60 14 -334 39 -367 34 -5 -1 -26 -3 -45 -5z"/>
<path d="M6045 7324 c-77 -14 -82 -17 -134 -71 -45 -48 -54 -64 -61 -107 -7
-48 -49 -156 -50 -128 0 7 9 30 20 52 25 49 25 67 1 80 -32 17 -47 2 -80 -73
-92 -211 -79 -414 48 -796 68 -201 101 -314 101 -343 0 -31 -21 -49 -85 -77
-27 -12 -66 -33 -85 -46 -31 -20 -41 -22 -90 -15 -30 4 -97 24 -147 44 -75 29
-106 36 -162 36 -81 0 -119 14 -127 47 -8 29 3 85 24 129 15 33 15 35 -5 55
-18 18 -23 19 -41 8 -28 -18 -62 -110 -62 -168 0 -56 27 -103 79 -138 46 -31
94 -43 171 -43 45 0 96 -9 167 -31 57 -18 101 -34 99 -36 -2 -3 -47 9 -100 26
-68 22 -116 31 -164 31 -86 0 -129 12 -191 55 -59 39 -66 28 -28 -40 28 -49
56 -63 159 -80 70 -11 84 -17 117 -49 21 -20 51 -40 66 -45 43 -11 131 4 225
40 90 35 120 57 120 91 0 12 7 30 17 40 9 10 12 18 6 18 -5 0 -18 -9 -29 -21
-21 -23 -105 -69 -126 -69 -7 0 7 10 32 21 25 11 56 31 70 44 14 12 49 33 78
45 45 20 57 30 79 74 24 48 25 53 14 116 -7 36 -41 153 -77 260 -73 218 -87
270 -109 417 -18 121 -18 209 0 278 l12 50 -5 -69 c-5 -69 -5 -70 28 -98 l34
-28 11 34 c15 42 66 108 106 136 31 23 38 40 14 40 -19 0 -38 36 -30 60 10 32
104 99 164 116 107 32 325 -3 388 -62 l28 -26 -29 21 c-77 56 -285 87 -387 58
-58 -17 -144 -77 -154 -107 -8 -26 5 -50 27 -50 11 0 37 13 58 30 69 55 151
73 260 59 61 -8 218 -75 205 -87 -2 -3 13 -25 35 -49 22 -23 45 -53 51 -66 8
-18 17 -22 39 -19 64 9 81 169 26 252 -39 59 -179 150 -233 150 -12 0 -29 8
-39 18 -24 23 -234 27 -349 6z m-372 -1631 c-7 -2 -19 -2 -25 0 -7 3 -2 5 12
5 14 0 19 -2 13 -5z"/>
<path d="M4730 7310 c-19 -3 -62 -17 -95 -30 -58 -24 -78 -35 -177 -103 -73
-50 -84 -58 -71 -52 6 3 13 0 15 -5 2 -7 29 1 68 19 36 16 79 33 95 36 17 3
-1 -7 -40 -23 -101 -42 -168 -84 -184 -117 -13 -26 -12 -30 8 -46 25 -21 48
-16 76 18 26 30 174 90 245 98 64 8 180 -14 244 -45 51 -24 54 -24 80 -3 18
15 17 13 -1 -7 -20 -21 -26 -23 -50 -13 -64 25 -66 24 -19 -6 79 -52 186 -142
186 -157 0 -32 79 -3 127 45 46 48 58 107 34 170 -10 28 -25 57 -32 64 -8 8
-22 23 -31 33 -25 29 -39 38 -92 63 -44 20 -178 57 -216 60 -87 5 -141 5 -170
1z m-97 -127 c-7 -2 -19 -2 -25 0 -7 3 -2 5 12 5 14 0 19 -2 13 -5z m140 0
c-7 -2 -21 -2 -30 0 -10 3 -4 5 12 5 17 0 24 -2 18 -5z m44 -9 c-3 -3 -12 -4
-19 -1 -8 3 -5 6 6 6 11 1 17 -2 13 -5z m93 -25 c18 -11 -34 -1 -65 13 -13 5
-9 6 15 2 19 -4 42 -10 50 -15z m84 -34 c11 -8 18 -17 15 -19 -2 -2 -15 4 -28
15 -27 22 -15 26 13 4z"/>
<path d="M4366 7095 c-4 -13 -2 -14 14 -5 23 13 26 20 6 20 -8 0 -16 -7 -20
-15z"/>
<path d="M6148 7055 c-105 -29 -189 -86 -250 -169 -33 -45 -36 -81 -9 -96 16
-8 26 -2 61 40 23 28 46 50 51 50 5 0 9 -21 9 -48 0 -26 7 -57 15 -69 25 -35
78 -62 136 -69 64 -7 101 7 143 56 21 26 26 42 26 89 0 36 -6 65 -16 80 l-17
24 67 -5 c62 -4 69 -7 107 -45 l41 -40 -45 -47 c-25 -25 -65 -57 -89 -71 -24
-14 -39 -25 -34 -25 20 0 93 50 129 89 37 40 39 40 67 26 25 -13 29 -13 44 4
22 24 20 56 -6 102 -45 80 -177 140 -306 138 -42 0 -98 -7 -124 -14z"/>
<path d="M4563 7035 c-67 -26 -92 -40 -169 -97 -68 -51 -94 -109 -60 -137 15
-13 57 3 95 35 10 9 46 32 81 51 51 29 62 32 55 17 -39 -96 -20 -163 60 -206
82 -43 130 -41 185 8 40 36 40 37 40 111 0 50 -5 81 -16 98 l-16 24 39 -11
c49 -13 80 -29 149 -78 32 -22 62 -40 68 -39 6 0 5 3 -2 6 -10 4 -8 9 7 20 32
22 25 45 -26 85 -150 117 -202 138 -343 137 -65 0 -100 -6 -147 -24z"/>
<path d="M4430 6805 c0 -8 110 -78 114 -74 3 2 -22 21 -55 41 -32 21 -59 35
-59 33z"/>
<path d="M4998 6760 c-36 -15 -77 -30 -90 -33 -21 -4 -21 -4 -2 -6 18 -1 159
52 173 65 11 11 -21 0 -81 -26z"/>
<path d="M5915 6762 c12 -12 137 -64 142 -59 2 2 -27 17 -64 33 -87 38 -90 39
-78 26z"/>
<path d="M4848 6713 c6 -2 18 -2 25 0 6 3 1 5 -13 5 -14 0 -19 -2 -12 -5z"/>
<path d="M6295 6700 c-13 -6 -15 -9 -5 -9 8 0 22 4 30 9 18 12 2 12 -25 0z"/>
<path d="M3088 6600 c-76 -50 -97 -100 -58 -135 17 -15 22 -16 39 -4 100 74
111 79 135 73 23 -5 146 -121 154 -144 2 -6 -7 -10 -20 -9 -19 0 -20 1 -5 8
28 11 -100 131 -140 130 -15 0 -23 -3 -17 -5 7 -3 8 -24 1 -70 -7 -52 -6 -76
7 -117 8 -29 18 -63 21 -77 2 -14 9 -45 14 -70 5 -25 10 -47 11 -50 2 -3 5
-10 7 -17 8 -21 40 -25 76 -9 43 17 64 48 71 101 3 22 3 31 0 20 -9 -31 -45
-65 -68 -64 -18 1 -17 2 4 8 24 7 34 20 62 85 7 16 18 31 24 33 6 2 23 -41 39
-104 34 -126 58 -160 99 -141 38 17 40 38 11 145 -34 130 -72 204 -159 304
-119 139 -213 172 -308 109z m175 -345 c3 -36 2 -52 -3 -40 -8 19 -14 113 -6
104 2 -2 6 -31 9 -64z"/>
<path d="M5210 5923 c0 -22 37 -33 112 -33 42 -1 90 -8 113 -17 171 -67 258
-81 286 -46 8 9 39 27 69 40 30 14 63 32 72 40 51 46 -45 29 -139 -24 -56 -31
-70 -35 -116 -31 -29 3 -77 16 -107 30 -91 42 -290 71 -290 41z"/>
<path d="M3390 5854 c-46 -42 -51 -70 -19 -120 11 -19 23 -34 26 -34 2 0 -5
15 -16 34 -31 50 -27 79 16 115 47 39 73 39 118 0 65 -57 35 -130 -60 -148
-27 -5 -39 -9 -25 -10 50 -2 99 19 115 49 28 54 15 94 -42 132 -41 27 -68 22
-113 -18z"/>
<path d="M5210 5426 c-138 -33 -250 -70 -238 -78 9 -6 6 -8 -7 -4 -11 3 -33 8
-50 12 -16 4 -39 13 -50 20 -28 20 -48 17 -73 -9 -25 -26 -28 -47 -9 -66 10
-11 10 -13 0 -7 -7 4 -13 3 -13 -2 0 -21 44 -62 107 -100 37 -22 102 -73 143
-113 41 -40 91 -86 109 -102 19 -15 36 -37 38 -49 2 -12 8 -27 14 -35 9 -10 7
-13 -6 -13 -16 0 -16 -2 1 -27 23 -36 40 -53 52 -53 6 0 12 -3 14 -7 2 -5 29
-21 60 -36 48 -23 77 -29 161 -34 99 -5 106 -4 160 22 68 34 122 84 129 119 6
30 1 32 -22 11 -23 -21 -123 -55 -157 -54 -18 0 -8 5 27 13 65 14 122 40 145
66 24 27 11 60 -23 60 -24 1 -22 4 20 25 25 14 63 46 85 71 39 48 113 108 170
137 41 22 65 47 59 62 -2 7 9 25 25 41 36 34 36 49 3 70 -22 15 -27 15 -40 2
-17 -17 -53 -13 -183 22 -76 20 -91 21 -180 11 -85 -10 -107 -9 -196 9 -134
28 -209 32 -275 16z m-193 -92 c-3 -3 -12 -4 -19 -1 -8 3 -5 6 6 6 11 1 17 -2
13 -5z m966 -1 c-7 -2 -19 -2 -25 0 -7 3 -2 5 12 5 14 0 19 -2 13 -5z m-920
-10 c-7 -2 -19 -2 -25 0 -7 3 -2 5 12 5 14 0 19 -2 13 -5z m870 0 c-7 -2 -21
-2 -30 0 -10 3 -4 5 12 5 17 0 24 -2 18 -5z m-810 -10 c-7 -2 -19 -2 -25 0 -7
3 -2 5 12 5 14 0 19 -2 13 -5z m750 0 c-7 -2 -19 -2 -25 0 -7 3 -2 5 12 5 14
0 19 -2 13 -5z m-696 -9 c-3 -3 -12 -4 -19 -1 -8 3 -5 6 6 6 11 1 17 -2 13 -5z
m646 -1 c-7 -2 -21 -2 -30 0 -10 3 -4 5 12 5 17 0 24 -2 18 -5z m-565 -10
c-10 -2 -28 -2 -40 0 -13 2 -5 4 17 4 22 1 32 -1 23 -4z m500 0 c-10 -2 -26
-2 -35 0 -10 3 -2 5 17 5 19 0 27 -2 18 -5z m-351 -10 c-20 -2 -52 -2 -70 0
-17 2 0 4 38 4 39 0 53 -2 32 -4z m281 0 c-10 -2 -28 -2 -40 0 -13 2 -5 4 17
4 22 1 32 -1 23 -4z m-808 -18 c14 -8 21 -14 15 -14 -5 0 -21 6 -35 14 -14 8
-20 14 -15 14 6 0 21 -6 35 -14z m703 8 c-13 -2 -33 -2 -45 0 -13 2 -3 4 22 4
25 0 35 -2 23 -4z m-556 -59 c-3 -3 -12 -4 -19 -1 -8 3 -5 6 6 6 11 1 17 -2
13 -5z m50 -10 c-3 -3 -12 -4 -19 -1 -8 3 -5 6 6 6 11 1 17 -2 13 -5z m71 -11
c-10 -2 -26 -2 -35 0 -10 3 -2 5 17 5 19 0 27 -2 18 -5z m85 -10 c-7 -2 -21
-2 -30 0 -10 3 -4 5 12 5 17 0 24 -2 18 -5z m584 -9 c-3 -3 -12 -4 -19 -1 -8
3 -5 6 6 6 11 1 17 -2 13 -5z m-444 -11 c-7 -2 -21 -2 -30 0 -10 3 -4 5 12 5
17 0 24 -2 18 -5z m385 0 c-10 -2 -26 -2 -35 0 -10 3 -2 5 17 5 19 0 27 -2 18
-5z m-270 -10 c-16 -2 -40 -2 -55 0 -16 2 -3 4 27 4 30 0 43 -2 28 -4z m185 0
c-7 -2 -21 -2 -30 0 -10 3 -4 5 12 5 17 0 24 -2 18 -5z m3 -208 c-11 -8 -25
-15 -30 -15 -6 1 0 7 14 15 32 19 40 18 16 0z m-269 -21 c-3 -3 -12 -4 -19 -1
-8 3 -5 6 6 6 11 1 17 -2 13 -5z m220 0 c-3 -3 -12 -4 -19 -1 -8 3 -5 6 6 6
11 1 17 -2 13 -5z m-89 -11 c-15 -2 -42 -2 -60 0 -18 2 -6 4 27 4 33 0 48 -2
33 -4z m-211 -69 c-3 -3 -12 -4 -19 -1 -8 3 -5 6 6 6 11 1 17 -2 13 -5z m122
-20 c8 -7 -64 -2 -89 6 -16 6 -6 7 30 3 30 -3 57 -7 59 -9z m74 -11 c-13 -2
-33 -2 -45 0 -13 2 -3 4 22 4 25 0 35 -2 23 -4z"/>
</g>
</svg>
