<?xml version="1.0"?>
<svg width="1024" height="1024" xmlns="http://www.w3.org/2000/svg" xmlns:svg="http://www.w3.org/2000/svg" version="1.1">
 <g class="layer">
  <title>Layer 1</title>
  <path d="m-1,0c337.92,0 675.84,0 1024,0c0,337.92 0,675.84 0,1024c-337.92,0 -675.84,0 -1024,0c0,-337.92 0,-675.84 0,-1024z" fill="#858585" id="svg_1"/>
  <path d="m0,0c1.02,-0.02 2.05,-0.04 3.1,-0.06c8.46,0.07 15.75,2.33 23.45,5.74c3.29,1.16 5.07,-0.03 8.33,-1.18c2.87,-0.3 5.73,-0.29 8.62,-0.25c0.8,0.01 1.6,0.02 2.43,0.02c36.87,0.69 72.41,21.45 98.62,46.05c1.99,1.87 4.04,3.62 6.14,5.37c4,3.48 7.62,7.32 11.25,11.19c0.62,0.66 1.24,1.32 1.88,2c3.09,3.33 5.82,6.61 8.31,10.43c3.66,4.88 8.65,7.19 13.94,9.98c23.22,12.25 44.84,27.86 64.95,44.67c1.73,1.44 3.48,2.86 5.23,4.29c7.53,6.21 14.51,12.93 21.44,19.81c0.87,0.86 1.74,1.73 2.64,2.62c5.19,5.21 9.97,10.62 14.57,16.36c1.57,1.95 3.16,3.86 4.8,5.75c28.16,32.28 49.9,71.45 64.18,111.71c0.26,0.74 0.53,1.48 0.8,2.24c13.79,38.56 20.32,78.89 21.2,119.76c0.02,1.02 0.05,2.05 0.08,3.1c0.45,18.81 -0.91,37.25 -3.08,55.9c-0.21,1.76 -0.21,1.76 -0.41,3.56c-6.38,54.03 -27.57,105.88 -57.16,151.23c-1.42,2.19 -2.82,4.39 -4.21,6.6c-8.8,13.93 -18.6,27.01 -29.22,39.61c-0.48,0.56 -0.95,1.13 -1.44,1.71c-5.63,6.68 -11.25,13.25 -17.56,19.29c-2.53,2.51 -5.03,5.03 -7.51,7.58c-6.17,6.29 -12.58,11.95 -19.49,17.42c-1.16,0.93 -2.32,1.87 -3.47,2.8c-3.82,3.1 -7.67,6.16 -11.53,9.2c-0.63,0.49 -1.26,0.99 -1.9,1.5c-47.41,37.24 -106.96,60.04 -166.09,70.15c-1.37,0.24 -2.75,0.48 -4.13,0.73c-73.52,13.29 -150.86,-0.32 -217.89,-32.38c-0.87,-0.41 -1.75,-0.83 -2.66,-1.26c-29.92,-14.16 -57.14,-33.06 -82.51,-54.22c-1.7,-1.41 -3.41,-2.8 -5.12,-4.19c-7.94,-6.52 -15.24,-13.66 -22.52,-20.89c-0.49,-0.49 -0.97,-0.97 -1.48,-1.47c-6.7,-6.64 -12.82,-13.6 -18.71,-20.97c-0.87,-1.03 -1.75,-2.05 -2.64,-3.07c-13.37,-15.39 -23.34,-33.27 -33.36,-50.93c-0.52,-0.91 -1.04,-1.83 -1.57,-2.77c-8.72,-15.32 -16.27,-31.13 -23.43,-47.23c-0.59,-1.32 -0.59,-1.32 -1.2,-2.68c-19.59,-44.06 -26.03,-94.27 -25.98,-142.07c0,-0.87 0,-1.75 0,-2.64c0.01,-12.54 0.37,-24.92 1.92,-37.37c0.26,-2.17 0.45,-4.33 0.63,-6.5c6.45,-74.59 41.4,-147.95 90.63,-203.74c0.66,-0.74 1.31,-1.48 1.97,-2.24c5.62,-6.3 11.44,-12.35 17.41,-18.32c0.87,-0.88 1.74,-1.76 2.63,-2.67c6.02,-6.03 12.34,-11.46 18.99,-16.77c1.31,-1.08 2.61,-2.17 3.91,-3.27c17.81,-14.85 37.58,-28.2 57.88,-39.41c8.97,-4.95 15.12,-9.73 21.76,-17.64c9.05,-10.45 19.32,-19.54 30.45,-27.68c0.66,-0.49 1.32,-0.97 2,-1.47c38.6,-28.4 81.96,-42.53 130.13,-43.03z" fill="#19150F" id="svg_2" transform="translate(507.125,85.5)"/>
  <path d="m548,142c0.69,0.55 0.69,0.55 1.4,1.1c8.53,6.57 17.25,11.42 27.29,15.28c14.68,5.85 27.11,12.56 39.31,22.62c0.7,0.56 1.4,1.11 2.12,1.69c3.78,3.1 6.93,6.54 10.09,10.27c1.72,1.96 3.52,3.7 5.42,5.48c23.46,23.38 38.62,55.78 42.37,88.56c-0.66,-0.68 -1.32,-1.36 -2,-2.06c-1,-0.99 -2,-1.96 -3,-2.94c-0.84,-0.83 -0.84,-0.83 -1.69,-1.68c-12.43,-11.68 -27.66,-15.06 -44.21,-14.61c-5.28,0.24 -10.49,0.8 -15.72,1.54c-0.81,0.11 -1.61,0.22 -2.44,0.33c-6.48,1.03 -13.51,2.7 -18,7.73c-1.22,3.49 -1.41,6.02 -0.94,9.69c1.87,2.36 3.32,3.66 6,5c4.31,0.23 7.97,0.1 12.15,-0.97c4.97,-1.15 9.82,-1.48 14.91,-1.65c1.38,-0.06 1.38,-0.06 2.78,-0.11c1.86,-0.06 3.71,-0.12 5.57,-0.18c2.29,-0.08 4.58,-0.21 6.88,-0.36c11.34,-0.49 22.74,2.01 32.52,7.99c3.02,1.76 4.9,1.12 8.19,0.28c3.15,6.3 2.43,16.04 3,23c0.09,1.14 0.19,2.28 0.29,3.45c0.78,9.84 1.33,19.68 1.71,29.55c0.03,0.86 0.07,1.71 0.1,2.59c1.59,43.39 0.26,92.85 -14.35,134.22c-0.3,0.86 -0.59,1.72 -0.89,2.61c-2.93,8.23 -6.65,15.93 -10.86,23.58c-0.56,1.05 -1.13,2.11 -1.71,3.2c-6.02,10.82 -13.71,20.33 -22.09,29.41c-1.46,1.58 -2.89,3.19 -4.31,4.81c-8.84,10.13 -18.52,19.34 -29.89,26.58c-0.97,0.63 -1.94,1.27 -2.95,1.92c-25.24,16.03 -49.62,22.51 -79.61,16.21c-23.03,-5.36 -43.99,-15.51 -63.52,-28.6c-1.91,-1.27 -3.83,-2.54 -5.75,-3.8c-19.25,-12.76 -36.06,-27.92 -48.17,-47.73c-0.62,-1.01 -1.24,-2.02 -1.87,-3.06c-5.2,-8.66 -9.05,-17.57 -12.63,-27c-0.56,-1.46 -1.12,-2.91 -1.68,-4.37c-1.11,-2.87 -2.21,-5.74 -3.3,-8.61c-1.33,-3.47 -2.69,-6.93 -4.06,-10.39c-0.72,-1.81 -1.43,-3.63 -2.15,-5.44c-0.31,-0.79 -0.63,-1.57 -0.95,-2.37c-2.25,-5.81 -3.41,-11.61 -4.36,-17.76c-1.65,0 -3.3,0 -5,0c0.06,0.89 0.12,1.79 0.18,2.71c0.3,8.29 -0.21,14.47 -5.18,21.29c-3.5,3.69 -6.86,6.13 -12,6.44c-6.07,-0.06 -10.19,-3 -15,-6.44c-1.01,-0.72 -2.02,-1.44 -3.06,-2.19c-4.56,-4.02 -8.29,-8.97 -11.94,-13.81c-0.54,-0.7 -1.08,-1.4 -1.64,-2.12c-4.92,-6.64 -8.08,-13.53 -11.11,-21.19c-0.7,-1.7 -0.7,-1.7 -1.42,-3.44c-7.29,-18.12 -11.8,-39.68 -4.96,-58.61c3.32,-7.76 8.46,-12.41 16,-16.01c8.62,-1.73 13.77,-1.03 21.31,3.91c10.57,7.28 21.97,17.76 27.82,29.46c1.65,-0.33 3.3,-0.66 5,-1c0.07,-1.02 0.14,-2.04 0.21,-3.1c0.27,-3.86 0.56,-7.71 0.85,-11.57c0.13,-1.65 0.24,-3.31 0.36,-4.97c1.05,-15.44 3.95,-27.63 12.27,-40.92c6.34,-10.52 11.54,-21.14 16.31,-32.44c5.65,-13.19 11.29,-26.31 18,-39c0.37,-0.71 0.74,-1.42 1.12,-2.15c6.11,-11.61 13.05,-22.33 20.88,-32.85c0.66,-0.91 1.33,-1.82 2.01,-2.76c9.67,-12.71 21.05,-23.45 34.99,-31.24c0.7,-0.41 1.4,-0.81 2.12,-1.23c12.91,-7.44 26.08,-12.2 40.3,-16.5c17.58,-5.18 17.58,-5.18 32.58,-15.27z" fill="#D5834E" id="svg_3" transform="matrix(1 0 0 1 0 0)"/>
  <path d="m0,0c10.22,5.59 19.59,12.17 29,19c0.57,0.41 1.14,0.82 1.72,1.24c23.19,16.82 45.8,37.05 63.28,59.76c0.93,1.15 1.87,2.29 2.81,3.43c6.74,8.23 12.96,16.69 18.84,25.54c1.33,2 2.68,3.99 4.03,5.98c23.72,35.37 38.9,74.95 49.32,116.05c0.22,0.86 0.44,1.72 0.67,2.61c2.68,10.77 4.13,21.71 5.52,32.7c0.08,0.68 0.17,1.35 0.26,2.05c4.91,39.51 3.25,80.11 -5.84,118.95c-0.6,2.64 -1.13,5.3 -1.65,7.96c-4.97,24.82 -14.32,48.84 -24.96,71.73c-0.69,1.51 -0.69,1.51 -1.39,3.05c-5.41,11.8 -11.17,23.31 -17.73,34.51c-0.56,0.96 -1.12,1.91 -1.69,2.89c-0.52,0.86 -1.04,1.73 -1.57,2.62c-0.69,1.14 -0.69,1.14 -1.39,2.31c-0.41,0.53 -0.81,1.07 -1.23,1.62c-0.66,0 -1.32,0 -2,0c-0.72,-1.73 -1.44,-3.46 -2.16,-5.19c-0.46,-1.1 -0.92,-2.2 -1.39,-3.33c-0.93,-2.23 -1.86,-4.46 -2.78,-6.7c-8.05,-19.45 -16.66,-36.02 -28.78,-53.24c-14.81,-21.05 -25.06,-42.27 -25.08,-68.48c-0.01,-0.81 -0.02,-1.63 -0.03,-2.47c-0.02,-5.94 0.39,-11.79 0.93,-17.7c1.27,-13.86 1.69,-27.6 1.67,-41.51c-0.01,-1.15 -0.01,-2.29 -0.01,-3.46c-0.05,-17.17 -0.94,-33.6 -3.95,-50.53c-0.87,-4.98 -1.67,-9.96 -2.48,-14.94c-2.66,-16.25 -5.37,-32.49 -8.2,-48.71c-0.61,-3.47 -1.21,-6.95 -1.8,-10.43c-0.12,-0.67 -0.23,-1.34 -0.35,-2.03c-2.58,-15.25 -4.55,-30.58 -6.59,-45.9c-5.89,-44.23 -12.21,-88.92 -31.34,-129.7c-1.47,-3.16 -2.63,-6.35 -3.66,-9.68z" fill="#FEF3DF" id="svg_4" transform="translate(698,197)"/>
  <path d="m0,0c0,4.29 -2.01,7.57 -3.81,11.38c-9.74,21.19 -17.57,42.98 -23.19,65.62c-0.24,0.95 -0.48,1.89 -0.73,2.87c-7.93,31.76 -13.27,64.61 -16.75,97.15c-3.29,30.2 -7.6,60.88 -16.52,89.98c-0.31,1.06 -0.31,1.06 -0.63,2.14c-4.33,14.83 -10.87,29.09 -17.18,43.15c-5.76,12.83 -10.94,25.66 -15.31,39.03c-0.85,2.6 -1.72,5.19 -2.6,7.78c-1.53,4.6 -2.95,9.23 -4.28,13.9c-0.51,1.79 -0.51,1.79 -1.04,3.61c-4.19,17.85 -2.99,38.53 -0.68,56.63c1.87,15.3 3.55,34.52 -5.55,47.88c-3.67,3.99 -8.23,6.91 -12.73,9.88c-0.99,0.66 -1.98,1.32 -3,2c-10.94,-18.92 -19.61,-38.44 -27,-59c-0.34,-0.94 -0.68,-1.88 -1.03,-2.84c-20.05,-56.06 -26.06,-119.4 -15.97,-178.16c0.19,-1.13 0.37,-2.27 0.57,-3.43c2.71,-16.18 6.64,-31.89 11.43,-47.57c0.28,-0.91 0.55,-1.81 0.84,-2.74c15.69,-50.86 42.78,-100.08 80.16,-138.26c0.85,-0.87 1.71,-1.75 2.59,-2.65c2.47,-2.53 4.96,-5.05 7.45,-7.56c1,-1.01 1.99,-2.02 2.99,-3.03c6.64,-6.72 13.54,-12.92 20.97,-18.76c0.58,-0.47 1.16,-0.93 1.76,-1.41c6.98,-5.58 14.24,-10.77 21.55,-15.9c1.26,-0.88 1.26,-0.88 2.54,-1.78c4.96,-3.46 9.99,-6.75 15.15,-9.91z" fill="#FEF3DF" id="svg_5" transform="translate(316,198)"/>
  <path d="m0,0c3.17,3.07 6.14,6.26 9.06,9.56c31.48,35.16 79.2,68.25 127.59,71.31c1.1,0.04 2.21,0.09 3.35,0.13c0.71,0.03 1.41,0.05 2.14,0.08c24.6,0.82 46.03,-6.58 65.86,-21.08c-0.5,7.4 -1,14.8 -1.51,22.2c-0.8,11.58 -1.58,23.17 -2.35,34.75c-0.52,7.66 -1.03,15.31 -1.55,22.97c-0.33,4.84 -0.65,9.67 -0.97,14.51c-2.38,36.1 -2.38,36.1 -4.13,51.05c-0.11,0.94 -0.22,1.88 -0.33,2.85c-1.71,13.45 -6.17,26.21 -11.74,38.53c-1.33,2.93 -2.5,5.89 -3.67,8.89c-2.23,5.36 -4.89,10.42 -7.69,15.5c-0.4,0.74 -0.81,1.49 -1.23,2.26c-2.89,5.15 -6.18,9.85 -9.83,14.49c-3.13,-1.48 -4.97,-2.82 -7.19,-5.5c-2.62,-3.11 -5.3,-6.13 -8.06,-9.12c-3.56,-3.94 -6.87,-8.01 -10.12,-12.19c-11.19,-14.4 -11.19,-14.4 -24.6,-26.67c-3.81,-3.17 -7.25,-6.62 -10.72,-10.14c-4.94,-5.02 -9.93,-9.83 -15.31,-14.38c-4.48,-3.96 -8.92,-7.96 -13.26,-12.08c-7.4,-7 -15.03,-13.45 -23.11,-19.65c-3.45,-2.68 -6.83,-5.45 -10.18,-8.26c-2.35,-1.99 -2.35,-1.99 -4.59,-3.46c-17.32,-12.48 -23.98,-48.43 -30.36,-67.99c-0.31,-0.95 -0.63,-1.9 -0.95,-2.88c-4.76,-14.94 -5.92,-28.22 -5.3,-43.74c0.05,-1.76 0.11,-3.52 0.16,-5.28c0.05,-1.69 0.11,-3.38 0.17,-5.07c0.02,-0.78 0.05,-1.55 0.08,-2.35c0.17,-4.16 0.6,-8.13 1.34,-12.24c0.32,-9.05 0.07,-18.01 -1,-27z" fill="#D1804A" id="svg_6" transform="translate(394,529)"/>
  <path d="m0,0c4.17,4.18 6.75,9.63 9.45,14.83c0.55,1.05 0.55,1.05 1.1,2.12c2.49,5.06 2.49,5.06 2.09,7.75c-0.91,2.51 -2.23,3.64 -4.25,5.38c-0.64,0.57 -1.28,1.14 -1.94,1.72c-7.07,5.05 -15.37,7.72 -23.44,10.75c-26.11,9.85 -47.39,22.07 -68.06,41.03c-0.89,0.81 -1.78,1.62 -2.7,2.46c-6.73,6.13 -13.36,12.35 -19.98,18.61c-5.34,5.03 -10.74,9.99 -16.19,14.89c-2.18,1.86 -2.18,1.86 -3.13,4.04c-0.66,0 -1.32,0 -2,0c-0.23,0.56 -0.46,1.11 -0.7,1.68c-1.63,2.93 -3.69,5.07 -5.98,7.51c-4.4,4.74 -8.42,9.65 -12.32,14.81c-1.23,1.59 -2.46,3.17 -3.69,4.75c-5.67,7.32 -11.05,14.78 -16.1,22.53c-10.55,16.04 -22.37,29.73 -38.21,40.72c-1.57,1.12 -1.57,1.12 -3.18,2.27c-2.82,1.73 -2.82,1.73 -5.82,1.73c0,0.66 0,1.32 0,2c-1.68,1.29 -1.68,1.29 -3.87,2.63c-1.08,0.67 -1.08,0.67 -2.18,1.35c-1.95,1.02 -1.95,1.02 -3.95,1.02c-0.22,0.7 -0.45,1.4 -0.68,2.13c-1.32,2.87 -2.94,4.84 -5.02,7.19c-1.89,2.45 -3.12,5.14 -4.4,7.95c-0.9,1.73 -0.9,1.73 -2.9,3.73c-0.64,2.07 -0.64,2.07 -1,4c-0.66,0 -1.32,0 -2,0c-0.18,-5.52 0.49,-10.54 1.54,-15.95c0.24,-1.28 0.24,-1.28 0.49,-2.59c0.53,-2.76 1.06,-5.51 1.6,-8.27c0.18,-0.94 0.36,-1.88 0.55,-2.85c4.26,-22.07 8.88,-43.93 15.82,-65.34c0.26,-0.8 0.51,-1.6 0.77,-2.42c8.62,-27.05 22.36,-50.89 39.23,-73.58c0.41,-0.55 0.81,-1.09 1.23,-1.66c6.1,-8.25 12.68,-15.93 19.77,-23.34c0.52,-0.55 1.04,-1.1 1.58,-1.67c11.98,-12.69 25.36,-23.59 40.56,-32.26c1.36,-0.78 2.71,-1.56 4.06,-2.36c25.83,-15.11 85.13,-39.18 113.85,-19.29z" fill="#2B221A" id="svg_7" transform="translate(526.046875,101.41796875)"/>
  <path d="m0,0c1.8,2.7 2.38,3.98 3.04,7.01c0.19,0.81 0.37,1.61 0.56,2.45c0.19,0.88 0.39,1.76 0.59,2.67c2.59,11.27 5.69,22.37 8.86,33.49c1.68,5.95 3.31,11.92 4.95,17.88c0.68,2.47 1.36,4.94 2.05,7.41c1.21,4.39 2.41,8.78 3.59,13.18c11.29,41.71 26.69,82.04 42.17,122.33c7.31,19.04 14.11,38.24 20.75,57.52c0.27,0.78 0.55,1.57 0.83,2.38c0.77,2.24 1.54,4.47 2.3,6.71c0.24,0.67 0.47,1.35 0.71,2.05c1.6,4.69 1.6,4.69 1.6,6.92c-14.54,-0.19 -27.91,-2.51 -42,-6c-1.4,-0.34 -2.81,-0.68 -4.21,-1.02c-3.82,-0.92 -7.63,-1.87 -11.44,-2.84c-1.51,-0.38 -3.02,-0.76 -4.53,-1.13c-8.3,-2.04 -15.46,-3.98 -21.82,-10.01c-0.94,-0.79 -1.87,-1.58 -2.84,-2.39c-7.91,-7.54 -13.09,-15.98 -18.16,-25.61c-0.33,-0.62 -0.67,-1.25 -1.01,-1.89c-6.35,-11.95 -6.35,-11.95 -5.89,-18.07c1.72,-3.89 5.33,-5.75 8.81,-8c6.64,-4.38 16.61,-11.52 18.78,-19.6c-1.77,-6.28 -10.93,-10.24 -16.19,-13.44c-0.91,-0.56 -1.81,-1.11 -2.74,-1.69c-7.83,-4.79 -15.72,-9.46 -23.65,-14.08c-0.87,-0.51 -1.75,-1.02 -2.65,-1.55c-0.76,-0.45 -1.53,-0.89 -2.32,-1.35c-5.92,-3.68 -5.92,-3.68 -7.14,-7.33c-0.58,-10.7 0.25,-21.33 1.15,-31.98c0.96,-11.7 1.56,-23.41 2.15,-35.13c1.58,-31.01 1.58,-31.01 6.32,-35.39c1.35,-0.95 2.71,-1.89 4.08,-2.8c11.56,-8.54 20.29,-22.82 28.61,-34.36c1.54,-2.13 3.11,-4.24 4.69,-6.34z" fill="#4E1C1B" id="svg_8" transform="translate(378,594)"/>
  <path d="m0,0c-0.51,6.2 -1.17,12.35 -1.97,18.52c-1.9,15.58 -2.18,31.33 -2.72,47.01c-0.18,5.12 -0.39,10.24 -0.68,15.35c-0.16,3.17 -0.27,6.33 -0.38,9.5c-0.08,1.08 -0.15,2.17 -0.23,3.3c-0.1,4.48 -0.02,7.17 2.99,10.64c2.57,2.11 5.17,3.92 7.99,5.68c0.69,0.46 1.37,0.92 2.08,1.39c1.84,1.21 3.71,2.35 5.61,3.49c6.16,3.76 12.2,7.66 18.17,11.72c3.95,2.67 7.98,5.08 12.14,7.4c-4.3,5.69 -9.3,9.77 -14.97,14c-6.17,4.57 -6.17,4.57 -9.6,11.22c0.03,15.17 9.84,30.17 17.57,42.78c-6.95,-2.01 -13.06,-4.93 -19.37,-8.44c-0.96,-0.52 -1.91,-1.05 -2.9,-1.59c-9.48,-5.29 -18.65,-11.03 -27.73,-16.97c-0.69,-0.45 -1.37,-0.89 -2.08,-1.35c-16.02,-10.42 -31.02,-21.96 -45.02,-34.97c-2.6,-2.41 -5.24,-4.77 -7.9,-7.12c-8.53,-7.66 -16.6,-15.8 -24,-24.56c-0.81,-0.92 -1.61,-1.84 -2.45,-2.78c-12.92,-14.8 -25.01,-31.5 -33.55,-49.22c22.14,-11.51 45.29,-20.88 68.31,-30.46c3.43,-1.43 6.86,-2.87 10.29,-4.31c10.2,-4.27 20.42,-8.46 30.7,-12.53c5.35,-2.12 10.61,-4.4 15.8,-6.89c1.9,-0.81 1.9,-0.81 3.9,-0.81z" fill="#4F1C1B" id="svg_9" transform="translate(327,646)"/>
  <path d="m0,0c0.59,0.31 1.19,0.63 1.8,0.95c0.83,0.43 1.66,0.86 2.51,1.3c0.8,0.42 1.6,0.84 2.43,1.27c8.05,3.66 16.5,6.24 24.95,8.79c2.26,0.7 4.52,1.39 6.78,2.08c4.72,1.45 9.44,2.89 14.17,4.31c5.26,1.6 10.52,3.2 15.78,4.82c2.11,0.65 4.22,1.29 6.34,1.92c20.36,6.12 52.2,16.49 64.99,35.11c2.5,4.91 3.88,9.1 2.25,14.45c-1.68,2.44 -1.68,2.44 -3.87,5c-0.82,0.96 -1.63,1.92 -2.47,2.9c-0.43,0.51 -0.86,1.01 -1.31,1.53c-1.37,1.6 -2.73,3.21 -4.08,4.82c-14.44,17.24 -29.79,34.59 -47.39,48.69c-0.83,0.67 -0.83,0.67 -1.67,1.35c-2.06,1.58 -3.57,2.69 -6.21,2.76c-2.94,-1.55 -5.34,-3.62 -7.81,-5.8c-0.56,-0.48 -1.11,-0.96 -1.69,-1.46c-1.19,-1.04 -2.39,-2.08 -3.59,-3.13c-1.99,-1.73 -4.01,-3.44 -6.03,-5.14c-1.35,-1.15 -2.71,-2.3 -4.07,-3.46c-0.65,-0.54 -1.29,-1.08 -1.96,-1.64c-0.6,-0.52 -1.21,-1.04 -1.83,-1.57c-0.54,-0.46 -1.07,-0.91 -1.62,-1.38c-1.6,-1.68 -2.46,-3.36 -3.4,-5.47c0.57,-0.55 1.13,-1.11 1.71,-1.68c1.11,-1.09 1.11,-1.09 2.23,-2.19c0.73,-0.72 1.46,-1.44 2.21,-2.18c2.31,-2.44 2.81,-3.39 3.05,-6.76c-0.21,-3.35 -0.86,-5.25 -2.37,-8.22c-0.47,-0.94 -0.95,-1.89 -1.44,-2.86c-0.52,-1.01 -1.04,-2.01 -1.58,-3.05c-0.54,-1.05 -1.08,-2.11 -1.63,-3.2c-7.51,-14.58 -15.67,-28.78 -24.18,-42.8c-4.57,-7.54 -8.91,-15.19 -13.12,-22.93c-0.56,-1.02 -1.12,-2.04 -1.69,-3.09c-2.48,-4.59 -4.8,-8.98 -6.19,-14.04z" fill="#4E1C1B" id="svg_10" transform="translate(660,656)"/>
  <path d="m0,0c3.17,3.07 6.14,6.26 9.06,9.56c31.48,35.16 79.2,68.25 127.59,71.31c1.1,0.04 2.21,0.09 3.35,0.13c0.71,0.03 1.41,0.05 2.14,0.08c24.18,0.81 46.55,-6.26 65.86,-21.08c-0.11,2.44 -0.24,4.88 -0.37,7.31c-0.04,0.69 -0.07,1.38 -0.1,2.09c-0.21,3.67 -0.45,5.48 -2.53,8.6c-0.5,1.59 -0.95,3.2 -1.37,4.81c-3.52,11.93 -13.12,21.04 -23.63,27.19c-1.03,0.65 -2.06,1.3 -3.12,1.96c-8.56,5.29 -17.18,8.44 -26.88,11.04c-0.63,0.18 -1.26,0.36 -1.91,0.54c-17.07,3.72 -36.65,-0.16 -52.09,-7.54c-0.63,-0.3 -1.25,-0.59 -1.9,-0.9c-23.54,-11.19 -46.4,-26.79 -63.25,-46.92c-2.62,-3.09 -5.36,-6.07 -8.1,-9.05c-0.78,-0.86 -0.78,-0.86 -1.58,-1.74c-2.28,-2.48 -4.35,-4.51 -7.17,-6.39c-2.04,-0.22 -2.04,-0.22 -4,1c-4.59,6.17 -6.09,13.67 -8,21c-0.99,-0.33 -1.98,-0.66 -3,-1c0.12,-5.44 0.24,-10.89 0.37,-16.33c0.05,-1.85 0.09,-3.7 0.13,-5.55c0.06,-2.67 0.12,-5.34 0.18,-8c0.02,-0.82 0.04,-1.65 0.05,-2.49c0.11,-4.31 0.49,-8.38 1.27,-12.63c0.32,-9.05 0.07,-18.01 -1,-27z" fill="#A96235" id="svg_11" transform="translate(394,529)"/>
  <path d="m0,0c27.87,7.31 57.38,23 79,42c0.84,0.73 1.67,1.46 2.54,2.21c2.52,2.23 4.99,4.5 7.46,6.79c0.67,0.6 1.33,1.2 2.02,1.82c14.95,14.06 25.02,33.48 33.73,51.81c0.34,0.7 0.67,1.4 1.02,2.13c1.34,2.92 2.23,4.98 2.23,8.24c-4.37,0.65 -8.75,1.3 -13.12,1.94c-1.22,0.18 -2.44,0.36 -3.7,0.55c-15.92,2.32 -31.5,2.64 -47.55,2.57c-2.01,0 -4.02,-0.01 -6.03,-0.01c-4.87,-0.01 -9.73,-0.03 -14.6,-0.05c-1.07,-2.88 -2.13,-5.75 -3.2,-8.63c-0.92,-2.48 -1.84,-4.97 -2.76,-7.45c-3.96,-10.67 -3.96,-10.67 -5.81,-15.78c-2.6,-7.18 -5.28,-14.3 -8.13,-21.38c-6.04,-15.04 -11.75,-30.12 -16.85,-45.51c-0.26,-0.78 -0.52,-1.57 -0.79,-2.37c-0.74,-2.23 -1.47,-4.45 -2.19,-6.68c-0.22,-0.65 -0.44,-1.31 -0.66,-1.99c-1.09,-3.38 -2,-6.71 -2.61,-10.21z" fill="#FDF3DE" id="svg_12" transform="translate(443,759)"/>
  <path d="m0,0c0.33,0 0.66,0 1,0c1.61,8.34 3.14,16.68 4.47,25.06c3.51,22 7.62,43.79 12.33,65.56c0.21,0.99 0.42,1.98 0.64,3c0.4,1.86 0.81,3.71 1.21,5.57c0.86,4 1.61,7.69 1.35,11.81c-7.29,3.85 -14.7,6.97 -22.44,9.81c-1.16,0.43 -2.32,0.86 -3.52,1.3c-8.4,3.04 -16.86,5.82 -25.42,8.39c-1.6,0.49 -1.6,0.49 -3.25,0.99c-7.39,2.16 -14.74,3.51 -22.37,4.51c-0.3,-0.82 -0.6,-1.65 -0.91,-2.5c-4.08,-11.04 -8.57,-22.49 -15.15,-32.31c-1.94,-3.19 -1.94,-3.19 -1.71,-5.13c0.85,-2.27 1.9,-4.17 3.18,-6.23c0.74,-1.2 0.74,-1.2 1.49,-2.43c0.53,-0.85 1.06,-1.71 1.6,-2.59c4.06,-6.66 7.99,-13.35 11.62,-20.25c0.37,-0.69 0.74,-1.38 1.11,-2.09c1.41,-2.7 2.72,-5.32 3.7,-8.2c1.44,-3.06 3.29,-4.2 6.07,-6.08c18.35,-12.79 30.81,-28.28 43.61,-46.38c0.46,-0.6 0.92,-1.2 1.39,-1.81z" fill="#FDF3DE" id="svg_13" transform="translate(638,735)"/>
  <path d="m0,0c2.9,2.86 5.69,5.73 8.32,8.84c3,3.47 6.2,6.63 9.53,9.79c8.15,7.78 14.01,15.39 19.15,25.37c0.48,0.92 0.96,1.84 1.45,2.79c2.22,4.24 4.43,8.49 6.6,12.76c2.47,4.88 4.95,9.61 8.05,14.12c12.57,18.51 13.56,43.45 13.9,65.33c-5.41,-3.44 -10.56,-7.14 -15.62,-11.06c-0.56,-0.44 -1.12,-0.87 -1.7,-1.32c-0.82,-0.63 -0.82,-0.63 -1.65,-1.28c-6.43,-5.31 -6.43,-5.31 -14.03,-8.34c2.06,-4.58 5.08,-8.62 7.99,-12.69c2.09,-3.1 3.02,-4.91 2.9,-8.69c-0.6,-2.77 -0.6,-2.77 -2.89,-3.62c-2.92,-0.5 -2.92,-0.5 -6,0c-2.03,2.19 -2.03,2.19 -4,5c-1.07,1.46 -1.07,1.46 -2.16,2.95c-0.78,1.1 -1.56,2.2 -2.34,3.3c-0.43,0.6 -0.86,1.2 -1.3,1.82c-2.4,3.38 -4.79,6.77 -7.17,10.17c-19.12,27.31 -19.12,27.31 -30.03,36.76c-0.66,0 -1.32,0 -2,0c0.42,-5.05 1.12,-9.73 2.44,-14.62c5.39,-20.99 5.54,-43.45 5.89,-65.01c0.02,-0.85 0.03,-1.69 0.04,-2.56c0.02,-0.84 0.03,-1.68 0.05,-2.55c0.4,-22.5 2.49,-44.87 4.58,-67.26z" fill="#FCF2DE" id="svg_14" transform="translate(610,611)"/>
  <path d="m0,0c4.3,-0.31 7.1,0.35 10.99,2.14c15.04,6.41 32.87,7.46 49.01,7.86c0.92,0.03 1.84,0.05 2.79,0.08c14.4,0.38 28.03,-0.63 42.21,-3.08c1.77,-0.29 3.54,-0.58 5.31,-0.87c4.23,-0.69 8.46,-1.4 12.69,-2.13c0.33,-0.99 0.66,-1.98 1,-3c1.98,0.33 3.96,0.66 6,1c0.69,1.81 0.69,1.81 1,4c-0.98,1.02 -1.98,2.02 -3,3c-0.18,1.2 -0.18,1.2 -0.36,2.42c-0.64,2.58 -0.64,2.58 -2.32,4.1c-0.72,0.43 -1.45,0.85 -2.19,1.29c-0.82,0.51 -1.63,1.02 -2.47,1.54c-0.88,0.54 -1.76,1.09 -2.66,1.65c-5.9,3.96 -11.2,8.05 -16.12,13.19c-4.2,4.36 -8.39,7.29 -13.88,9.81c1.98,-0.33 3.96,-0.66 6,-1c0.75,2.25 0.75,2.25 1,5c-3.34,4.94 -9.19,6.43 -14.78,7.56c-10.49,1.44 -20.31,0.83 -30.53,-1.87c-0.81,-0.22 -1.61,-0.43 -2.44,-0.65c-7.36,-2.1 -7.36,-2.1 -10.25,-5.04c-0.25,-2.69 -0.25,-2.69 0,-5c-0.56,-0.06 -1.11,-0.12 -1.69,-0.19c-3.32,-1.16 -4.91,-3.24 -7.31,-5.81c-7.04,-7.41 -14.41,-13.69 -23.44,-18.56c-6.27,-3.57 -6.27,-3.57 -8.06,-6.94c-0.7,-4.87 0.68,-6.56 3.5,-10.5z" fill="#C35832" id="svg_15" transform="translate(480,486)"/>
  <path d="m0,0c3.14,2.88 5.1,5.67 7.06,9.44c1.48,2.81 2.91,5.52 4.69,8.16c1.25,2.4 1.25,2.4 1.15,4.5c-1.1,2.32 -2.43,3.62 -4.34,5.34c-4.32,4.19 -5.63,7.4 -6.25,13.37c0.07,3.25 0.35,4.75 2.35,7.33c2.36,2.11 4.79,3.99 7.34,5.86c1.61,1.26 3.21,2.53 4.81,3.81c0.83,0.65 1.65,1.3 2.5,1.97c3.65,3.02 7.12,6.21 10.58,9.45c2.6,2.43 5.21,4.7 8.11,6.77c-5.39,14.36 -35.18,25.65 -48.03,32.14c-1.97,0.86 -1.97,0.86 -3.97,0.86c-5.74,-23.03 -10.27,-46.39 -14.44,-69.75c-0.13,-0.73 -0.26,-1.46 -0.4,-2.21c-0.37,-2.07 -0.73,-4.14 -1.09,-6.21c-0.31,-1.77 -0.31,-1.77 -0.63,-3.57c-0.42,-3.13 -0.52,-6.1 -0.44,-9.26c1.05,0.78 2.1,1.57 3.19,2.38c0.72,0.53 1.45,1.07 2.19,1.62c1.98,1.51 3.89,3.04 5.8,4.63c0.84,0.67 0.84,0.67 1.69,1.37c1.11,0.9 2.21,1.82 3.3,2.75c2.89,2.32 4.77,3.24 8.48,3.73c4.37,-0.55 4.37,-0.55 7.35,-3.48c0.52,-2.99 0.42,-5.91 0.31,-8.94c-0.01,-0.85 -0.03,-1.69 -0.04,-2.57c-0.15,-6.52 -0.55,-13.01 -1.27,-19.49z" fill="#4E1C1B" id="svg_16" transform="translate(686,730)"/>
  <path d="m0,0c3.88,3.36 6.76,6.16 7.44,11.38c-0.44,3.62 -0.44,3.62 -2.38,6.56c-4.92,3.31 -9.96,2.44 -15.65,1.4c-1.25,-0.27 -2.5,-0.55 -3.79,-0.84c-9.39,-1.8 -18.78,-1.84 -28.31,-1.87c-1.11,-0.02 -1.11,-0.02 -2.25,-0.03c-18.67,-0.15 -35.97,2.99 -51.39,14.3c-1.67,1.1 -1.67,1.1 -3.67,1.1c-0.33,0.99 -0.66,1.98 -1,3c-1.67,0.04 -3.33,0.04 -5,0c-1,-1 -1,-1 -1.56,-3.87c0.14,-7.11 6.26,-12.82 10.98,-17.56c25.59,-22.41 65.35,-23.96 96.58,-13.57z" fill="#17130D" id="svg_17" transform="translate(516,271)"/>
  <path d="m0,0c1.65,0.33 3.3,0.66 5,1c-0.73,6.83 -2.88,12.88 -5.19,19.31c-5.74,26.08 7.37,56.58 16.13,80.66c2.87,8.19 5.51,18.53 1.75,26.84c-2.66,4 -6.88,5.76 -11.07,7.85c-2.87,1.47 -5.15,3.29 -7.62,5.34c-5.06,3.22 -9.17,3.54 -15,3c-3.06,-0.76 -5.98,-1.84 -8.94,-2.94c-7.44,-2.59 -14.21,-3.75 -22.1,-3.75c-7.68,-0.05 -12.58,-3.17 -17.96,-8.31c-2.81,-4.48 -2.72,-9.89 -2,-15c1.21,-3.64 2.56,-7.02 5,-10c2.61,-0.84 2.61,-0.84 5,-1c0.33,0.33 0.66,0.66 1,1c-0.7,6.4 -0.7,6.4 -2,9c-0.15,1.83 -0.22,3.67 -0.25,5.5c-0.03,0.98 -0.05,1.96 -0.08,2.97c0.11,0.83 0.22,1.67 0.33,2.53c3.61,2.41 5.21,2.16 9.5,2.19c9.17,0.29 17.15,3.59 25.54,7.07c4.9,1.85 9.77,2.63 14.96,1.74c2.45,-1.28 4.57,-2.75 6.79,-4.4c3.21,-2.32 6.65,-3.88 10.21,-5.6c1.3,-1.09 1.3,-1.09 1.3,-3.73c-0.1,-6.07 -2.29,-11.84 -4.05,-17.58c-0.35,-1.17 -0.7,-2.35 -1.05,-3.56c-1.58,-5.21 -3.21,-10.32 -5.3,-15.36c-2.01,-4.84 -3.32,-9.73 -4.53,-14.83c-0.2,-0.84 -0.4,-1.67 -0.61,-2.53c-5.52,-22.73 -8.44,-44.51 4.07,-65.57c0.38,-0.6 0.77,-1.21 1.17,-1.84z" fill="#15110C" id="svg_18" transform="translate(578,309)"/>
  <path d="m492.32,322.25c2.32,1.48 4.49,3.07 6.68,4.75c0.92,0.65 1.84,1.31 2.78,1.99c1.38,1.02 1.38,1.02 2.79,2.07c0.84,0.63 1.69,1.26 2.56,1.91c1.87,2.03 1.87,2.03 2.15,4.77c-0.14,1.12 -0.14,1.12 -0.28,2.26c-3.5,0.91 -5.32,1.33 -8.64,-0.3c-0.86,-0.62 -1.72,-1.25 -2.61,-1.89c-5.04,-3.46 -9.99,-5.8 -15.75,-7.81c0.49,0.49 0.97,0.99 1.46,1.5c2.09,3.38 2.16,6.51 2.17,10.37c0,0.72 0,1.44 0.01,2.18c-0.11,3.24 -0.37,5.53 -2.14,8.29c-1.77,1.51 -3.41,2.63 -5.5,3.66c-0.99,0.49 -0.99,0.49 -2,1c-7,0.56 -12.25,-1.08 -17.93,-5.07c-2.41,-2.25 -3.02,-3.11 -3.2,-6.39c0,-0.97 0.01,-1.93 0.01,-2.92c-0.01,-1.43 -0.01,-1.43 -0.01,-2.9c0.12,-2.41 0.45,-4.42 1.13,-6.72c-0.96,0.55 -1.92,1.1 -2.92,1.68c-1.27,0.73 -2.55,1.46 -3.83,2.19c-0.63,0.37 -1.26,0.73 -1.92,1.11c-9.25,5.3 -9.25,5.3 -14.33,5.02c0.24,-4.06 0.5,-6.39 3.13,-9.57c0.95,-0.8 1.9,-1.61 2.87,-2.43c0.44,-0.46 0.88,-0.92 1.33,-1.4c13.21,-13.15 35.66,-16.19 51.99,-7.35z" fill="#15110C" id="svg_19" transform="matrix(1 0 0 1 0 0)"/>
  <path d="m0,0c4.15,3.5 7.01,6.27 8.31,11.69c0.13,3.37 0.13,3.37 -1.87,6.37c-4.88,-0.42 -6.78,-2.45 -10,-6c-2.68,-2.92 -4.12,-4.29 -8,-5c-1.58,-0.06 -3.17,-0.08 -4.75,-0.06c-1.2,0.01 -1.2,0.01 -2.42,0.03c-0.61,0.01 -1.21,0.02 -1.83,0.03c0.66,0.99 1.32,1.98 2,3c0.73,4.85 1.16,9.88 -1.24,14.28c-2.7,3.17 -5.66,6.4 -9.93,7.06c-7.67,0.12 -13.44,-1.52 -19.4,-6.46c-2.12,-4.24 -1.76,-8.22 -1.43,-12.88c-3.58,2.68 -6.32,5.43 -9,9c-1.32,-0.33 -2.64,-0.66 -4,-1c-0.63,-4.19 0.05,-6.57 2.43,-9.93c14.39,-17.71 41.79,-23.99 61.13,-10.13z" fill="#16120D" id="svg_20" transform="translate(651.5625,323.9375)"/>
  <path d="m0,0c6.11,5.51 8.53,12.75 9.42,20.8c1.02,20.51 -3.66,53.36 -17.42,69.33c-2.74,2.92 -5.51,4.92 -9,6.87c0.29,-3.5 0.58,-7 0.87,-10.5c0.08,-0.96 0.16,-1.93 0.24,-2.92c0.49,-5.76 1.14,-11.46 1.93,-17.19c1.19,-9.03 1.37,-18.04 1.52,-27.14c0.57,-30.42 0.57,-30.42 5.44,-38.25c2.67,-1.34 4.03,-1.48 7,-1z" fill="#B86D3C" id="svg_21" transform="translate(703,354)"/>
  <path d="m0,0c3.27,0.24 5.42,1.04 8.37,2.39c15.03,6.41 32.86,7.46 49.01,7.86c0.92,0.03 1.84,0.05 2.79,0.08c14.39,0.38 28.03,-0.63 42.21,-3.08c1.76,-0.29 3.53,-0.58 5.3,-0.87c4.24,-0.69 8.47,-1.4 12.7,-2.13c0.32,-0.99 0.65,-1.98 1,-3c2.96,0.5 2.96,0.5 6,1c0.32,1.32 0.65,2.64 1,4c-5.17,4.99 -10.75,7.24 -17.44,9.69c-1.08,0.39 -2.16,0.79 -3.27,1.19c-8.19,2.91 -15.56,4.78 -24.29,5.12c-1.06,0.07 -1.06,0.07 -2.14,0.14c-13.36,0.8 -26.5,-0.69 -39.74,-2.33c-0.83,-0.1 -1.65,-0.19 -2.51,-0.29c-15.46,-1.87 -29.57,-5.53 -43.62,-12.52c1.03,-6.91 1.03,-6.91 4.63,-7.25z" fill="#15110C" id="svg_22" transform="translate(482.625,485.75)"/>
  <path d="m0,0c1.12,0.08 2.25,0.16 3.4,0.24c2.75,0.34 5.09,0.8 7.74,1.49c7.3,1.7 14.84,1.01 22.27,0.79c8.61,-0.13 17.79,0.24 25.65,4.17c1.54,0.22 3.08,0.41 4.63,0.56c0.81,0.08 1.63,0.17 2.47,0.25c0.63,0.06 1.26,0.13 1.9,0.19c0,0.66 0,1.32 0,2c-7,1.93 -14.02,3.43 -21.18,4.62c-0.74,0.13 -1.48,0.25 -2.23,0.37c-9.06,1.47 -17.85,2.18 -27.02,2.13c-1.06,0 -2.12,-0.01 -3.21,-0.01c-3.12,-0.03 -6.24,-0.06 -9.36,-0.11c-1.24,-0.02 -1.24,-0.02 -2.51,-0.04c-15,-0.32 -30.12,-2.58 -44.49,-6.96c2.42,-2.42 4.1,-2.77 7.39,-3.69c1.08,-0.31 2.17,-0.61 3.28,-0.93c1.14,-0.31 2.28,-0.62 3.46,-0.94c1.11,-0.32 2.23,-0.64 3.38,-0.96c8.33,-2.32 15.74,-3.84 24.43,-3.17z" fill="#C75932" id="svg_23" transform="translate(534.9375,480.3125)"/>
  <path d="m0,0c0.33,0 0.66,0 1,0c-0.8,8.51 -1.83,16.98 -2.89,25.46c-4.45,36.24 -6.31,80.02 13.2,112.56c0.56,0.98 1.11,1.97 1.69,2.98c-0.33,0.66 -0.66,1.32 -1,2c-12.7,-10.8 -20.8,-21.75 -25,-38c-0.35,-1.2 -0.7,-2.4 -1.07,-3.63c-1.24,-5.05 -1.23,-10 -1.18,-15.18c0.01,-1.02 0.01,-2.03 0.02,-3.08c0.33,-23.6 4.42,-47.52 11.23,-70.11c0.38,-1.25 0.75,-2.5 1.14,-3.79c0.93,-3.07 1.89,-6.14 2.86,-9.21z" fill="#2B221A" id="svg_24" transform="translate(699,495)"/>
  <path d="m0,0c3.83,3.22 7.56,6.5 11.23,9.9c6.87,6.38 14.02,12.34 21.38,18.17c6.96,5.58 13.46,11.59 19.95,17.71c3.07,2.89 6.2,5.68 9.39,8.43c2.86,2.5 5.68,5.05 8.49,7.6c0.53,0.48 1.06,0.96 1.61,1.46c3.83,3.5 3.83,3.5 4.95,5.73c-4.06,-1.48 -7.56,-3.46 -11.25,-5.69c-12.67,-7.37 -26.09,-11.97 -40.17,-15.91c-0.94,-0.27 -1.88,-0.54 -2.85,-0.82c-0.84,-0.23 -1.68,-0.47 -2.55,-0.71c-3.3,-1.32 -4.71,-2.81 -6.14,-6.05c-0.28,-0.84 -0.55,-1.68 -0.84,-2.55c-0.47,-1.41 -0.47,-1.41 -0.95,-2.85c-0.33,-1.01 -0.66,-2.01 -1,-3.04c-2.77,-8.25 -5.73,-16.33 -9.17,-24.33c-2.08,-4.87 -2.08,-4.87 -2.08,-7.05z" fill="#FAF2DE" id="svg_25" transform="translate(418,699)"/>
  <path d="m0,0c0.33,0 0.66,0 1,0c0.52,32.8 -5.52,64.63 -25.34,91.38c-0.89,1.21 -1.77,2.41 -2.66,3.62c-0.55,0.74 -1.1,1.48 -1.67,2.25c-4.47,6.15 -7.89,12.48 -11.08,19.38c-0.47,0.98 -0.94,1.96 -1.42,2.98c-2.53,5.39 -4.83,10.78 -6.83,16.39c-4.88,-16.89 12.51,-43.05 19.65,-57.81c9.41,-19.69 16.56,-40.31 22.59,-61.25c1.66,-5.75 3.6,-11.36 5.76,-16.94z" fill="#2B231A" id="svg_26" transform="translate(330,495)"/>
  <path d="m0,0c15.97,11.23 25.54,30.33 29,49.13c-0.33,3.44 -0.54,4.53 -3,7c-2.44,0.43 -2.44,0.43 -5,0c-3.24,-4.24 -4.35,-9.12 -5.69,-14.19c-0.22,-0.82 -0.45,-1.64 -0.68,-2.48c-1.63,-6.03 -1.63,-6.03 -1.63,-8.33c-1.98,0.44 -1.98,0.44 -4,2c-0.97,2.03 -1.69,4.07 -2.39,6.22c-0.61,1.78 -0.61,1.78 -1.61,2.78c-2.44,0.25 -2.44,0.25 -5,0c-2.37,-3.56 -2.3,-5.29 -2.31,-9.5c-0.02,-1.15 -0.04,-2.29 -0.05,-3.47c0.36,-3.03 0.36,-3.03 1.65,-4.93c2.77,-1.79 5.51,-1.29 8.71,-1.1c-3.97,-6.73 -9.2,-13.47 -16.56,-16.44c-5.27,0.67 -8.75,3.75 -12.44,7.44c-2.44,0.18 -2.44,0.18 -5,0c-0.66,-0.67 -1.32,-1.33 -2,-2c0.11,-4.01 1.76,-6.63 4.43,-9.58c6.96,-6.33 15.3,-7.1 23.57,-2.55z" fill="#16120C" id="svg_27" transform="translate(329,363.875)"/>
  <path d="m0,0c6.63,2.78 6.63,2.78 9.73,4.59c3.9,1.68 7.29,1.73 11.46,1.72c7.94,0.19 14.74,1.85 22.18,4.61c6.14,2.21 12,3.38 18.3,1.13c0.69,-0.43 1.37,-0.86 2.08,-1.3c1.11,-0.68 1.11,-0.68 2.24,-1.37c2.44,-1.67 4.72,-3.51 7.01,-5.38c0.66,0 1.32,0 2,0c-0.63,1.68 -1.31,3.34 -2,5c-0.37,0.98 -0.37,0.98 -0.74,1.97c-2.01,4.76 -3.94,7.16 -8.74,9.16c-0.83,0.28 -1.66,0.57 -2.52,0.87c-1.06,0.37 -2.12,0.74 -3.21,1.13c-7.38,2.34 -15.06,4.59 -22.79,2.87c-3.15,-1.95 -5.57,-4.22 -8,-7c-1.81,-1.81 -4.68,-1.26 -7.12,-1.37c-7.78,-0.56 -13.07,-2.15 -18.88,-7.63c-1.85,-2.61 -2.06,-3.55 -1.63,-6.75c0.21,-0.74 0.42,-1.48 0.63,-2.25z" fill="#B06738" id="svg_28" transform="translate(512,439)"/>
  <path d="m0,0c-0.33,1.65 -0.66,3.3 -1,5c-4.51,0.34 -7.69,-0.43 -11.78,-2.15c-15.69,-6.01 -27.72,-2.33 -42.4,4.08c-2.14,1.08 -2.14,1.08 -3.82,4.07c-2.56,0.25 -2.56,0.25 -5,0c-1,-1 -1,-1 -1.38,-3.31c0.38,-2.69 0.38,-2.69 2.48,-4.63c20.07,-14.24 41.15,-13.75 62.9,-3.06z" fill="#14100C" id="svg_29" transform="translate(500,314)"/>
  <path d="m0,0c4.75,-0.37 8.28,0.6 12.66,2.25c6.44,2.07 13.01,2 19.72,2.06c1.5,0.05 1.5,0.05 3.03,0.09c6.76,0.06 10.74,-1.08 16.59,-4.4c3,0.25 3,0.25 5,1c-0.51,3.76 -1.1,5.55 -4,8c-1.83,0.91 -1.83,0.91 -3.81,1.63c-0.65,0.23 -1.29,0.47 -1.96,0.72c-11.64,3.39 -23.99,2.39 -35.54,-0.66c-1.21,-0.32 -1.21,-0.32 -2.44,-0.65c-3.97,-1.13 -7.14,-2.2 -10.25,-5.04c0.33,-1.65 0.66,-3.3 1,-5z" fill="#16110C" id="svg_30" transform="translate(518,528)"/>
  <path d="m0,0c0.99,0.33 1.98,0.66 3,1c0,3.3 0,6.6 0,10c1.7,-0.03 1.7,-0.03 3.44,-0.07c1.52,-0.02 3.04,-0.04 4.56,-0.05c0.74,-0.02 1.49,-0.04 2.25,-0.06c5.26,-0.04 9.7,0.72 14.75,2.18c0,0.66 0,1.32 0,2c6.21,2.52 12.29,4.34 19,3c2.48,-1.33 4.65,-2.85 6.9,-4.53c4.3,-3.01 8.95,-3.78 14.1,-3.47c-1.06,3.06 -1.88,3.93 -4.75,5.56c-2.17,0.96 -4.33,1.92 -6.5,2.88c-2.94,1.67 -3.53,2.52 -4.75,5.56c-5.35,2.67 -11.5,1.03 -16.87,-0.75c-2.98,-1.05 -5.9,-2.16 -8.81,-3.37c-6.73,-2.73 -12.84,-3.38 -20.03,-3.51c-3.51,-0.4 -4.98,-0.71 -7.29,-3.37c-0.43,-2.63 -0.43,-2.63 -0.31,-5.56c0.02,-0.97 0.05,-1.94 0.07,-2.94c0.24,-2.5 0.24,-2.5 1.24,-4.5z" fill="#B76C3C" id="svg_31" transform="translate(520,420)"/>
  <path d="m0,0c1.02,0.01 2.05,0.01 3.11,0.02c11,0.23 20.2,2.19 28.83,9.42c-0.33,1.65 -0.66,3.3 -1,5c-4.72,-0.49 -8.43,-1.95 -12.66,-3.97c-8.57,-3.78 -17.86,-4.97 -26.85,-1.79c-3.81,1.88 -7.33,3.85 -10.68,6.48c-1.81,1.28 -1.81,1.28 -4.06,0.97c-0.58,-0.23 -1.16,-0.46 -1.75,-0.69c-0.31,-3.05 -0.42,-4.48 1.54,-6.92c0.68,-0.56 1.37,-1.13 2.08,-1.71c0.68,-0.57 1.35,-1.14 2.04,-1.72c6.53,-4.61 11.59,-5.17 19.4,-5.09z" fill="#14100C" id="svg_32" transform="translate(622.0625,304.5625)"/>
  <path d="m0,0c7.25,-0.25 12.09,-0.4 17.88,4.38c2.12,2.62 2.12,2.62 1.95,4.54c-2.81,7.02 -9.53,10.8 -16.14,13.64c-6.23,2.59 -6.23,2.59 -9.69,1.44c0.49,-0.41 0.99,-0.82 1.5,-1.24c0.64,-0.54 1.28,-1.08 1.94,-1.63c0.64,-0.54 1.27,-1.07 1.93,-1.62c2.25,-2.08 2.61,-3.12 2.8,-6.19c0.01,-1.58 0.01,-1.58 0.02,-3.19c0.02,-1.58 0.02,-1.58 0.04,-3.18c-0.22,-2.89 -0.74,-4.51 -2.23,-6.95z" fill="#FBF8ED" id="svg_33" transform="translate(630,330)"/>
  <path d="m0,0c8.06,1.84 14.27,5.27 21,10c0.77,0.53 1.53,1.05 2.32,1.59c0.55,0.47 1.11,0.93 1.68,1.41c0,0.66 0,1.32 0,2c-7.6,3.47 -14.71,5.91 -23,7c0.02,-1.25 0.05,-2.51 0.07,-3.8c0.02,-1.65 0.04,-3.3 0.06,-4.95c0.01,-0.82 0.03,-1.65 0.05,-2.5c0,-0.8 0.01,-1.6 0.02,-2.42c0.01,-0.74 0.02,-1.47 0.03,-2.22c-0.26,-2.41 -1.04,-4.02 -2.23,-6.11z" fill="#FAF8EC" id="svg_34" transform="translate(482,330)"/>
  <path d="m0,0c3.31,1.32 4.83,2.14 6.81,5.13c0.69,3.76 0.45,6.9 -1,10.43c-3.04,2.38 -6.24,2.76 -10,2.57c-3,-1.24 -4.46,-2.28 -6.37,-4.88c-0.88,-2.97 -0.8,-4.22 0.37,-7.12c2.99,-3.55 5.45,-5.94 10.19,-6.13z" fill="#FDF9EF" id="svg_35" transform="translate(347.1875,435.875)"/>
  <path d="m0,0c3.94,1.31 6.23,2.92 9,6c-1.25,3.65 -1.67,4.78 -5,7c-0.66,-0.33 -1.32,-0.66 -2,-1c-0.33,1.32 -0.66,2.64 -1,4c-1.45,-0.93 -1.45,-0.93 -2.94,-1.87c-3.61,-2.1 -7.04,-2.95 -11.14,-3.64c-1.92,-0.49 -1.92,-0.49 -3.92,-2.49c-6.34,-0.57 -12.75,-0.14 -19,1c-0.33,-0.99 -0.66,-1.98 -1,-3c11.67,-4.45 23.63,-2.2 35,2c0.5,0.49 0.5,0.49 1,1c2,0.04 4,0.04 6,0c0,-1.32 0,-2.64 0,-4c-2.48,-0.99 -2.48,-0.99 -5,-2c0,-0.99 0,-1.98 0,-3z" fill="#D4834E" id="svg_36" transform="translate(494,309)"/>
  <path d="m0,0c0.33,0.66 0.66,1.32 1,2c-0.33,0.99 -0.66,1.98 -1,3c-0.09,1.83 -0.13,3.67 -0.13,5.5c0,0.96 0,1.92 0,2.91c0.02,2.71 0.02,2.71 1.13,5.59c-3.84,-1.38 -6.97,-3.16 -10.31,-5.5c-0.89,-0.61 -1.77,-1.22 -2.68,-1.84c-0.66,-0.55 -1.33,-1.1 -2.01,-1.66c0,-0.66 0,-1.32 0,-2c4.62,-2.64 9.24,-5.28 14,-8z" fill="#FCF9ED" id="svg_37" transform="translate(456,332)"/>
  <path d="m0,0c4.56,1.24 6.94,3.75 10.1,7.06c2.55,2.6 5.31,4.92 8.1,7.26c1.88,1.75 3.33,3.59 4.8,5.68c-4.88,-1.78 -9.21,-4.36 -13.65,-6.99c-4.02,-2.34 -8.05,-4.25 -12.35,-6.01c0,-0.66 0,-1.32 0,-2c1.65,0 3.3,0 5,0c-0.66,-1.65 -1.32,-3.3 -2,-5z" fill="#F5EFE0" id="svg_38" transform="translate(472,748)"/>
  <path d="m0,0c0.66,0 1.32,0 2,0c0.01,0.66 0.03,1.33 0.04,2.01c0.3,5.93 0.3,5.93 3.34,10.93c0.86,0.68 1.73,1.36 2.62,2.06c1,1 2,2 3,3c-3.97,-0.66 -7.47,-1.85 -11.19,-3.37c-1.04,-0.43 -2.09,-0.85 -3.17,-1.28c-2.64,-1.35 -2.64,-1.35 -4.64,-4.35c1.28,-1.51 2.58,-3 3.87,-4.5c1.08,-1.25 1.08,-1.25 2.18,-2.53c0.65,-0.65 1.29,-1.3 1.95,-1.97z" fill="#FBF8EF" id="svg_39" transform="translate(599,336)"/>
  <path d="m0,0c0.59,-0.15 1.18,-0.3 1.79,-0.45c2.77,-0.69 5.3,-0.68 8.15,-0.68c1.02,0 2.04,0 3.09,0c2.77,0.12 5.28,0.5 7.97,1.13c0,0.33 0,0.66 0,1c-1.92,0 -1.92,0 -3.88,0.01c-10.27,0.17 -18.29,1.07 -27.47,5.81c-2.65,1.18 -2.65,1.18 -5.65,0.18c-0.33,-0.66 -0.66,-1.32 -1,-2c1.67,-3.34 5.07,-3.95 8.43,-5.25c3.18,-0.93 5.39,-0.58 8.57,0.25z" fill="#E18D53" id="svg_40" transform="translate(461,317)"/>
  <path d="m0,0c2.87,2.85 5.71,5.73 8.53,8.64c9.79,10.02 19.75,18.64 31.47,26.36c-0.99,0.33 -1.98,0.66 -3,1c-8.03,-4.86 -15.23,-11.56 -22,-18c-0.55,-0.52 -1.1,-1.04 -1.66,-1.58c-1.79,-1.71 -3.57,-3.44 -5.34,-5.17c-0.56,-0.54 -1.13,-1.09 -1.71,-1.65c-3.03,-3 -5.05,-5.41 -6.29,-9.6z" fill="#0E0A07" id="svg_42" transform="translate(405,527)"/>
  <path d="m0,0c0.49,1.49 0.49,1.49 1,3c-2.65,4.98 -6.21,8.97 -11,12c-6.97,2.09 -12.64,0.35 -19,-3c-3.23,-2.45 -6.16,-5.11 -9,-8c0.33,-0.66 0.66,-1.32 1,-2c0.98,0.81 0.98,0.81 1.98,1.64c9.28,7.78 9.28,7.78 20.85,9.7c4.58,-0.71 7.15,-2.98 9.87,-6.61c1.49,-2.21 2.92,-4.44 4.3,-6.73z" fill="#070504" id="svg_44" transform="translate(361,453)"/>
  <path d="m0,0c1.84,5.53 -1.53,10.98 -4,16c-3.65,5.17 -7.47,8.91 -13,12c0.5,-4.45 0.5,-4.45 1,-9c0.66,0 1.32,0 2,0c0,0.66 0,1.32 0,2c1.32,-0.33 2.64,-0.66 4,-1c0,-0.66 0,-1.32 0,-2c0.6,-0.56 1.21,-1.13 1.83,-1.71c2.65,-2.8 3.57,-5.36 4.86,-8.98c2.24,-6.24 2.24,-6.24 3.31,-7.31z" fill="#E69055" id="svg_45" transform="translate(703,423)"/>
  <path d="m0,0c1.32,0 2.64,0 4,0c1.67,6.67 1.67,6.67 -0.13,10.24c-2.54,3.48 -4.71,6.27 -8.87,7.76c-0.99,-0.33 -1.98,-0.66 -3,-1c0.6,-0.27 1.2,-0.54 1.81,-0.81c2.23,-1.08 2.23,-1.08 3.81,-2.81c0.46,-0.46 0.91,-0.91 1.38,-1.38c0.66,0 1.32,0 2,0c-0.33,-0.99 -0.66,-1.98 -1,-3c-0.99,0 -1.98,0 -3,0c0.99,-2.97 1.98,-5.94 3,-9z" fill="#C67845" id="svg_46" transform="translate(337,397)"/>
  <path d="m0,0c3.73,3.73 4.79,9.44 6.48,14.38c0.7,2.05 1.43,4.1 2.15,6.15c0.45,1.3 0.9,2.6 1.35,3.9c0.41,1.19 0.82,2.38 1.25,3.6c0.77,2.97 0.77,2.97 -0.23,5.97c-2.31,0 -4.62,0 -7,0c0.33,-0.66 0.66,-1.32 1,-2c1.65,0 3.3,0 5,0c-1.29,-3.73 -2.58,-7.46 -3.87,-11.19c-0.37,-1.05 -0.73,-2.11 -1.11,-3.19c-0.35,-1.03 -0.71,-2.05 -1.07,-3.1c-0.49,-1.41 -0.49,-1.41 -0.99,-2.84c-0.64,-1.78 -1.33,-3.54 -2.08,-5.27c-0.88,-2.41 -0.88,-2.41 -0.88,-6.41z" fill="#0D120B" id="svg_48" transform="translate(460,844)"/>
  <path d="m0,0c2.83,2.83 2.63,5.24 3.13,9.19c0.16,1.29 0.33,2.58 0.5,3.92c0.35,3.66 0.44,7.22 0.37,10.89c-0.99,-0.33 -1.98,-0.66 -3,-1c-0.06,-0.69 -0.12,-1.38 -0.18,-2.09c-0.09,-0.94 -0.17,-1.88 -0.26,-2.85c-0.09,-1 -0.18,-2 -0.27,-3.02c-0.32,-3.4 -0.74,-6.78 -1.2,-10.16c-0.09,-1.88 -0.09,-1.88 0.91,-4.88z" fill="#25201A" id="svg_49" transform="translate(730,320)"/>
  <path d="m0,0c2.42,-0.05 4.83,-0.09 7.25,-0.13c0.68,-0.01 1.36,-0.03 2.07,-0.05c3.72,-0.03 6.6,-0.03 9.68,2.18c0.99,1.48 0.99,1.48 2,3c-0.33,0.66 -0.66,1.32 -1,2c-1.32,-0.33 -2.64,-0.66 -4,-1c0,-0.66 0,-1.32 0,-2c-1.98,0 -3.96,0 -6,0c0,-0.33 0,-0.66 0,-1c-3.3,-0.33 -6.6,-0.66 -10,-1c0,-0.66 0,-1.32 0,-2z" fill="#C77C48" id="svg_50" transform="translate(617,311)"/>
  <path d="m0,0c1.94,3.52 2.18,5.97 2,10c-0.66,0 -1.32,0 -2,0c0,6.6 0,13.2 0,20c-2.1,-4.19 -2.31,-7.09 -2.25,-11.62c0,-0.71 0.01,-1.42 0.01,-2.15c0.09,-5.57 0.79,-10.84 2.24,-16.23z" fill="#23170F" id="svg_51" transform="translate(570,326)"/>
  <path d="m0,0c2,0 2,0 3.3,1.26c0.52,0.61 1.04,1.23 1.58,1.87c0.61,0.72 1.22,1.44 1.85,2.18c0.75,0.89 1.5,1.77 2.27,2.69c1.01,1.16 2.01,2.32 3.02,3.47c1.08,1.24 2.15,2.48 3.23,3.72c0.52,0.59 1.04,1.19 1.57,1.8c5.37,6.22 5.37,6.22 7.18,10.01c-0.33,0.99 -0.66,1.98 -1,3c-0.58,-0.86 -1.17,-1.72 -1.77,-2.61c-4.99,-7.24 -10.24,-13.89 -16.38,-20.21c-2.31,-2.4 -3.78,-3.98 -4.85,-7.18z" fill="#0E0A07" id="svg_52" transform="translate(628,192)"/>
  <path d="m0,0c4.14,4 7.93,8.27 11.72,12.6c2.28,2.4 4.66,4.38 7.28,6.4c2.81,2.56 2.81,2.56 5,5c0,0.99 0,1.98 0,3c-8.76,-7.17 -18.07,-15.26 -24,-25c0,-0.66 0,-1.32 0,-2z" fill="#120C09" id="svg_53" transform="translate(395,528)"/>
  <path d="m0,0c3.91,0.55 5.59,2.3 8.25,5.13c3.53,3.65 7.15,7.07 11.02,10.36c1.65,1.44 3.2,2.94 4.73,4.51c-4.35,0 -6.22,-2.7 -9.19,-5.56c-1.16,-1.1 -2.32,-2.21 -3.49,-3.31c-0.57,-0.53 -1.13,-1.07 -1.71,-1.63c-2.7,-2.52 -5.5,-4.91 -8.32,-7.29c-0.42,-0.4 -0.85,-0.8 -1.29,-1.21c0,-0.33 0,-0.66 0,-1z" fill="#0E0B08" id="svg_54" transform="translate(465,726)"/>
  <path d="m0,0c0.66,0 1.32,0 2,0c1.38,1.43 1.38,1.43 3,3.44c3.59,4.25 7.56,7.85 11.77,11.48c2.07,1.94 3.78,3.64 5.23,6.08c-0.33,0.99 -0.66,1.98 -1,3c-0.51,-0.58 -1.02,-1.17 -1.55,-1.77c-5.01,-5.65 -10.19,-11.05 -15.64,-16.29c-1.31,-1.28 -2.56,-2.61 -3.81,-3.94c0,-0.66 0,-1.32 0,-2z" fill="#0F0D09" id="svg_55" transform="translate(618,619)"/>
  <path d="m0,0c2.83,1.34 5.35,2.86 7.9,4.68c1.09,0.78 1.09,0.78 2.2,1.57c0.75,0.53 1.5,1.07 2.28,1.63c4.83,3.44 9.66,6.86 14.62,10.12c-0.66,0.33 -1.32,0.66 -2,1c-3.42,-2.27 -6.83,-4.54 -10.25,-6.81c-1.45,-0.97 -1.45,-0.97 -2.93,-1.95c-0.94,-0.62 -1.87,-1.24 -2.84,-1.88c-0.85,-0.58 -1.71,-1.15 -2.6,-1.73c-4.65,-3.18 -4.65,-3.18 -6.38,-4.63c0,-0.66 0,-1.32 0,-2z" fill="#BE6D3B" id="svg_57" transform="translate(425,562)"/>
  <path d="m0,0c0.99,0.33 1.98,0.66 3,1c0,3.67 0,7.33 0,11c0.33,0.99 0.66,1.98 1,3c-3.87,-0.87 -3.87,-0.87 -5,-2c-0.1,-1.81 -0.13,-3.62 -0.13,-5.44c0,-0.99 0,-1.97 0,-2.99c0.13,-2.57 0.13,-2.57 1.13,-4.57z" fill="#C57643" id="svg_58" transform="translate(520,420)"/>
  <path d="m0,0c0.66,0.66 1.32,1.32 2,2c-0.37,2.13 -0.37,2.13 -1,4c0.66,0 1.32,0 2,0c0,0.99 0,1.98 0,3c-0.99,0 -1.98,0 -3,0c-0.07,0.61 -0.15,1.22 -0.22,1.86c-0.78,2.14 -0.78,2.14 -2.78,3.44c-0.8,0.33 -1.61,0.67 -2.44,1.01c-1.2,0.52 -1.2,0.52 -2.43,1.05c-2.13,0.64 -2.13,0.64 -4.13,-0.36c1.29,-0.67 2.58,-1.34 3.87,-2c0.72,-0.37 1.44,-0.74 2.18,-1.12c1.95,-0.88 1.95,-0.88 3.95,-0.88c-0.99,-1.32 -1.98,-2.64 -3,-4c1.65,-0.33 3.3,-0.66 5,-1c-0.19,-0.97 -0.37,-1.94 -0.56,-2.94c-0.15,-1.01 -0.29,-2.02 -0.44,-3.06c0.33,-0.33 0.66,-0.66 1,-1z" fill="#C4713B" id="svg_59" transform="translate(509,333)"/>
  <path d="m0,0c4.82,1.39 7.29,4.2 10.31,8c0.46,0.55 0.91,1.09 1.38,1.66c3.31,4.06 3.31,4.06 3.31,6.34c0.66,0 1.32,0 2,0c1.63,2.5 1.63,2.5 3,5c-0.66,0.33 -1.32,0.66 -2,1c-0.71,-0.93 -1.43,-1.86 -2.16,-2.82c-4.98,-6.44 -9.94,-12.54 -15.84,-18.18c0,-0.33 0,-0.66 0,-1z" fill="#0F0B07" id="svg_60" transform="translate(340,352)"/>
  <path d="m0,0c0.66,0.66 1.32,1.32 2,2c-1.18,0.08 -1.18,0.08 -2.38,0.16c-5.9,0.63 -9.78,1.19 -13.75,5.84c-0.97,1.32 -1.93,2.65 -2.87,4c-0.66,0.66 -1.32,1.32 -2,2c0.07,-3.11 0.37,-5.28 2.45,-7.66c5.15,-4.54 9.49,-6.97 16.55,-6.34z" fill="#0B0907" id="svg_61" transform="translate(321,361)"/>
  <path d="m0,0c1.18,3.68 1.14,7.16 1,11c-0.33,0.33 -0.66,0.66 -1,1c-0.39,1.85 -0.74,3.7 -1.06,5.56c-0.18,1.01 -0.36,2.03 -0.54,3.07c-0.13,0.78 -0.26,1.56 -0.4,2.37c-0.33,0 -0.66,0 -1,0c-0.23,-7.54 -0.1,-14.7 2,-22c0.33,-0.33 0.66,-0.66 1,-1z" fill="#D7834C" id="svg_62" transform="translate(691,417)"/>
  <path d="m0,0c2.79,0.11 5.58,0.24 8.38,0.38c0.79,0.03 1.58,0.06 2.4,0.09c5.99,0.3 5.99,0.3 8.22,2.53c-4.87,2.43 -12.08,1.48 -17.19,0c-0.93,-0.33 -1.85,-0.66 -2.81,-1c0.33,-0.66 0.66,-1.32 1,-2z" fill="#BA6B3B" id="svg_63" transform="translate(538,540)"/>
  <path d="m0,0c0.66,0.33 1.32,0.66 2,1c-0.66,0.66 -1.32,1.32 -2,2c2.69,2.25 4.65,3.88 8,5c0.33,-1.98 0.66,-3.96 1,-6c0.33,0 0.66,0 1,0c0.66,3.63 1.32,7.26 2,11c-4.03,-1.61 -6.83,-3.06 -10.31,-5.5c-0.89,-0.61 -1.77,-1.22 -2.68,-1.84c-0.66,-0.55 -1.33,-1.1 -2.01,-1.66c0,-0.66 0,-1.32 0,-2c0.99,-0.66 1.98,-1.32 3,-2z" fill="#F3EBE0" id="svg_64" transform="translate(445,338)"/>
  <path d="m0,0c3.94,1.37 6.73,3.16 9.94,5.81c0.86,0.71 1.72,1.43 2.61,2.16c0.81,0.67 1.62,1.34 2.45,2.03c0.64,0.51 1.28,1.01 1.95,1.53c2.66,2.12 3.95,3.16 5.05,6.47c-3.56,-1.53 -5.95,-3.66 -8.75,-6.31c-3.15,-2.91 -6.19,-5.44 -9.87,-7.63c-1.12,-0.68 -2.23,-1.36 -3.38,-2.06c0,-0.66 0,-1.32 0,-2z" fill="#E28A52" id="svg_65" transform="translate(602,172)"/>
  <path d="m0,0c3.36,1.46 5.55,3.31 8.11,5.91c0.75,0.76 1.51,1.53 2.28,2.31c0.78,0.79 1.56,1.59 2.36,2.41c0.79,0.8 1.59,1.6 2.4,2.42c1.96,1.98 3.91,3.96 5.85,5.95c-0.66,0.66 -1.32,1.32 -2,2c-0.33,-0.99 -0.66,-1.98 -1,-3c-0.66,0 -1.32,0 -2,0c-1.41,-1.43 -1.41,-1.43 -3.06,-3.44c-3.53,-4.16 -7.31,-7.97 -11.22,-11.77c-1.72,-1.79 -1.72,-1.79 -1.72,-2.79z" fill="#F8F6ED" id="svg_66" transform="translate(761,246)"/>
  <path d="m0,0c2.82,4 2.01,8.12 1.63,12.75c-0.06,0.79 -0.12,1.59 -0.18,2.4c-0.14,1.95 -0.29,3.9 -0.45,5.85c-0.99,-0.33 -1.98,-0.66 -3,-1c0,-1.98 0,-3.96 0,-6c0.66,0 1.32,0 2,0c-0.08,-0.93 -0.17,-1.85 -0.25,-2.81c-0.11,-1.2 -0.21,-2.39 -0.31,-3.63c-0.16,-1.79 -0.16,-1.79 -0.32,-3.62c-0.04,-0.97 -0.08,-1.94 -0.12,-2.94c0.33,-0.33 0.66,-0.66 1,-1z" fill="#211C15" id="svg_67" transform="translate(608,615)"/>
  <path d="m0,0c5.37,0.46 9.31,1.14 14,4c0.33,0.66 0.66,1.32 1,2c-1.65,-0.33 -3.3,-0.66 -5,-1c0.33,0.66 0.66,1.32 1,2c-3.44,-0.81 -3.44,-0.81 -7,-2c-0.33,-0.99 -0.66,-1.98 -1,-3c-0.99,-0.66 -1.98,-1.32 -3,-2z" fill="#E08B52" id="svg_68" transform="translate(633,313)"/>
  <path d="m0,0c6.88,2.75 6.88,2.75 8,5c-1.32,-0.33 -2.64,-0.66 -4,-1c0,2.31 0,4.62 0,7c-2.78,-2.33 -3.9,-3.62 -4.81,-7.19c-0.06,-0.93 -0.13,-1.85 -0.19,-2.81c0.33,-0.33 0.66,-0.66 1,-1z" fill="#C07240" id="svg_69" transform="translate(512,439)"/>
  <path d="m0,0c0.99,0.33 1.98,0.66 3,1c-1.29,1.34 -2.58,2.67 -3.88,4c-0.71,0.74 -1.43,1.49 -2.17,2.25c-1.95,1.75 -1.95,1.75 -3.95,1.75c-0.29,0.64 -0.58,1.28 -0.88,1.94c-1.12,2.06 -1.12,2.06 -3.12,3.06c0.47,-4.32 3.03,-6.34 6.06,-9.25c0.92,-0.89 1.84,-1.78 2.79,-2.7c0.71,-0.68 1.42,-1.35 2.15,-2.05z" fill="#E08A52" id="svg_70" transform="translate(456,187)"/>
  <path d="m0,0c3.33,1.06 6.56,2.21 9.75,3.63c2.97,1.5 2.97,1.5 5.25,1.37c0,0.66 0,1.32 0,2c2.31,0.66 4.62,1.32 7,2c-3.32,1.14 -4.93,0.92 -8.07,-0.58c-0.75,-0.36 -1.5,-0.71 -2.28,-1.08c-1.15,-0.57 -1.15,-0.57 -2.34,-1.15c-0.78,-0.37 -1.57,-0.74 -2.37,-1.12c-5.8,-2.79 -5.8,-2.79 -6.94,-5.07z" fill="#0F0B08" id="svg_71" transform="translate(470,590)"/>
  <path d="m0,0c3.22,1.41 5.32,3.1 7.75,5.63c0.92,0.94 0.92,0.94 1.86,1.91c0.69,0.72 0.69,0.72 1.39,1.46c-3.31,0 -4.41,-0.57 -7.19,-2.25c-0.71,-0.42 -1.43,-0.84 -2.17,-1.27c-0.81,-0.73 -0.81,-0.73 -1.64,-1.48c0,-1.32 0,-2.64 0,-4z" fill="#E7E1D4" id="svg_72" transform="translate(484,758)"/>
  <path d="m0,0c0.66,0 1.32,0 2,0c0,0.66 0,1.32 0,2c1.32,-0.33 2.64,-0.66 4,-1c0,0.99 0,1.98 0,3c-1.53,1.39 -1.53,1.39 -3.5,2.69c-1.16,0.76 -2.31,1.52 -3.5,2.31c0.33,-2.97 0.66,-5.94 1,-9z" fill="#D98751" id="svg_73" transform="translate(687,442)"/>
  <path d="m0,0c1.49,2.99 0.41,4.95 -0.44,8.13c-0.28,1.09 -0.57,2.19 -0.87,3.32c-0.34,1.26 -0.34,1.26 -0.69,2.55c-0.33,0 -0.66,0 -1,0c-0.33,-2.64 -0.66,-5.28 -1,-8c-0.99,0.5 -0.99,0.5 -2,1c0.19,-1.81 0.19,-1.81 1,-4c2.56,-1.75 2.56,-1.75 5,-3z" fill="#F1EEE7" id="svg_74" transform="translate(456,332)"/>
  <path d="m0,0c4.14,3.38 7.81,6.67 11,11c-3.87,-1.87 -3.87,-1.87 -5,-3c-0.66,0.66 -1.32,1.32 -2,2c-0.67,-1.29 -1.34,-2.58 -2,-3.87c-0.37,-0.72 -0.74,-1.44 -1.12,-2.18c-0.88,-1.95 -0.88,-1.95 -0.88,-3.95z" fill="#E7E2D7" id="svg_75" transform="translate(418,699)"/>
  <path d="m0,0c2.64,0.66 5.28,1.32 8,2c0.33,1.32 0.66,2.64 1,4c-0.99,0.33 -1.98,0.66 -3,1c-2.38,-1.59 -4.14,-2.88 -6,-5c0,-0.66 0,-1.32 0,-2z" fill="#AE6739" id="svg_77" transform="translate(538,432)"/>
  <path d="m0,0c0,3.55 -0.99,5.49 -2.5,8.69c-0.7,1.49 -0.7,1.49 -1.41,3.01c-0.36,0.76 -0.72,1.52 -1.09,2.3c-0.66,-0.66 -1.32,-1.32 -2,-2c0.37,-3 0.37,-3 1,-6c0,-0.66 0,-1.32 0,-2c1.96,-1.39 3.96,-2.73 6,-4z" fill="#EEEBE1" id="svg_78" transform="translate(316,198)"/>
  <path d="m0,0c1.32,0.33 2.64,0.66 4,1c0.38,2.25 0.38,2.25 0,5c-3,2.31 -3,2.31 -6,4c0,-3.61 0.96,-6.56 2,-10z" fill="#B76D3E" id="svg_79" transform="translate(337,397)"/>
  <path d="m0,0c2.44,0.69 2.44,0.69 5,2c0.81,2.63 0.81,2.63 1,5c-2.12,0.75 -2.12,0.75 -5,1c-3.31,-1.94 -3.31,-1.94 -6,-4c0.66,-0.33 1.32,-0.66 2,-1c1.34,0.65 2.67,1.32 4,2c0.99,0 1.98,0 3,0c-1.32,-1.65 -2.64,-3.3 -4,-5z" fill="#0D0A08" id="svg_80" transform="translate(648,311)"/>
  <path d="m0,0c2.86,1.36 4.86,2.65 7,5c0.66,-1.32 1.32,-2.64 2,-4c0.66,3.63 1.32,7.26 2,11c-3.92,-3.8 -7.49,-7.82 -11,-12z" fill="#EE995A" id="svg_82" transform="translate(665,275)"/>
  <path d="m0,0c1.13,0.96 2.25,1.92 3.38,2.88c0.62,0.53 1.25,1.06 1.89,1.61c1.29,1.12 2.52,2.3 3.73,3.51c-3.66,-0.63 -6.88,-1.64 -10.31,-3.06c-1.33,-0.55 -1.33,-0.55 -2.68,-1.1c-0.66,-0.28 -1.33,-0.55 -2.01,-0.84c0,-0.33 0,-0.66 0,-1c1.98,0 3.96,0 6,0c0,-0.66 0,-1.32 0,-2z" fill="#F4EDE2" id="svg_83" transform="translate(601,346)"/>
  <path d="m0,0c0.33,0 0.66,0 1,0c0.67,3.33 1.33,6.67 2,10c0.23,0.87 0.46,1.75 0.69,2.64c0.31,2.36 0.31,2.36 -1.69,5.36c-1.4,-6.12 -2.23,-11.72 -2,-18z" fill="#0E0C09" id="svg_84" transform="translate(640,736)"/>
  <path d="m0,0c1,3 1,3 1,5c-1.68,1.32 -1.68,1.32 -3.88,2.69c-1.07,0.68 -1.07,0.68 -2.17,1.38c-0.97,0.46 -0.97,0.46 -1.95,0.93c-0.66,-0.33 -1.32,-0.66 -2,-1c3,-3 6,-6 9,-9z" fill="#CA7A47" id="svg_85" transform="translate(595,436)"/>
  <path d="m0,0c0.6,0.21 1.2,0.41 1.81,0.63c-3,2 -3,2 -5.19,1.62c-0.59,-0.21 -1.19,-0.41 -1.81,-0.62c3,-2.01 3,-2.01 5.19,-1.63zm-2.19,2.63c2.97,0.49 2.97,0.49 6,1c-2.85,1.9 -4.42,2.46 -7.69,3.12c-0.8,0.17 -1.61,0.34 -2.44,0.51c-0.62,0.12 -1.23,0.24 -1.87,0.37c3.75,-3 3.75,-3 6,-3c0,-0.67 0,-1.32 0,-2z" fill="#EB9658" id="svg_86" transform="translate(614.1875,313.375)"/>
  <path d="m0,0c3.71,1.58 6.3,3.91 9.25,6.63c0.89,0.81 1.78,1.63 2.7,2.47c1.02,0.94 1.02,0.94 2.05,1.9c-0.33,0.66 -0.66,1.32 -1,2c-0.77,-0.71 -1.54,-1.42 -2.34,-2.15c-1.01,-0.93 -2.02,-1.86 -3.03,-2.79c-0.51,-0.47 -1.02,-0.93 -1.54,-1.42c-2.83,-2.62 -2.83,-2.62 -6.09,-4.64c0,-0.66 0,-1.32 0,-2z" fill="#0D0A07" id="svg_88" transform="translate(450,712)"/>
  <path d="m0,0c4.88,3.94 9.06,8.12 13,13c-3,0 -3,0 -5.48,-2.34c-0.91,-1 -1.81,-2.01 -2.71,-3.03c-0.46,-0.51 -0.92,-1.02 -1.4,-1.54c-3.41,-3.82 -3.41,-3.82 -3.41,-6.09z" fill="#E58E54" id="svg_91" transform="translate(624,190)"/>
  <path d="m0,0c0.66,0.99 1.32,1.98 2,3c-1.32,1.32 -2.64,2.64 -4,4c-1.32,-0.66 -2.64,-1.32 -4,-2c0,-0.66 0,-1.32 0,-2c1.98,-0.99 3.96,-1.98 6,-3z" fill="#C46238" id="svg_92" transform="translate(606,495)"/>
  <path d="m0,0c0.33,0.99 0.66,1.98 1,3c-4.02,2.97 -7,4.52 -12,5c0.56,-1.94 0.56,-1.94 2,-4c2.33,-0.37 4.66,-0.71 7,-1c0.66,-0.99 1.32,-1.98 2,-3z" fill="#0E0B08" id="svg_93" transform="translate(593,436)"/>
  <path d="m0,0c-1.23,3.69 -2.94,4.72 -6,7c0,-0.66 0,-1.32 0,-2c-0.66,-0.33 -1.32,-0.66 -2,-1c0.33,-0.99 0.66,-1.98 1,-3c2.46,-1.23 4.28,-1.07 7,-1z" fill="#C77845" id="svg_94" transform="translate(322,370)"/>
  <path d="m0,0c0.33,0 0.66,0 1,0c0.33,5.94 0.66,11.88 1,18c-1.32,-1.32 -2.64,-2.64 -4,-4c0.66,0 1.32,0 2,0c0,-4.62 0,-9.24 0,-14z" fill="#E3DED2" id="svg_95" transform="translate(675,732)"/>
  <path d="m0,0c0.66,0.66 1.32,1.32 2,2c-0.06,1.88 -0.06,1.88 -1,4c-2.56,2.25 -2.56,2.25 -5,4c-0.66,-0.33 -1.32,-0.66 -2,-1c1.98,-2.97 3.96,-5.94 6,-9z" fill="#F3EEE0" id="svg_96" transform="translate(636,737)"/>
  <path d="m0,0c3.91,0.56 5.9,2.42 8.75,5.06c0.8,0.74 1.6,1.47 2.42,2.23c0.61,0.56 1.21,1.13 1.83,1.71c-3.98,0 -5.15,-1.44 -8.19,-3.94c-0.9,-0.73 -1.8,-1.46 -2.73,-2.21c-0.69,-0.61 -1.37,-1.22 -2.08,-1.85c0,-0.33 0,-0.66 0,-1z" fill="#0F0B07" id="svg_97" transform="translate(427,694)"/>
  <path d="m0,0c0.33,0 0.66,0 1,0c0.33,4.62 0.66,9.24 1,14c-0.99,0 -1.98,0 -3,0c-0.18,-9.41 -0.18,-9.41 1,-14z" fill="#27221B" id="svg_99" transform="translate(734,345)"/>
  <path d="m0,0c4.27,1.58 6.27,4.51 9,8c-0.99,0.49 -0.99,0.49 -2,1c-2.96,-2.81 -5.44,-5.18 -7,-9z" fill="#231F17" id="svg_100" transform="translate(659,144)"/>
  <path d="m0,0c1.02,2.65 1.13,3.69 0,6.36c-0.47,0.79 -0.95,1.58 -1.44,2.39c-0.71,1.2 -0.71,1.2 -1.43,2.42c-0.37,0.61 -0.75,1.21 -1.13,1.83c-1.02,-2.65 -1.13,-3.69 0,-6.36c0.47,-0.79 0.95,-1.58 1.44,-2.39c0.47,-0.8 0.94,-1.6 1.43,-2.42c0.37,-0.61 0.75,-1.21 1.13,-1.83z" fill="#120F0A" id="svg_102" transform="translate(838,670)"/>
  <path d="m0,0c1.32,0.33 2.64,0.66 4,1c0.13,3.38 0.13,3.38 0,7c-0.66,0.66 -1.32,1.32 -2,2c0,-2.64 0,-5.28 0,-8c-1.32,0.33 -2.64,0.66 -4,1c0.66,-0.99 1.32,-1.98 2,-3z" fill="#0A0906" id="svg_104" transform="translate(599,334)"/>
  <path d="m0,0c3.61,2.4 3.85,3.95 5,8c-5.66,-2.46 -5.66,-2.46 -7.38,-5.19c-0.2,-0.6 -0.41,-1.19 -0.62,-1.81c0.99,-0.33 1.98,-0.66 3,-1z" fill="#BF7240" id="svg_105" transform="translate(491,317)"/>
  <path d="m0,0c0.66,0.33 1.32,0.66 2,1c-0.66,1.32 -1.32,2.64 -2,4c0.66,0.33 1.32,0.66 2,1c-0.33,0.99 -0.66,1.98 -1,3c-1.32,-0.33 -2.64,-0.66 -4,-1c-0.37,-4.55 -0.37,-4.55 1.5,-6.81c0.5,-0.39 0.99,-0.79 1.5,-1.19z" fill="#0F0B08" id="svg_108" transform="translate(600,312)"/>
  <path d="m0,0c1.32,1.32 2.64,2.64 4,4c-1.37,2.5 -1.37,2.5 -3,5c-0.66,0 -1.32,0 -2,0c0.33,-2.97 0.66,-5.94 1,-9z" fill="#EBE5D8" id="svg_110" transform="translate(598,754)"/>
  <path d="m0,0c3.4,1.13 4.05,2.13 6,5c1.32,-0.66 2.64,-1.32 4,-2c-1.32,1.65 -2.64,3.3 -4,5c-0.99,-0.33 -1.98,-0.66 -3,-1c-1.69,-3.56 -1.69,-3.56 -3,-7z" fill="#090704" id="svg_111" transform="translate(187,685)"/>
  <path d="m0,0c1.27,0.93 2.54,1.87 3.81,2.81c0.71,0.52 1.42,1.05 2.15,1.58c1.83,1.44 3.44,2.93 5.04,4.61c-3.74,0 -4.45,-0.93 -7.19,-3.37c-0.71,-0.63 -1.43,-1.26 -2.17,-1.9c-1.64,-1.73 -1.64,-1.73 -1.64,-3.73z" fill="#130D09" id="svg_112" transform="translate(323,455)"/>
  <path d="m0,0c4.04,1.78 7.46,4.4 11,7c-0.99,0.33 -1.98,0.66 -3,1c-2.04,-1.14 -2.04,-1.14 -4.19,-2.81c-0.71,-0.55 -1.43,-1.09 -2.17,-1.65c-0.54,-0.51 -1.08,-1.02 -1.64,-1.54c0,-0.66 0,-1.32 0,-2z" fill="#B56838" id="svg_114" transform="translate(425,562)"/>
  <path d="m0,0c0.33,0.66 0.66,1.32 1,2c0.99,0.33 1.98,0.66 3,1c0.33,2.97 0.66,5.94 1,9c-3.06,-3.75 -5,-7.08 -5,-12z" fill="#E99357" id="svg_115" transform="translate(301,415)"/>
  <path d="m0,0c1.34,0.78 2.67,1.58 4,2.38c1.11,0.66 1.11,0.66 2.25,1.33c0.58,0.43 1.16,0.85 1.75,1.29c0,0.66 0,1.32 0,2c-1.32,0.33 -2.64,0.66 -4,1c-1.33,-2.67 -2.67,-5.33 -4,-8z" fill="#F3EDE5" id="svg_116" transform="translate(499,338)"/>
  <path d="m0,0c0.99,0 1.98,0 3,0c0,0.99 0,1.98 0,3c-2.37,1.56 -2.37,1.56 -5,3c-0.66,0.66 -1.32,1.32 -2,2c0,-3.95 1.34,-5.19 4,-8z" fill="#F2EFE5" id="svg_117" transform="translate(596,339)"/>
  <path d="m0,0c3.8,1.49 5.61,3.76 8,7c-3,0 -3,0 -5.69,-2.37c-2.31,-2.63 -2.31,-2.63 -2.31,-4.63z" fill="#E5E0D3" id="svg_118" transform="translate(623,627)"/>
  <path d="m0,0c0.33,0 0.66,0 1,0c0.33,3.63 0.66,7.26 1,11c-0.99,0 -1.98,0 -3,0c0.33,-3.63 0.66,-7.26 1,-11z" fill="#2C271F" id="svg_119" transform="translate(736,359)"/>
  <path d="m0,0c1.6,4 0.29,7.05 -1,11c-0.66,-0.99 -1.32,-1.98 -2,-3c0.76,-2.85 1.68,-5.37 3,-8z" fill="#EDE8D9" fill-opacity="0.52" id="svg_120" transform="translate(182,344)"/>
  <path d="m0,0c0.66,0.33 1.32,0.66 2,1c-2.36,3.79 -4.96,5.21 -9,7c1.49,-3.8 3.76,-5.61 7,-8z" fill="#0F0D09" id="svg_122" transform="translate(266,214)"/>
  <path d="m0,0c0.66,0.66 1.32,1.32 2,2c-4.29,1.26 -6.88,0.63 -11,-1c3.34,-2.1 5.25,-2.18 9,-1z" fill="#BC7243" id="svg_123" transform="translate(490,485)"/>
  <path d="m0,0c0.8,0.13 1.6,0.26 2.43,0.39c0.8,0.12 1.61,0.24 2.45,0.36c0.61,0.11 1.22,0.21 1.86,0.32c-0.33,0.66 -0.66,1.32 -1,2c-2.97,0 -5.94,0 -9,0c-0.33,0.66 -0.66,1.32 -1,2c-0.33,-0.66 -0.66,-1.32 -1,-2c1.72,-2.17 2.42,-2.98 5.26,-3.07z" fill="#9B5B32" id="svg_124" transform="translate(331.26171875,384.92578125)"/>
  <path d="m0,0c3.63,2.65 5.9,5.02 8,9c-0.99,0.49 -0.99,0.49 -2,1c-1.01,-1.29 -2,-2.58 -3,-3.87c-0.56,-0.72 -1.11,-1.44 -1.69,-2.18c-1.31,-1.95 -1.31,-1.95 -1.31,-3.95z" fill="#120D08" id="svg_125" transform="translate(518,774)"/>
  <path d="m0,0c1.56,1 1.56,1 3,3c-0.03,2.77 -0.51,5.26 -1,8c-0.33,0 -0.66,0 -1,0c-2.13,-7.62 -2.13,-7.62 -1,-11z" fill="#3B1916" id="svg_126" transform="translate(712,747)"/>
  <path d="m0,0c0.66,0 1.32,0 2,0c2.37,2.99 3.92,5.03 4.25,8.88c-0.08,0.7 -0.17,1.4 -0.25,2.12c-2.86,-3.41 -4.35,-6.91 -6,-11z" fill="#0D0B08" id="svg_127" transform="translate(666,691)"/>
  <path d="m0,0c1.73,3.23 2.38,5.3 2,9c-0.66,0.99 -1.32,1.98 -2,3c-0.33,-0.33 -0.66,-0.66 -1,-1c0.09,-1.86 0.25,-3.71 0.44,-5.56c0.1,-1.01 0.2,-2.03 0.31,-3.07c0.08,-0.78 0.16,-1.56 0.25,-2.37z" fill="#221E18" id="svg_128" transform="translate(213,661)"/>
  <path d="m0,0c1.88,3.27 2.49,6.28 3,10c-0.99,0.33 -1.98,0.66 -3,1c-1.13,-7.62 -1.13,-7.62 0,-11z" fill="#242019" id="svg_129" transform="translate(155,600)"/>
  <path d="m0,0c-1.58,4.27 -4.51,6.27 -8,9c0.46,-4.15 3.52,-9 8,-9z" fill="#120C09" id="svg_130" transform="translate(696,443)"/>
  <path d="m0,0c0.66,0 1.32,0 2,0c1.76,3.09 2,4.23 2,8c-0.99,-0.33 -1.98,-0.66 -3,-1c-0.33,-2.31 -0.66,-4.62 -1,-7z" fill="#0F0D08" id="svg_131" transform="translate(174,658)"/>
  <path d="m0,0c1.35,4.05 0.62,6.79 0,11c-0.33,0 -0.66,0 -1,0c-0.12,-0.97 -0.25,-1.94 -0.38,-2.94c-0.2,-1.01 -0.41,-2.02 -0.62,-3.06c-0.66,-0.33 -1.32,-0.66 -2,-1c1.32,-1.32 2.64,-2.64 4,-4z" fill="#D37B43" id="svg_132" transform="translate(601,589)"/>
  <path d="m0,0c0.33,0.99 0.66,1.98 1,3c-1.94,3.19 -1.94,3.19 -4,6c-0.66,-0.33 -1.32,-0.66 -2,-1c1.65,-2.64 3.3,-5.28 5,-8z" fill="#0F0B08" id="svg_133" transform="translate(361,453)"/>
  <path d="m0,0c0.75,1.75 0.75,1.75 1,4c-1.94,2.25 -1.94,2.25 -4,4c0,-3.58 1.09,-5.05 3,-8z" fill="#0E0B08" id="svg_134" transform="translate(701,434)"/>
  <path d="m0,0c1.18,0.93 2.34,1.87 3.5,2.81c0.65,0.52 1.3,1.05 1.97,1.58c1.53,1.61 1.53,1.61 1.53,4.61c-3.01,-2.85 -5.28,-5.24 -7,-9z" fill="#0E0B08" id="svg_135" transform="translate(543,804)"/>
  <path d="m0,0c2.64,0.66 5.28,1.32 8,2c0,0.33 0,0.66 0,1c-2.31,0.66 -4.62,1.32 -7,2c-0.33,-1.65 -0.66,-3.3 -1,-5z" fill="#EAE5D7" id="svg_137" transform="translate(443,759)"/>
  <path d="m0,0c1.98,0 3.96,0 6,0c0,0.66 0,1.32 0,2c-2.64,0.66 -5.28,1.32 -8,2c0.66,-1.32 1.32,-2.64 2,-4z" fill="#0B0906" id="svg_138" transform="translate(646,702)"/>
  <path d="m0,0c0.33,0 0.66,0 1,0c0.66,3.63 1.32,7.26 2,11c-1.32,-0.66 -2.64,-1.32 -4,-2c0.33,-2.97 0.66,-5.94 1,-9z" fill="#D3CABA" id="svg_140" transform="translate(454,340)"/>
  <path d="m0,0c2.64,0.66 5.28,1.32 8,2c-3,2 -3,2 -5.12,1.81c-0.62,-0.27 -1.24,-0.53 -1.88,-0.81c-0.33,-0.99 -0.66,-1.98 -1,-3z" fill="#DAD6CF" id="svg_141" transform="translate(482,330)"/>
  <path d="m0,0c1.98,0 3.96,0 6,0c0.66,1.32 1.32,2.64 2,4c-3.2,0 -5.09,-0.74 -8,-2c0,-0.66 0,-1.32 0,-2z" fill="#211F19" id="svg_142" transform="translate(640,329)"/>
  <path d="m0,0c1.65,0.99 3.3,1.98 5,3c-0.33,1.65 -0.66,3.3 -1,5c-2.15,-2.62 -3.4,-4.64 -4,-8z" fill="#DCD8CD" id="svg_143" transform="translate(698,197)"/>
 </g>
</svg>